<?xml version="1.0" encoding="UTF-8"?>
<svg id="Layer_1" data-name="Layer 1" xmlns="http://www.w3.org/2000/svg" viewBox="0 0 500 339.94">
  <defs>
    <style>
      .cls-1 {
        fill: #fff;
      }

      .cls-2 {
        opacity: .6;
      }

      .cls-3 {
        opacity: .2;
      }

      .cls-4 {
        fill: #16b768;
      }

      .cls-5 {
        fill: #777882;
      }

      .cls-6 {
        fill: #b199c5;
      }

      .cls-7 {
        fill: #ff67a0;
      }
    </style>
  </defs>
  <g class="cls-3">
    <path d="m484.28,205.56c-26.28,26.08-54.38,53.19-88.88,60.35-19.88,4.13-40.68,1.26-60.21,7.11-23.58,7.07-42.64,25.92-63.37,40.39-20.1,14.03-42.71,24.28-66.32,26.22-23.61,1.93-48.26-5.04-66.39-22.12,3.8,3.58,68.15-35.78,76.13-39.72,26.49-13.07,53.22-25.51,80.18-37.29,53.48-23.37,107.85-44.19,162.91-62.37,8.09-2.67,33.63-15.83,39.22-8.24,8.35,11.34-6.8,29.26-13.27,35.68Z"/>
  </g>
  <polygon class="cls-1" points="315.73 265.2 166.05 331.4 3.56 283.88 157.39 220.72 315.73 265.2"/>
  <path class="cls-4" d="m201.8,276.06c-.3,1.22-1.17,2.25-2.4,2.45-31.95,5.36-61.31,8.79-93.69,12.72-3.58.44-7.26-2.44-7.99-6.39-.73-3.95,1.5-8.93,5.06-9.44,28.89-4.12,47.72-7.46,76.23-11.67,6.82-3.87,17.57,2.31,22.3,9.37.6.9.72,1.99.49,2.96Z"/>
  <path d="m104.96,293.77c-4.41,0-8.52-3.58-9.42-8.42-.53-2.88.12-6.22,1.71-8.71,1.34-2.1,3.2-3.42,5.25-3.71,16.01-2.28,28.7-4.29,42.13-6.41,10.42-1.65,21.18-3.35,33.73-5.21,8.2-4.26,19.86,3.04,24.72,10.29.98,1.47,1.29,3.33.85,5.12,0,0,0,0,0,0-.55,2.25-2.21,3.93-4.22,4.26-29.66,4.97-57.37,8.33-86.71,11.88l-7.06.85c-.33.04-.66.06-.98.06Zm78.84-28.74c-1.39,0-2.68.29-3.8.92-.22.13-.46.21-.71.25-12.68,1.88-23.54,3.59-34.05,5.25-13.45,2.13-26.15,4.14-42.19,6.42-1.09.15-1.84,1.11-2.2,1.66-.88,1.38-1.26,3.26-.97,4.8.5,2.65,3.1,4.72,5.58,4.41l7.06-.85c29.3-3.55,56.97-6.89,86.54-11.85.41-.07.55-.51.59-.65.04-.17.08-.5-.12-.8-3.45-5.15-10.3-9.56-15.72-9.56Zm17.99,11.03h0,0Z"/>
  <path d="m133.07,285.65c1.06-2.02,1.22-4.91.18-7.35v-.02c-.2-.46-.03-1,.37-1.22.35-.19.75-.07.98.25,1.87,2.56,2.64,6.24,1.78,9.79l-.03.11c-.26,1.08-1.25,1.71-2.21,1.41-.96-.29-1.52-1.41-1.26-2.48.04-.17.11-.34.18-.49Z"/>
  <path d="m155.9,266.33c1.61.96,2.93,2.46,3.74,4.2.82,1.74,1.14,3.71.95,5.57-.06.59-.53,1.02-1.06.95-.46-.06-.81-.48-.85-.99v-.02c-.1-1.45-.59-2.81-1.35-3.87-.76-1.06-1.78-1.81-2.87-2.18-.95-.32-1.48-1.44-1.2-2.5.29-1.06,1.28-1.66,2.23-1.34.11.04.22.09.31.14l.08.05Z"/>
  <path d="m199.11,278.28c-2.52,0-6.47-.45-11.38-2.48-8.99-3.74-10.42-11.37-10.47-11.69-.15-.88.23-1.76.94-2.16,8.02-4.55,19.69,2.73,24.53,9.95.9,1.34,1.18,3.05.78,4.69-.18.72-.7,1.27-1.35,1.43-.1.02-1.18.27-3.06.27Zm2.69-2.22h0,0Zm-20.53-11.17c.83,1.91,2.88,5.16,7.7,7.16,5.02,2.08,8.88,2.31,10.9,2.21-4.08-6.07-12.81-11.11-18.6-9.38Z"/>
  <path d="m166.05,335.39c-.3,0-.6-.04-.9-.13L2.66,287.74c-1.51-.44-2.58-1.93-2.66-3.67-.07-1.74.87-3.34,2.33-3.94l153.84-63.16c.67-.28,1.39-.32,2.08-.12l158.34,44.48c1.5.42,2.58,1.88,2.68,3.61.1,1.73-.81,3.34-2.24,3.97l-149.68,66.2c-.42.18-.86.28-1.3.28ZM15.47,283.24l150.36,43.97,138.28-61.16-146.52-41.16L15.47,283.24Z"/>
  <path class="cls-5" d="m169.81,231.47c-1.47.33-30.52,30.9-65.41,27.27-21.85-2.26-31.25-15.04-32.17-27.95-.36-4.86.51-9.75,2.36-14.09,1.38-3.25,3.32-6.21,5.72-8.62,7.88-7.93,17.7-4.89,24.29-1.19,4.41,2.47,7.39,5.24,7.39,5.24l.39-.48,17.21-21.01s41.69,40.49,40.22,40.83Z"/>
  <g class="cls-3">
    <path d="m169.81,231.47c-1.47.33-30.52,30.9-65.41,27.27-21.85-2.26-31.25-15.04-32.17-27.95-.36-4.86.51-9.75,2.36-14.09.67,5.94,4.28,11.59,9.36,13.67,7.38,3.02,16.37-1.52,19.73-9.48,2.11-4.99,1.43-9.58.92-14,4.41,2.47,7.39,5.24,7.39,5.24l.39-.48,17.21-21.01s41.69,40.49,40.22,40.83Z"/>
  </g>
  <path class="cls-5" d="m448.08,72.18c-3.68,10.9-17.19,15.95-30.28,11.41-13.16-4.58-21.13-17.2-17.72-28.31.2-.65.44-1.28.7-1.89,4.35-9.95,17.31-14.42,29.96-9.91,8.28,2.95,14.39,9.03,16.95,15.85,1.56,4.18,1.8,8.64.38,12.83Z"/>
  <g class="cls-3">
    <path d="m448.08,72.18c-3.68,10.9-17.19,15.95-30.28,11.41-13.16-4.58-21.13-17.2-17.72-28.31.2-.65.44-1.28.7-1.89,3.07,3.08,6.84,5.43,10.7,7.04,11.6,4.87,24.83,4.28,36.21-1.1,1.56,4.18,1.8,8.64.38,12.83Z"/>
  </g>
  <g class="cls-2">
    <path class="cls-1" d="m400.08,64.19c3.46-11.25,17.24-16.58,30.67-11.79,9.31,3.32,15.87,10.58,17.73,18.42,2.69-10.71-4.92-22.75-17.73-27.32-13.43-4.79-27.21.54-30.67,11.79-.99,3.22-1.02,6.56-.25,9.8.08-.3.15-.6.25-.9Z"/>
  </g>
  <path d="m427.59,89.28c-3.52,0-7.19-.6-10.84-1.87-8.48-2.95-15.32-9-18.75-16.6-2.48-5.48-2.93-11.46-1.28-16.82,4.1-13.32,19.84-19.73,35.11-14.29,8.55,3.05,15.36,9.22,18.68,16.93,2.4,5.58,2.72,11.61.91,16.98h0c-3.32,9.82-12.85,15.68-23.82,15.68Zm-6.72-43.53c-8.21,0-15.35,4.08-17.43,10.84-1.3,4.23-.23,8.11.9,10.61,2.53,5.6,7.95,10.3,14.51,12.58,11.28,3.92,22.9-.12,25.91-9.01h0c1.13-3.35.9-7.04-.66-10.67-2.43-5.66-7.83-10.44-14.43-12.79-2.95-1.05-5.94-1.55-8.8-1.55Z"/>
  <path class="cls-1" d="m493.52,183.82c-2.37,5.54-6.85,9.91-11.52,13.61-10.95,8.68-23.73,14.66-36.89,17.27-19.81,15.59-42.34,25.86-65.33,30.42-15.47,3.07-31.26,3.57-46.75,1.35-22.34,22.07-52.86,33.18-83.05,30.84-6.22-.48-12.6-1.55-18.23-4.57-5.64-3.04-10.48-8.39-11.45-14.54-1.22-7.7,3.88-14.84,10.54-18.54,6.71-3.71,14.73-4.66,22.53-5.67,7.81-1.02,15.86-2.26,22.4-6.49,7.65-44.19,17.97-90.25,28.9-139.02,8.04-7.1,17-13.12,26.55-17.78,12.76-6.22,26.53-9.99,40.57-10.68,24.66-1.24,49.53,7.31,67.38,24.71,4.49,4.37,8.48,9.29,11.88,14.61,9.88,15.4,14.92,34.13,13.32,52.65.76-.05,1.51-.08,2.25-.09,8.72-.2,15.73,1.91,20.89,6.15.76.62,1.47,1.28,2.14,1.99,6.42,6.74,7.31,15.7,3.85,23.77Z"/>
  <path class="cls-5" d="m481.99,197.44c-11.22,8.3-26.38,13.07-39.54,15.69,19.26-25.1,18.92-61.23,18.92-61.23,11.08-.71,22.68,2.11,28.29,8.15,7.97,8.58,7.69,26.02-7.67,37.38Z"/>
  <path class="cls-5" d="m379.78,245.13c-13.98,2.77-28.22,3.45-42.27,1.91-1.49-.16-2.99-.35-4.48-.56-22.34,22.07-52.86,33.18-83.05,30.84-6.22-.48-12.6-1.55-18.23-4.57-5.64-3.04-10.48-8.39-11.45-14.54-1.22-7.7,3.88-14.84,10.54-18.54,6.71-3.71,14.73-4.66,22.53-5.67,7.81-1.02,15.86-2.26,22.4-6.49.14-.82.28-1.64.44-2.45,7.6-43.44,17.74-88.69,28.46-136.57,8.04-7.1,17-13.12,26.55-17.78,31.31,19.48,89.02,90.76,48.55,174.41Z"/>
  <g class="cls-3">
    <path d="m489.67,160.06c-.68-.71-1.39-1.37-2.14-1.99-3.93,8.74-11.71,17.92-25.99,8.75,1.97-4.84,2.74-13.63,2.85-14.8,1.6-18.52-3.44-37.26-13.32-52.65.55,2.12,1.1,4.14,1.3,5.69.64,4.96,1.02,9.96,1.15,14.97.46,19.23-3.01,38.68-11.14,55.7-6.84,14.33-28.69,39.27-63.21,45.31-5.46.96-10.15-4.41-9.56-10.58,1.62-17.02-2.59-31.7-2.59-31.7-5.12,19.86-12.16,35.17-17,44.3-3.02,2.53-33,27.64-60.74,29.78-5.61.43-12.35,1.23-15.52-3.99-2.92-4.8-.87-11.59,2.68-15.82,3.56-4.23,8.33-6.89,12.18-10.78-1.72,1.74-9.44,2.65-12.39,2.83-.15.82-.29,1.64-.44,2.45-6.54,4.22-14.59,5.47-22.4,6.49-7.8,1.01-15.82,1.96-22.53,5.67-6.67,3.7-11.76,10.84-10.54,18.54.97,6.15,5.8,11.49,11.45,14.54,5.64,3.02,12.01,4.09,18.23,4.57,30.19,2.33,60.71-8.77,83.05-30.84,15.48,2.23,31.28,1.73,46.75-1.35,22.99-4.56,45.51-14.84,65.33-30.42,13.16-2.61,25.94-8.59,36.89-17.27,4.67-3.7,9.15-8.07,11.52-13.61,3.46-8.07,2.57-17.02-3.85-23.77Z"/>
  </g>
  <path d="m257.99,281.62c-2.74,0-5.49-.1-8.24-.32-5.6-.43-12.88-1.38-19.52-4.96-7.3-3.92-12.31-10.44-13.42-17.44-1.38-8.75,3.63-17.92,12.47-22.82,7.03-3.9,15.11-4.94,22.92-5.96l.78-.1c7.16-.93,14.05-2.04,19.64-5.14,7.6-43.56,17.75-88.86,28.49-136.79l.13-.59c.19-.86.63-1.62,1.25-2.16,8.35-7.38,17.55-13.54,27.33-18.3,13.55-6.6,27.62-10.3,41.83-11.01,26.29-1.31,51.77,8.05,69.87,25.69,17.7,17.24,27.49,41.7,26.68,66.18,10.13.09,18.15,3.18,23.9,9.23,7.25,7.62,8.98,18.24,4.63,28.41,0,0,0,0,0,0-2.96,6.91-8.65,11.95-12.67,15.14-11.16,8.84-24.12,14.98-37.54,17.78-19.69,15.34-42.53,25.91-66.1,30.59-15.47,3.07-31.01,3.6-46.23,1.59-20.79,19.93-48.09,30.96-76.18,30.96Zm49.84-190.82c-10.8,48.22-21,93.79-28.56,137.48-.2,1.14-.82,2.12-1.72,2.7-6.99,4.5-15.23,5.87-23.76,6.98l-.78.1c-7.21.93-14.66,1.9-20.59,5.18-4.98,2.76-9.57,8.24-8.62,14.26.7,4.4,4.33,8.86,9.49,11.63,5.56,2.99,11.97,3.81,16.94,4.19,29.62,2.28,58.93-8.6,80.46-29.86.77-.76,1.79-1.11,2.8-.96,15.01,2.16,30.38,1.72,45.68-1.32,22.81-4.53,44.91-14.82,63.9-29.77.42-.34.91-.56,1.42-.66,12.67-2.52,24.93-8.26,35.46-16.59,3.37-2.68,8.12-6.85,10.37-12.08h0c2.98-6.97,1.86-13.94-3.07-19.13-5.01-5.27-12.63-7.61-22.65-6.97-1.05.07-2.05-.38-2.77-1.22-.72-.84-1.08-1.99-.98-3.15,2.01-23.38-6.96-47.26-24-63.86-16.74-16.31-40.39-24.97-64.89-23.74-13.34.66-26.56,4.15-39.31,10.35-8.86,4.31-17.2,9.84-24.81,16.42Zm185.69,93.02h0,0Z"/>
  <path d="m110.22,263.03c-2.07,0-4.12-.11-6.16-.32-17.62-1.83-30.06-10.79-34.12-24.58-3.4-11.53-.18-24.8,7.99-33.03,12.13-12.21,27.43-2.98,33.59,1.69l15.44-18.86c1.3-1.59,3.49-1.73,4.95-.32.1.1,10.28,9.98,20.28,19.91,5.89,5.84,10.57,10.55,13.91,14.01,6.64,6.87,7.84,8.11,7.18,10.9-.27,1.15-1,2.11-1.93,2.62-.3.24-1,.83-1.62,1.37-20.56,17.68-40.55,26.61-59.51,26.61Zm-18.24-55.9c-3.22,0-6.46,1.05-9.3,3.92-6.1,6.14-8.51,16.03-5.99,24.58,3.18,10.79,13.13,17.59,28.03,19.13,18.68,1.94,38.81-6.11,59.83-23.94-5.69-6.12-20.52-20.85-34.68-34.64l-15.25,18.64c-1.28,1.56-3.43,1.73-4.89.37-.12-.11-8.87-8.07-17.74-8.07Zm78.54,28.24s0,0,0,0c0,0,0,0,0,0Z"/>
  <path class="cls-1" d="m106.49,273.5l-36.67-108.62c-1.09-3.23.36-6.83,3.23-8.06,2.87-1.22,6.09.4,7.18,3.63l36.67,108.62c1.8,6.17.74,14.26-.77,14.76-1.51.5-7.99-5.27-9.64-10.34Z"/>
  <path d="m116.04,286.84c-3.95,0-10.48-7.48-12.06-12.29l-36.67-108.6c-.78-2.31-.71-4.82.19-7.07.9-2.25,2.53-3.97,4.59-4.85,2.05-.88,4.29-.8,6.3.21,2.01,1.01,3.54,2.84,4.32,5.15l36.67,108.62s.03.08.04.13c1.69,5.79,1.25,13.08-.23,16.25-.57,1.22-1.35,2-2.31,2.32-.26.09-.54.13-.84.13Zm.15-5.93h0,0Zm-41.17-121.49c-.35,0-.69.07-1.03.21-.73.31-1.3.91-1.62,1.71-.32.79-.34,1.68-.07,2.49l36.67,108.62s0,.02.01.04c.95,2.92,4,6.13,5.9,7.62.4-2.29.52-6.44-.51-10.02l-36.65-108.55c-.27-.81-.81-1.46-1.52-1.81-.38-.19-.78-.29-1.19-.29Z"/>
  <path class="cls-5" d="m176.48,47.12c0,23.81-17.2,43.11-38.42,43.11s-38.42-19.31-38.42-43.11c0-1.29.05-2.56.15-3.82.36-4.55,1.34-8.9,2.86-12.93,5.82-15.5,19.48-26.37,35.4-26.37,7.99,0,15.42,2.74,21.56,7.43,2,1.52,3.87,3.25,5.56,5.16,6.98,7.8,11.29,18.6,11.29,30.53Z"/>
  <g class="cls-2">
    <path class="cls-1" d="m103.93,56.86c0-1.29.05-2.56.15-3.82.36-4.55,1.34-8.9,2.86-12.93,5.82-15.5,19.48-26.37,35.4-26.37,7.99,0,15.42,2.74,21.56,7.43,2,1.52,3.87,3.25,5.56,5.16,1.83,2.05,3.47,4.31,4.91,6.74-1.93-6.28-5.09-11.9-9.19-16.48-1.7-1.91-3.56-3.64-5.56-5.16-6.14-4.69-13.57-7.43-21.56-7.43-15.92,0-29.58,10.88-35.4,26.37-1.52,4.03-2.51,8.38-2.86,12.93-.1,1.26-.15,2.53-.15,3.82,0,8.79,2.35,16.97,6.38,23.79-1.35-4.4-2.1-9.12-2.1-14.04Z"/>
  </g>
  <path d="m138.06,94.23c-23.14,0-41.97-21.13-41.97-47.11S114.92,0,138.06,0s41.97,21.13,41.97,47.11-18.83,47.11-41.97,47.11Zm0-86.24c-19.22,0-34.86,17.55-34.86,39.13s15.64,39.13,34.86,39.13,34.86-17.55,34.86-39.13-15.64-39.13-34.86-39.13Z"/>
  <ellipse cx="132.82" cy="45.5" rx="16.37" ry="18.37"/>
  <g class="cls-3">
    <path d="m176.48,47.12c0,23.81-17.2,43.11-38.42,43.11s-38.42-19.31-38.42-43.11c0-1.29.05-2.56.15-3.82,12.81,2.98,26.52,1.13,38.18-5.52,9.49-5.4,17.52-13.88,23.12-24.04,1.41.87,2.78,1.82,4.1,2.84,6.98,7.8,11.29,18.6,11.29,30.53Z"/>
  </g>
  <path class="cls-1" d="m309.86,211.81c-13.46,13.8-38.77,34.89-119.95,27.76-98.73-8.69-134-98.89-54.6-188.02C181.91-.77,232.86,2.46,269.24,28.21c20.43,14.47,36.26,36.04,44.14,58.87,1.62,4.69,3.08,9.22,4.39,13.61,18.58,61.99,7.94,94.86-7.91,111.12Z"/>
  <g class="cls-3">
    <path d="m190.31,232.36c81.23,6.24,106.36-15.14,119.69-29.09,9.37-9.8,16.83-25.51,17.26-49.71-.07-1.97-.18-3.98-.34-6.05-1.42,20.96-8.42,34.94-17.02,43.95-13.33,13.96-38.46,35.33-119.69,29.09-57.45-4.42-93.68-36.63-98.49-80.52-.17,2.02-.28,4.02-.33,6,2.14,46.83,38.97,81.72,98.93,86.33Z"/>
  </g>
  <path d="m221.05,245.03c-9.46,0-19.89-.47-31.41-1.48-24.64-2.17-45.75-9.22-62.75-20.96-16.47-11.37-28.32-26.96-34.28-45.07-12.77-38.84,1.88-85.78,40.19-128.79,16.2-18.18,33.76-30.73,52.21-37.3,16.69-5.94,33.75-6.91,50.72-2.9,18.04,4.27,35.34,14.14,50.04,28.55,14,13.73,24.7,30.52,30.92,48.55,26.24,76.03,12.07,112.18-4.44,129.11-14.93,15.32-37.62,30.27-91.21,30.27Zm-5.94-230.94c-21.87,0-49.25,8.81-77.28,40.28-36.27,40.71-50.32,84.59-38.55,120.38,11.37,34.58,44.5,56.75,90.91,60.84,11.39,1,21.67,1.46,30.95,1.46,51.09,0,72.4-13.91,86.31-28.19h0c9.19-9.43,14.63-22.81,16.15-39.77,1.96-21.73-2.6-48.83-13.55-80.56-12.19-35.32-42.65-64.33-75.8-72.18-5.71-1.35-12.15-2.26-19.15-2.26Z"/>
  <path class="cls-5" d="m221.78,113.66c15.92-3.12,20.35,11.9,29.74,21.64,11.83,12.27,19.57,14.62,24.18,29.09,3.99,12.52-3.46,28.08-14.74,33.6-11.35,5.56-30.16,6.02-45.82-10.37-24.05-25.19-16.81-69.37,6.63-73.96Z"/>
  <path class="cls-5" d="m155.37,108.34c-14.23-2.81-18.18,10.73-26.57,19.51-10.56,11.06-17.48,13.18-21.6,26.22-3.57,11.29,3.09,25.32,13.17,30.29,10.14,5.01,26.95,5.43,40.93-9.35,21.48-22.71,15.02-62.53-5.93-66.68Z"/>
  <path d="m179.97,197.5c3.7.63,13.12-5.39,11.63-12.73-1.49-7.35-17.69-7.85-20.99-2.16s4.45,14.06,9.37,14.89Z"/>
  <path d="m209.61,204.12c-.3,1.47-.81,2.43-1.35,3.37-.55.92-1.16,1.71-1.82,2.44-1.33,1.45-2.85,2.64-4.53,3.49-1.67.86-3.46,1.4-5.28,1.59-1.81.19-3.62.05-5.35-.34-3.51-.75-6.98-2.97-9.27-6.07-1.17-1.53-2.12-3.2-2.88-4.94-.39-.87-.71-1.76-1.02-2.67-.14-.46-.29-.91-.41-1.39-.13-.48-.23-.91-.35-1.52h0s4.9.88,4.9.88c-.21.45-.36.74-.54,1.1-.18.33-.36.66-.56.97-.38.64-.8,1.25-1.25,1.84-.89,1.18-1.89,2.3-3.08,3.26-1.19.94-2.49,1.82-4.02,2.31-1.49.51-3.15.75-4.73.46-.82-.07-1.51-.34-2.24-.55-.36-.1-.71-.31-1.06-.47-.35-.18-.71-.32-1.03-.56-1.37-.8-2.52-2.05-3.43-3.36-.89-1.35-1.52-2.84-1.89-4.36-.36-1.54-.53-2.99-.42-4.63.05-.79.66-1.38,1.36-1.32.51.04.93.42,1.1.92l.07.21c.35,1.06.81,2.26,1.35,3.24.54,1,1.17,1.88,1.87,2.57.69.7,1.44,1.23,2.27,1.59.19.12.42.16.63.23.22.06.41.17.65.19.45.07.92.23,1.32.2,1.64.1,3.23-.6,4.81-1.88.78-.63,1.54-1.4,2.25-2.25.36-.42.7-.87,1.04-1.32.18-.22.32-.46.49-.68l.43-.63.34-.5c.86-1.26,2.47-1.49,3.59-.52.56.48.89,1.18.97,1.91h0c.05.23.14.64.23.98.09.35.21.71.31,1.06.24.7.49,1.41.79,2.07.59,1.34,1.31,2.59,2.14,3.68.83,1.09,1.78,2,2.84,2.67l.39.27.43.21c.28.13.56.32.85.41.29.1.55.22.86.32l.95.26c2.55.59,5.12.35,7.36-.82,1.12-.56,2.15-1.38,3.02-2.32.43-.48.83-1,1.13-1.51.3-.49.53-1.08.57-1.29.24-1.62,1.61-2.71,3.05-2.44,1.44.27,2.41,1.81,2.17,3.43,0,.05-.02.11-.03.16v.07Z"/>
  <path d="m238.76,181.37c-.14-.72-.27-1.61-.46-2.39-.18-.8-.38-1.57-.61-2.31-.46-1.48-1.04-2.81-1.72-3.96-1.36-2.3-3.16-3.74-5.44-4.79l-.42-.21-.44-.15-.87-.32c-.29-.11-.57-.13-.85-.21-.28-.06-.57-.18-.84-.17-.28-.03-.55-.06-.83-.1-.28-.03-.54.02-.82,0-.14,0-.28-.02-.41,0l-.41.06c-.27.05-.56.03-.83.13-1.11.22-2.24.69-3.39,1.38-.57.35-1.15.74-1.72,1.18-.29.22-.57.44-.85.69-.28.21-.57.52-.8.65l-.7.43c-.99.61-2.24.21-2.79-.91-.29-.6-.32-1.29-.13-1.89.2-.63.38-1.07.59-1.58.21-.48.45-.94.7-1.4.24-.47.54-.89.82-1.33.31-.42.63-.83.95-1.25,1.35-1.61,3.07-2.97,5.05-3.83,1.97-.86,4.16-1.27,6.27-1.09.54,0,1.03.14,1.55.22.5.11,1.04.17,1.52.34l1.43.52.71.27c.23.11.46.24.68.36.91.5,1.83.95,2.66,1.66.42.34.86.63,1.25,1.02.39.39.77.8,1.15,1.2,1.45,1.69,2.65,3.69,3.33,5.84.69,2.14,1,4.33.96,6.45-.02,1.06-.11,2.1-.3,3.11-.18,1.04-.41,1.96-.8,3.03-.34.94-1.3,1.39-2.14,1-.51-.24-.86-.73-.98-1.29l-.07-.37Z"/>
  <path class="cls-7" d="m205.07,207.26c-2.6,3.23-7.64,6.29-14.48,4.16-.42-.13-.83-.28-1.22-.46.26-.41.51-.8.67-1.12.69-1.37,1.27-2.8,1.79-4.26,1.11-3.07,1.92-6.25,2.81-9.4.69-2.45,1.66-5.18,3.8-6.12,1.7-.76,3.72-.08,5.07,1.32,1.34,1.39,2.09,3.37,2.5,5.38.7,3.49.35,7.26-.95,10.5Z"/>
  <path d="m206.28,208.16c-.27.44-.64.99-.87,1.28-.26.35-.54.68-.82,1-.58.63-1.21,1.22-1.89,1.73-1.36,1.03-2.89,1.79-4.51,2.25-1.61.46-3.3.61-4.94.48-.41-.02-.82-.08-1.22-.14-.41-.06-.81-.12-1.21-.23l-.6-.14c-.2-.05-.4-.07-.61-.2-.4-.23-.76-.6-.94-1.34h0s-.79-3.07-.79-3.07c.19-.35.39-.68.59-1.05.19-.4.37-.8.54-1.22.35-.82.66-1.67.96-2.54.6-1.74,1.14-3.52,1.65-5.36l.76-2.78c.26-.92.52-1.87.86-2.9.35-1.01.77-2.05,1.4-3.07.63-1.01,1.52-2.02,2.69-2.63,1.15-.64,2.52-.78,3.69-.54,1.19.24,2.25.82,3.13,1.65,1.78,1.7,2.54,3.97,3.01,6.04.47,2.09.65,4.23.49,6.35-.06,1.06-.21,2.11-.43,3.14-.11.52-.23,1.03-.37,1.54-.07.26-.15.51-.23.76-.09.29-.23.66-.36.98Zm-2.44-1.79c.04-.13.08-.21.15-.37.07-.2.15-.4.22-.61.14-.41.27-.83.37-1.26.2-.86.33-1.73.4-2.62.1-1.77-.07-3.57-.55-5.22-.48-1.64-1.41-3.02-2.43-3.69-1.03-.68-2.22-.93-2.98-.45-.82.41-1.56,1.71-2.08,3.35-.27.8-.5,1.72-.76,2.66l-.8,2.8c-.55,1.87-1.12,3.79-1.83,5.65-.36.93-.74,1.87-1.17,2.79-.21.46-.43.92-.67,1.37-.26.46-.57.92-.86,1.38l-.79-3.06h0c.5-.5.8-.61,1.08-.58.25.06.57.17.86.26.29.1.59.17.88.23.29.07.59.14.88.17,1.18.19,2.36.24,3.54.08,1.17-.15,2.34-.48,3.46-1,.56-.25,1.12-.56,1.65-.91.27-.17.54-.35.79-.56.31-.23.4-.28.64-.41Z"/>
  <path class="cls-5" d="m323.07,50.63c0,5.57-1.05,10.89-2.93,15.71-5.35,13.66-17.44,23.29-31.48,22.93-12.85-.33-21.08-7.14-26.1-13.87-5-6.72-6.8-13.35-6.8-13.35-1-3.61-1.53-7.44-1.53-11.42,0-7.65,1.98-14.8,5.41-20.8,0,0,0,0,0-.02,6.12-10.72,16.83-17.81,29-17.81,10.76,0,20.36,5.54,26.68,14.23,4.83,6.66,7.73,15.15,7.73,24.41Z"/>
  <g class="cls-2">
    <path class="cls-1" d="m323.07,50.63c0,5.57-1.05,10.89-2.93,15.71-1.62,3.49-3.7,6.68-6.13,9.44,2.56-5.46,4.02-11.67,4.02-18.23,0-9.26-2.91-17.75-7.73-24.41-6.32-8.69-15.93-14.23-26.68-14.23-9.32,0-17.77,4.15-23.96,10.89,6.12-10.72,16.83-17.81,29-17.81,10.76,0,20.36,5.54,26.68,14.23,4.83,6.66,7.73,15.15,7.73,24.41Z"/>
  </g>
  <ellipse cx="290.29" cy="60.51" rx="15.85" ry="17.79"/>
  <path d="m288.65,87.26c1.7-.23,3.4-.35,5.04-.84l1.24-.28c.41-.09.81-.27,1.21-.4.8-.3,1.61-.52,2.39-.88,3.14-1.31,6.04-3.23,8.64-5.5l.97-.87c.32-.29.65-.57.93-.91l1.77-1.93,1.59-2.11.4-.52.35-.57.7-1.13.7-1.12.61-1.19c.39-.8.86-1.56,1.15-2.41.33-.84.68-1.66.99-2.5l.77-2.59c.88-3.49,1.37-7.09,1.36-10.72-.09-3.62-.63-7.19-1.6-10.61-2.04-6.79-5.92-12.91-11.1-17.1l-.95-.81c-.33-.25-.68-.47-1.02-.7l-1.02-.7-.51-.35c-.18-.11-.36-.2-.54-.29l-2.15-1.17-2.24-.93-.56-.23-.58-.17-1.16-.33-1.16-.34-1.18-.21-1.18-.21c-.39-.08-.79-.16-1.19-.17l-2.39-.17c-3.2-.02-6.4.45-9.48,1.45-3.06,1.09-5.99,2.63-8.66,4.66-2.7,1.99-5.03,4.58-7.05,7.43-2,2.86-3.69,6.06-4.78,9.53-2.29,6.88-2.74,14.65-1.1,21.99.29,1.31-.42,2.64-1.58,2.97-1.09.31-2.19-.37-2.58-1.53-2.66-8.08-2.75-17.22-.48-25.62,1.09-4.23,2.95-8.18,5.21-11.79,2.27-3.61,5.06-6.85,8.28-9.44,3.2-2.61,6.75-4.73,10.54-6.13,3.81-1.33,7.78-2.01,11.77-2.06,3.99,0,7.97.78,11.78,2.15l2.82,1.16,2.71,1.45c.22.12.45.24.67.37l.64.43,1.28.87c.42.29.86.57,1.27.88l1.2,1c1.64,1.28,3.1,2.83,4.54,4.38l2,2.5c.65.85,1.21,1.78,1.81,2.67,2.29,3.67,4.12,7.7,5.32,11.98,1.14,4.3,1.66,8.77,1.65,13.22-.1,4.45-.8,8.88-2.1,13.07l-1.08,3.1c-.42,1-.88,1.98-1.33,2.97-.41,1.01-1,1.9-1.51,2.84l-.79,1.39c-.29.44-.6.87-.9,1.3l-.92,1.29-.46.64-.51.6c-.68.79-1.35,1.59-2.04,2.36l-2.22,2.14c-.36.37-.76.68-1.16.99l-1.19.94c-.4.31-.79.64-1.21.91l-1.27.8c-.85.52-1.68,1.09-2.58,1.49-.89.42-1.76.9-2.67,1.27l-2.75.99c-.92.31-1.88.47-2.81.71-.47.1-.93.25-1.41.3l-1.43.17c-1.89.3-3.81.19-5.69.2-.99,0-1.79-.9-1.79-2.01,0-1.03.69-1.87,1.57-1.99l.22-.03Z"/>
  <path class="cls-5" d="m111.88,234.67c-3.26,3.45-7.61,5.4-12.04,6.21-6.93,1.27-22.29-.12-23.61-7.19-.71-3.84-1.72-3.92-2.74-8.12-.31-4.31-.67-4.53.56-7.55.15-.39.33-.82.54-1.31,1.38-3.25,3.32-6.21,5.72-8.62,7.88-7.93,17.7-4.89,24.29-1.19,4.41,2.47,7.39,5.24,7.39,5.24l.39-.48c2.18,2.72,3.8,5.88,4.21,9.47.03.25.05.51.06.76.3,4.75-1.68,9.51-4.77,12.79Z"/>
  <g class="cls-2">
    <path class="cls-1" d="m116.65,221.88c-6.49-5.17-14.64-7.84-22.67-7.96-6.81-.1-13.52,1.47-19.94,4.09.15-.39.33-.82.54-1.31,1.38-3.25,3.32-6.21,5.72-8.62,7.88-7.93,17.7-4.89,24.29-1.19,4.41,2.47,7.39,5.24,7.39,5.24l.39-.48c2.18,2.72,3.8,5.88,4.21,9.47.03.25.05.51.06.76Z"/>
  </g>
  <g class="cls-3">
    <path d="m111.88,234.67c-3.26,3.45-7.61,5.4-12.04,6.21-6.93,1.27-14.53.71-20.68-3.13-2.48-1.55-4.7-4.52-6.93-6.95-.36-4.86.51-9.75,2.36-14.09.67,5.94,4.28,11.59,9.36,13.67,7.38,3.02,16.37-1.52,19.73-9.48,2.11-4.99,1.43-9.58.92-14,4.41,2.47,7.39,5.24,7.39,5.24l.39-.48c2.18,2.72,3.8,5.88,4.21,9.47.57,5-1.46,10.1-4.71,13.55Z"/>
  </g>
  <path d="m84.8,237.37c1.84.87,3.81,1.33,5.82,1.51,2,.19,4.03.11,6.01-.18,3.96-.58,7.84-1.99,10.85-4.28,1.5-1.13,2.72-2.51,3.57-4.01l.29-.58c.1-.2.2-.45.3-.66.21-.45.37-.91.53-1.37.34-.91.58-1.82.75-2.74.35-1.83.37-3.71.03-5.68-.18-.98-.42-1.99-.77-3-.18-.5-.36-1.01-.57-1.51l-.33-.75c-.1-.24-.25-.51-.31-.7l-.18-.57c-.28-.88.14-1.85.93-2.16.43-.17.89-.1,1.25.13.35.23.59.4.87.61.27.2.52.42.77.65.49.46.97.94,1.39,1.48.87,1.06,1.64,2.27,2.23,3.62,1.21,2.67,1.74,5.88,1.45,8.96-.13,1.54-.45,3.04-.9,4.45-.23.7-.48,1.39-.77,2.05-.15.33-.27.65-.45,1l-.54,1.03c-.77,1.33-1.67,2.54-2.66,3.59-.99,1.06-2.08,1.93-3.19,2.7-2.24,1.53-4.62,2.54-7.02,3.19-2.41.65-4.85.93-7.28.89-2.43-.06-4.84-.44-7.18-1.23-1.17-.39-2.31-.91-3.4-1.55-1.09-.63-2.13-1.4-3.06-2.33-.57-.57-.62-1.56-.11-2.2.41-.51,1.04-.65,1.57-.4l.06.03Z"/>
  <path d="m68.67,231.11c-.31-3.07-.2-6.19.33-9.22.54-3.03,1.47-5.97,2.76-8.71,1.32-2.72,2.96-5.27,4.95-7.47,1.94-2.23,4.47-4.18,7.22-5.42,2.76-1.24,5.75-1.76,8.59-1.63,2.85.11,5.56.77,8.11,1.71,2.55.95,4.91,2.23,7.16,3.67,1.12.72,2.21,1.49,3.28,2.31.53.41,1.06.83,1.58,1.27.54.45,1,.85,1.6,1.42l.08.08c.11.1.22.23.31.34.22.3.33.46.48.68l.39.61c.26.41.49.81.72,1.23.46.83.88,1.68,1.26,2.56.75,1.76,1.37,3.65,1.72,5.67.35,2,.42,4.16.1,6.28-.34,2.11-1.08,4.15-2.12,5.87-1.03,1.73-2.31,3.14-3.67,4.31-1.35,1.11-2.77,2.05-4.25,2.83-2.97,1.52-6.15,2.36-9.3,2.41-.52,0-.95-.46-.95-1.04,0-.47.26-.87.64-1.02h.02c2.77-1.05,5.36-2.44,7.58-4.29,1.12-.9,2.16-1.92,3.08-3.01.91-1.04,1.66-2.16,2.16-3.34.5-1.18.77-2.38.85-3.6.04-1.23-.08-2.49-.43-3.75-.33-1.27-.83-2.54-1.47-3.75-.31-.61-.66-1.21-1.03-1.79-.18-.29-.37-.57-.57-.84l-.29-.39c-.09-.11-.21-.28-.24-.3l.39.42c-.32-.28-.82-.67-1.25-1-.45-.34-.91-.68-1.38-1-.93-.65-1.89-1.26-2.86-1.82-1.94-1.13-3.95-2.04-5.95-2.73-2-.68-4.02-1.09-5.94-1.11-1.93-.02-3.75.34-5.42,1.09-1.68.77-3.17,1.92-4.59,3.49-1.44,1.53-2.65,3.36-3.65,5.31-1.01,1.95-1.74,4.09-2.25,6.29-.48,2.2-.7,4.48-.66,6.76v.11c.05,2.2-1.51,4.03-3.47,4.08-1.85.05-3.41-1.52-3.61-3.55Z"/>
  <path d="m330.62,243.55c1.9-1.8,3.85-3.82,5.71-5.84,1.87-2.03,3.68-4.13,5.43-6.28,1.75-2.16,3.41-4.39,5.01-6.67,1.57-2.3,3.03-4.68,4.35-7.15l.03-.05c.54-1.01,1.71-1.34,2.61-.73.84.57,1.14,1.75.74,2.73-1.17,2.81-2.48,5.52-3.91,8.14-1.45,2.6-2.98,5.14-4.59,7.6-1.62,2.46-3.3,4.86-5.05,7.2-1.76,2.35-3.52,4.6-5.48,6.9-1.36,1.59-3.62,1.64-5.04.11-1.42-1.53-1.46-4.06-.1-5.65.09-.1.18-.19.27-.28l.04-.04Z"/>
  <g class="cls-3">
    <path d="m323.07,50.63c0,21.34-15.41,39.13-34.42,38.64-12.85-.33-21.08-7.14-26.1-13.87,8.06.69,16.2-.17,23.84-3.07,11.37-4.33,21.5-13.5,26.38-25.81,2.7-6.83,3.4-13.65,2.56-20.29,4.83,6.66,7.73,15.15,7.73,24.41Z"/>
  </g>
  <g>
    <ellipse cx="149.27" cy="152.58" rx="20.46" ry="13.61" transform="translate(-33.44 262.94) rotate(-76.76)"/>
    <path class="cls-1" d="m153.98,137.64c-2.5.29-4.31,3.74-4.05,7.7.26,3.96,2.49,6.92,4.99,6.63,2.5-.29,4.31-3.74,4.05-7.7-.26-3.96-2.49-6.93-4.99-6.63Z"/>
    <path class="cls-6" d="m141.06,158.94c-1.26.51-1.85,2.54-1.32,4.53.53,1.99,1.99,3.2,3.26,2.69,1.26-.51,1.85-2.54,1.32-4.53-.53-1.99-1.99-3.2-3.26-2.69Z"/>
  </g>
  <ellipse class="cls-1" cx="180.98" cy="182.93" rx="5.39" ry="1.24"/>
</svg>