<?xml version="1.0" encoding="UTF-8"?>
<svg id="Layer_1" data-name="Layer 1" xmlns="http://www.w3.org/2000/svg" viewBox="0 0 305.48 502.45">
  <defs>
    <style>
      .cls-1, .cls-2, .cls-3, .cls-4, .cls-5, .cls-6, .cls-7 {
        fill: #fff;
      }

      .cls-2 {
        stroke: #232333;
      }

      .cls-2, .cls-8, .cls-9, .cls-10 {
        stroke-linejoin: round;
      }

      .cls-2, .cls-11, .cls-9, .cls-10 {
        stroke-width: 4.9px;
      }

      .cls-2, .cls-9, .cls-10 {
        stroke-linecap: round;
      }

      .cls-8 {
        stroke: #000072;
        stroke-width: 3.68px;
      }

      .cls-8, .cls-11, .cls-9 {
        fill: none;
      }

      .cls-12, .cls-6 {
        opacity: .5;
      }

      .cls-3 {
        opacity: .4;
      }

      .cls-13 {
        fill: #e2e2e2;
      }

      .cls-4 {
        opacity: .3;
      }

      .cls-14, .cls-7 {
        opacity: .2;
      }

      .cls-5 {
        opacity: .1;
      }

      .cls-15 {
        fill: #edebeb;
      }

      .cls-16 {
        fill: #777782;
      }

      .cls-17, .cls-10 {
        fill: #fca322;
      }

      .cls-18 {
        fill: #ffd79c;
      }

      .cls-11 {
        stroke-miterlimit: 10;
      }

      .cls-11, .cls-9, .cls-10 {
        stroke: #000;
      }

      .cls-19 {
        fill: #ea3f8d;
      }

      .cls-20 {
        fill: #ff78a9;
      }

      .cls-21 {
        fill: #777882;
      }

      .cls-22 {
        fill: #ffc248;
      }

      .cls-23 {
        fill: #fff2dc;
      }

      .cls-24 {
        fill: #232333;
      }

      .cls-25 {
        fill: #656572;
      }

      .cls-26 {
        fill: #c6c6c6;
      }

      .cls-27 {
        fill: #ffa9a9;
      }
    </style>
  </defs>
  <g>
    <path class="cls-21" d="m35.83,333.27c1.57,9.03,6.72,17.66,15.97,21.62,21.26,9.1,38.52-8.03,38.52-8.03l-2.45-38.08c-3.32,2.75-9.56.47-16.77-1.89-8.76-2.88-18.94-5.87-27.09-.15-7.01,4.93-10.02,16.01-8.18,26.53Z"/>
    <path class="cls-4" d="m57.74,310.41c-8.74-4.12-17.6,8.82-14.13,12.93,2.32,2.75,4.86-3.1,10.76-6.91,3.58-2.32,5.44-5.05,3.37-6.03Z"/>
    <path class="cls-14" d="m35.83,333.27c1.57,9.03,6.72,17.66,15.97,21.62,21.26,9.1,38.52-8.03,38.52-8.03l-2.45-38.08c-3.32,2.75-9.56.47-16.77-1.89-2.35,3.35-5.59,15.1-4.9,28.22.62,11.75-19.86,13.1-30.37-1.84Z"/>
    <path class="cls-9" d="m90.32,346.86s-17.26,17.12-38.52,8.02c-20.02-8.56-20.83-38.99-7.79-48.14,14.86-10.43,36.49,8.12,43.86,2.04"/>
  </g>
  <path class="cls-1" d="m109.06,186.96c6.16,58.28-43.62,79.63-45.77,128.42-1.57,35.7,16.65,63.44,52.48,71.63,12.35,2.82,22.18,4.11,40.69,1.83,64.68-7.97,64.68-176.76,64.68-176.76,0,0-112.9-50.86-112.08-25.11Z"/>
  <path class="cls-1" d="m221.15,212.08s0,30.84-5.05,66.77c-6.77,48.14-22.59,105.42-59.63,109.98-18.52,2.29-28.34,1-40.7-1.83-35.82-8.18-54.05-35.92-52.48-71.63.82-18.65,8.6-33.28,17.56-47.51,14.47-22.99,32.02-44.9,28.22-80.9-.82-25.75,112.08,25.11,112.08,25.11Z"/>
  <path class="cls-1" d="m221.15,212.08s0,30.84-5.05,66.77c-6.77,48.14-22.59,105.42-59.63,109.98-18.52,2.29-28.34,1-40.7-1.83-35.82-8.18-54.05-35.92-52.48-71.63.82-18.65,8.6-33.28,17.56-47.51,14.47-22.99,32.02-44.9,28.22-80.9-.82-25.75,112.08,25.11,112.08,25.11Z"/>
  <path class="cls-1" d="m221.14,212.08s0,30.84-5.05,66.77c-6.77,48.14-22.59,105.42-59.63,109.98-16.31,2.01-25.87,1.26-36.36-.88-1.42-.29-2.86-.61-4.33-.94-28.72-6.56-46.13-25.7-51.09-51.43-1.23-6.36-1.7-13.12-1.39-20.2.82-18.65,8.6-33.28,17.56-47.51,14.47-22.99,32.02-44.9,28.22-80.9-.82-25.75,112.08,25.11,112.08,25.11Z"/>
  <path class="cls-14" d="m120.1,387.95c-1.42-.29-2.86-.61-4.33-.94-28.72-6.56-46.13-25.7-51.09-51.43,7.31,13.3,20.03,30.02,40.49,38.59,13.23,5.55,16.25,10.18,14.94,13.79Z"/>
  <path class="cls-14" d="m122.55,358.59s-9.6-8.98-6.54-21.75c3.06-12.78,18.84-13.16,22.34-25.2,4.43-15.26-9.73-18.76-14.95-26.42,29.43-8.17,49.21-7.43,49.21-7.43l-5.72,77.15-44.34,3.66Z"/>
  <path class="cls-25" d="m172.62,277.78l-1.16,15.72c-15.67,1.81-30.18.18-42.82-3.02-2.02-1.66-3.91-3.33-5.23-5.27,29.43-8.18,49.21-7.43,49.21-7.43Z"/>
  <path class="cls-16" d="m221.15,212.08s0,30.84-5.05,66.77c-66.64,36.93-124.94-3.17-135.25-10.98,14.47-22.99,32.02-44.9,28.22-80.9-.82-25.75,112.08,25.11,112.08,25.11Z"/>
  <path class="cls-21" d="m221.14,212.08s0,30.84-5.05,66.77c-66.64,36.93-124.94-3.17-135.25-10.98,3.18-5.04,6.5-10.03,9.71-15.13,11.43-18.15,21.48-37.67,18.51-65.77-.44-13.65,31.11-5.76,60.83,4.66,26.34,9.23,51.25,20.46,51.25,20.46Z"/>
  <path class="cls-14" d="m157.33,234.87c-23.24,14.93-49.76,17.84-66.78,17.87,11.43-18.15,21.48-37.67,18.51-65.77-.44-13.65,31.11-5.76,60.83,4.66,1.39,15.88-.08,35.24-12.56,43.25Z"/>
  <path class="cls-25" d="m132.83,246.34c-6.2,2.01-12.31,3.42-18.14,4.4l-1.34-5.9c6.67.85,13.19,1.31,19.48,1.5Z"/>
  <path class="cls-25" d="m130.73,192.36s-13.89,28.21-10.83,41.9c3.06,13.69,32.57,53.74,32.57,53.74l56.4-21.45s3.18-47.48,2.77-49.28-80.91-24.91-80.91-24.91Z"/>
  <path class="cls-25" d="m172.62,277.78l-1.16,15.72c-15.67,1.81-30.18.18-42.82-3.02-2.02-1.66-3.91-3.33-5.23-5.27,29.43-8.18,49.21-7.43,49.21-7.43Z"/>
  <path class="cls-9" d="m109.06,186.96c6.16,58.28-43.62,79.63-45.77,128.42-1.57,35.7,16.65,63.44,52.48,71.63,12.35,2.82,22.18,4.11,40.69,1.83,64.68-7.97,64.68-176.76,64.68-176.76,0,0-112.9-50.86-112.08-25.11Z"/>
  <g>
    <path class="cls-23" d="m200.25,418.7l-56.07,77.99-12.02-95.3L229.71,17.56c1.62-6.37,6.48-11.41,12.79-13.23,6.48-1.88,15.67-2.98,26.85-.14,11.78,2.99,19.46,9.09,24.13,14.31,4.13,4.6,5.69,10.95,4.17,16.95l-97.41,383.27Z"/>
    <path class="cls-23" d="m297.66,35.43l-94.47,371.7-2.94,11.57-56.07,78-8.45-66.94-3.58-28.36L229.71,17.56c1.62-6.37,6.49-11.41,12.79-13.23,6.49-1.88,15.67-2.99,26.85-.14,11.78,2.99,19.46,9.08,24.13,14.31,4.13,4.6,5.69,10.95,4.17,16.94Z"/>
    <path class="cls-18" d="m203.2,407.14l-2.94,11.57-56.07,78-8.45-66.94c3.02,4.59,12.22,15.48,28.8,10.26,19.78-6.24,27.33-35.01,27.33-35.01,0,0,5.44.91,11.32,2.13Z"/>
    <path class="cls-9" d="m200.25,418.7l-56.07,77.99-12.02-95.3L229.71,17.56c1.62-6.37,6.48-11.41,12.79-13.23,6.48-1.88,15.67-2.98,26.85-.14,11.78,2.99,19.46,9.09,24.13,14.31,4.13,4.6,5.69,10.95,4.17,16.95l-97.41,383.27Z"/>
    <path d="m166.79,465.26l-22.6,31.44-4.85-38.42c1.36,1.35,2.21,3.04,2.21,3.04l6.26-1.78,4.66,4.56,6.26-1.78,4.66,4.56s1.56-1.08,3.4-1.62Z"/>
    <path class="cls-20" d="m275.92,120.99l-23.76-49.1-44.33,31.8,21.89-86.12c1.62-6.37,6.48-11.41,12.79-13.23,6.48-1.88,15.67-2.98,26.85-.14,11.78,2.99,19.46,9.09,24.13,14.31,4.13,4.6,5.69,10.95,4.17,16.95l-21.74,85.55Z"/>
    <path class="cls-20" d="m297.66,35.43l-21.74,85.55-23.77-49.11-44.33,31.8,15.67-61.65,6.22-24.47c1.62-6.37,6.49-11.41,12.79-13.23,6.49-1.88,15.67-2.99,26.85-.14,8.65,2.19,15.08,6.06,19.74,10.03,1.69,1.43,3.14,2.88,4.39,4.27,4.13,4.6,5.69,10.95,4.17,16.94Z"/>
    <path class="cls-3" d="m245.92,33.2c-2.66,2.66-12.21,3.37-12.21-2.25,0-3.37,1.94-14.97,5.24-17.67,3.07-2.53,11.21-5.77,11.16,1.99-.03,4.41-2.2,15.94-4.19,17.93Z"/>
    <path class="cls-3" d="m258.54,32.62c-1.99,3.19-7.42,3.95-7.42-1.67,0-3.37,1.5-16.43,4.95-19.1,2.66-2.06,7.39-1.92,6.83,5.34-.34,4.4-2.06,11.73-4.37,15.43Z"/>
    <path class="cls-19" d="m297.66,35.43l-21.74,85.55-23.77-49.11-44.33,31.8,15.67-61.65c8.01-.22,26.22.11,44.85,6.25,13.71,4.52,19.27-24.12,20.77-34.06,1.69,1.43,3.14,2.88,4.39,4.27,4.13,4.6,5.69,10.95,4.17,16.94Z"/>
    <path class="cls-9" d="m275.92,120.99l-23.76-49.1-44.33,31.8,21.89-86.12c1.62-6.37,6.48-11.41,12.79-13.23,6.48-1.88,15.67-2.98,26.85-.14,11.78,2.99,19.46,9.09,24.13,14.31,4.13,4.6,5.69,10.95,4.17,16.95l-21.74,85.55Z"/>
    <path class="cls-2" d="m288.13,72.94l-10.14,39.88s-12.02-8.02-32.86-13.31c-20.85-5.3-35.23-3.99-35.23-3.99l10.14-39.88s14.38-1.31,35.23,3.99,32.86,13.31,32.86,13.31Z"/>
    <path class="cls-10" d="m230.06,62.84l-84,330.52s-2.77,10.87-13.9,8.04L213.78,80.26s3.84-16.34,16.28-17.42Z"/>
    <path class="cls-22" d="m275.36,76.51l-83.49,328.5s-6.33,9.96-14.21,7.96c-7.9-2-8.69-13.78-8.69-13.78,0,0-6.32,9.97-14.21,7.96-7.9-2-8.69-13.78-8.69-13.78L229.63,64.55c6.86-.59,14.88-.2,23.86,2.08,8.98,2.28,16.18,5.9,21.88,9.88Z"/>
    <path class="cls-22" d="m275.36,76.51l-32.72,128.74-20.64,81.2-30.13,118.55s-6.33,9.96-14.21,7.96c-7.9-2-8.69-13.78-8.69-13.78,0,0-6.32,9.97-14.21,7.96-7.9-2-8.69-13.78-8.69-13.78l23.52-92.54,35.64-140.23,24.41-96.05c6.86-.59,14.88-.2,23.86,2.08,8.98,2.28,16.18,5.9,21.88,9.88Z"/>
    <path class="cls-22" d="m275.36,76.51l-32.72,128.74-20.64,81.2-4.43,17.4-25.7,101.15s-6.33,9.96-14.21,7.96c-7.9-2-8.69-13.78-8.69-13.78,0,0-6.32,9.97-14.21,7.96-7.9-2-8.69-13.78-8.69-13.78l15.48-60.93,8.04-31.61,35.64-140.23,24.41-96.05c6.86-.59,14.88-.2,23.86,2.08,8.98,2.28,16.18,5.9,21.88,9.88Z"/>
    <path class="cls-17" d="m217.58,303.86l-25.7,101.15s-6.33,9.96-14.21,7.96c-7.9-2-8.69-13.78-8.69-13.78,0,0-6.32,9.97-14.21,7.96-7.9-2-8.69-13.78-8.69-13.78l15.48-60.93c6.6,2.52,19.8,6.07,32.83.86,6.18-2.47-1.81-26.02,23.21-29.44Z"/>
    <path class="cls-17" d="m242.64,205.25l-20.64,81.2c-16,13.41-39.21,14.82-52.42,14.37l35.64-140.23,4.68-2.21,32.74,46.86Z"/>
    <path class="cls-9" d="m253.49,66.63l-84.52,332.55s-6.32,9.96-14.22,7.96c-7.9-2.01-8.69-13.78-8.69-13.78L229.63,64.55c6.86-.59,14.88-.2,23.86,2.08Z"/>
    <path class="cls-9" d="m275.36,76.51l-83.49,328.5s-6.33,9.96-14.22,7.96c-7.89-2.01-8.69-13.78-8.69-13.78L253.49,66.63c8.98,2.28,16.18,5.9,21.88,9.88Z"/>
    <path class="cls-10" d="m282.4,95.47l-82.15,323.23c-11.15-2.83-8.38-13.7-8.38-13.7l84.01-330.52c10.34,7.22,6.52,20.99,6.52,20.99Z"/>
    <path class="cls-15" d="m288.13,72.94l-10.14,39.88s-12.02-8.02-32.86-13.31c-20.85-5.3-35.23-3.99-35.23-3.99l10.14-39.88s14.38-1.31,35.23,3.99,32.86,13.31,32.86,13.31Z"/>
    <path class="cls-26" d="m288.13,72.94l-10.13,39.88s-4.36-2.91-12.39-6.39l7.49-29.56s-25.95-14.04-55.42-11.96l2.36-9.28s14.39-1.31,35.23,4c20.85,5.3,32.86,13.31,32.86,13.31Z"/>
    <path class="cls-9" d="m288.13,72.94l-10.14,39.88s-12.02-8.02-32.86-13.31c-20.85-5.3-35.23-3.99-35.23-3.99l10.14-39.88s14.38-1.31,35.23,3.99,32.86,13.31,32.86,13.31Z"/>
    <path class="cls-15" d="m244.07,103.69c-20.85-5.3-35.23-3.99-35.23-3.99,0,0-2.09-2.96-1.18-6.52,1-3.92,4.13-5.06,4.13-5.06,0,0,14.38-1.31,35.23,3.99,20.85,5.3,32.86,13.31,32.86,13.31,0,0,2.21,2.5,1.21,6.42-.9,3.56-4.16,5.17-4.16,5.17,0,0-12.02-8.02-32.86-13.31Z"/>
    <path class="cls-26" d="m281.09,111.83c-.91,3.56-4.16,5.17-4.16,5.17,0,0-12.02-8.02-32.86-13.31-20.85-5.3-35.23-3.99-35.23-3.99,0,0-2.09-2.97-1.18-6.53.2-.78,4.27,1.29,18.6,3.12,25.13,3.21,45.93,12.3,45.93,12.3,0,0,3.25-1.61,4.16-5.16,0-.02.01-.06.02-.08,2.31,1.27,3.52,2.07,3.52,2.07,0,0,2.21,2.5,1.21,6.42Z"/>
    <path class="cls-9" d="m244.07,103.69c-20.85-5.3-35.23-3.99-35.23-3.99,0,0-2.09-2.96-1.18-6.52,1-3.92,4.13-5.06,4.13-5.06,0,0,14.38-1.31,35.23,3.99,20.85,5.3,32.86,13.31,32.86,13.31,0,0,2.21,2.5,1.21,6.42-.9,3.56-4.16,5.17-4.16,5.17,0,0-12.02-8.02-32.86-13.31Z"/>
    <path class="cls-15" d="m254.16,64c-20.85-5.3-35.23-3.99-35.23-3.99,0,0-2.09-2.96-1.18-6.52,1-3.92,4.13-5.06,4.13-5.06,0,0,14.38-1.31,35.23,3.99s32.86,13.31,32.86,13.31c0,0,2.21,2.5,1.21,6.42-.9,3.56-4.16,5.17-4.16,5.17,0,0-12.02-8.02-32.86-13.31Z"/>
    <path class="cls-26" d="m291.17,72.14c-.9,3.56-4.16,5.17-4.16,5.17,0,0-12.01-8.02-32.86-13.31-20.84-5.3-35.23-3.99-35.23-3.99,0,0-1.26-1.79-1.39-4.25,33.46-2.57,66.13,14.26,66.13,14.26,0,0,2.05-.69,2.23-6.66,2.67,1.44,4.06,2.37,4.06,2.37,0,0,2.21,2.5,1.21,6.42Z"/>
    <path class="cls-9" d="m254.16,64c-20.85-5.3-35.23-3.99-35.23-3.99,0,0-2.09-2.96-1.18-6.52,1-3.92,4.13-5.06,4.13-5.06,0,0,14.38-1.31,35.23,3.99s32.86,13.31,32.86,13.31c0,0,2.21,2.5,1.21,6.42-.9,3.56-4.16,5.17-4.16,5.17,0,0-12.02-8.02-32.86-13.31Z"/>
  </g>
  <path class="cls-16" d="m114.65,386.74s36.85,14.01,77.41-2.14c18.22-7.25,27.38-22.99,19.63-36.63-3.93-6.91-12.12-8.47-18.51-8.51-6.91-.04-14.69,1.93-22.37.35-15.12-3.11-17.19-15.95-36.37-14.97-32.08,1.63-41.61,46.13-19.79,61.9Z"/>
  <path class="cls-16" d="m214.19,361.35c-1.53,9.46-9.73,18.32-22.13,23.26-40.55,16.14-77.41,2.13-77.41,2.13-4.85-3.51-8.16-8.44-10-14.01-6.45-19.44,4.85-46.62,29.79-47.89,19.19-.98,21.26,11.85,36.38,14.96,7.68,1.59,15.45-.39,22.37-.34,6.38.04,14.58,1.59,18.51,8.51,2.48,4.36,3.22,8.94,2.5,13.38Z"/>
  <path class="cls-21" d="m214.19,361.35c-1.53,9.46-9.73,18.32-22.13,23.26-40.55,16.14-77.41,2.13-77.41,2.13-4.85-3.51-8.16-8.44-10-14.01-5.04-15.18.75-35.09,15.41-43.68t0,0c4.11-2.42,8.91-3.94,14.37-4.21,19.19-.98,21.26,11.85,36.38,14.96,7.68,1.59,15.45-.39,22.37-.34.39,0,.78.01,1.18.02h0c6.17.22,13.63,1.99,17.32,8.48,2.48,4.36,3.22,8.94,2.5,13.38Z"/>
  <path class="cls-4" d="m194.37,339.49c-34.01,8.37-36.16-1.94-48.31-8.28-7.58-3.95-19.81-2.99-26-2.16,4.11-2.42,8.91-3.94,14.37-4.21,19.19-.98,21.26,11.85,36.38,14.96,7.68,1.59,15.45-.39,22.37-.34.39,0,.78.01,1.18.02Z"/>
  <path class="cls-14" d="m214.19,361.35c-1.53,9.46-9.73,18.32-22.13,23.26-40.55,16.14-77.41,2.13-77.41,2.13-4.85-3.51-8.16-8.44-10-14.01,40.41,18.21,93.39,12.31,109.55-11.38Z"/>
  <path class="cls-9" d="m114.65,386.74s36.85,14.01,77.41-2.14c18.22-7.25,27.38-22.99,19.63-36.63-3.93-6.91-12.12-8.47-18.51-8.51-6.91-.04-14.69,1.93-22.37.35-15.12-3.11-17.19-15.95-36.37-14.97-32.08,1.63-41.61,46.13-19.79,61.9Z"/>
  <path class="cls-16" d="m122.55,285.44s26.02,11.88,63.08,4.54c25.9-5.13,33.27-18.65,32.79-29.5-.46-10.42-7.36-15.78-18.65-16.76-17.09-1.48-49.39,5.86-86.42,1.12l9.19,40.61Z"/>
  <path class="cls-16" d="m185.62,289.98c-37.06,7.35-63.08-4.54-63.08-4.54l-9.19-40.6c37.02,4.74,69.33-2.61,86.42-1.12,6,.52,10.76,2.29,13.97,5.39,2.83,2.73,4.46,6.5,4.67,11.38.48,10.84-6.9,24.37-32.79,29.5Z"/>
  <path class="cls-21" d="m185.62,289.98c-37.06,7.35-63.08-4.54-63.08-4.54l-9.19-40.6c37.02,4.74,69.33-2.61,86.42-1.12,6,.52,10.76,2.29,13.97,5.39,2.83,2.73,4.46,6.5,4.67,11.38.48,10.84-6.9,24.37-32.79,29.5Z"/>
  <path class="cls-14" d="m132.83,246.34c-6.2,2.01-12.31,3.42-18.14,4.4l-1.34-5.9c6.67.85,13.19,1.31,19.48,1.5Z"/>
  <path class="cls-4" d="m217.79,266.78c0-.43,0-.85-.02-1.28-.21-4.88-1.84-8.65-4.67-11.38-3.21-3.1-7.97-4.87-13.97-5.39-14.85-1.29-53.7,6-81.05-3.37,35.03,3.59,65.33-3.08,81.69-1.66,6,.52,10.76,2.29,13.97,5.39,2.83,2.73,4.46,6.5,4.67,11.38.09,2.03-.09,4.16-.63,6.3Z"/>
  <path class="cls-14" d="m185.62,289.98c-37.06,7.35-63.08-4.54-63.08-4.54,0,0,34.28,8.35,68.35-2.45,26.68-8.46,25.05-26.12,22.85-33.89,2.83,2.73,4.46,6.5,4.67,11.38.48,10.84-6.9,24.37-32.79,29.5Z"/>
  <path d="m122.55,285.44c9.16,1.99,18.43,3.28,27.74,3.99,9.22.76,18.53.45,27.68-.91,8.9-1.33,18-3.39,25.7-8.19,7.26-4.46,12.55-11.87,11.66-20.67-1.06-12.59-14.01-13.43-24.08-13.04-7.02.24-14.01.91-21.07,1.42-16.56,1.28-33.42,1.88-50.01.11-2.38-.25-4.76-.54-7.13-.89-1.34-.2-2.27-1.45-2.07-2.78.19-1.31,1.39-2.22,2.69-2.08,9.28,1.01,18.62,1.37,27.95,1.22,14.04-.16,28.23-1.67,42.25-2.72,7.34-.44,14.89-1.05,22.14.76,5.24,1.28,10.53,4.54,13.1,9.53,2.57,4.87,2.9,10.63,1.7,15.93-3.72,15.72-20.44,23.03-34.94,25.62-19.56,3.67-46.05,3.66-63.31-7.3h0Z"/>
  <path class="cls-21" d="m173.1,65.02c1.15-11.8,14.08-29.76,33.88-29.17,20.95.62,34.6,19.43,28.37,39.41-4.45,14.27-17.91,21.69-30.45,24.25l-31.8-34.48Z"/>
  <path class="cls-21" d="m178.31,63.44c1.04-4.62,4.01-9.89,7.97-13.95,3.88-3.99,10.46-8.76,19.76-8.76.27,0,.53,0,.8.01,8.52.25,16.04,4.09,20.63,10.53,4.52,6.34,5.69,14.55,3.2,22.52-4.09,13.12-16.72,18.33-24.1,20.28l-28.25-30.63Z"/>
  <path class="cls-14" d="m230.67,73.79c-4.09,13.12-16.72,18.33-24.1,20.28l-28.25-30.63c.84-3.74,30.96,15.72,30.96,15.72,6.6-1.75,17.4-6.09,22.53-16.38.38,3.58.01,7.32-1.13,11.01Z"/>
  <path class="cls-4" d="m229.06,53.84c-5.01-5.16-12.08-8.17-19.91-8.4-.29,0-.58-.01-.87-.01-10.13,0-17.29,5.19-21.53,9.54-2.9,2.99-5.31,6.56-6.93,10.11l-1.51-1.64c1.04-4.62,4.02-9.89,7.96-13.95,3.89-4,10.47-8.75,19.76-8.75.27,0,.53,0,.8,0,8.52.26,16.04,4.09,20.63,10.53.59.83,1.12,1.69,1.59,2.57Z"/>
  <path d="m171.88,64.9c-.46-6.59,2.71-12.86,6.71-17.9,4.05-5.1,9.42-9.27,15.54-11.61,8.48-3.28,18.23-2.78,26.48.97,15.98,7.3,22.63,25.53,16.47,41.73-3.75,10.03-12.8,17.22-22.76,20.51-2.98,1.01-6.06,1.72-9.18,2.1-.67.08-1.29-.4-1.37-1.07-.07-.61.31-1.16.88-1.33,2.14-.64,4.24-1.35,6.3-2.21,8.55-3.47,16.56-9.42,20.51-17.93,5.61-11.94,3.13-25.84-7.57-33.98-5.59-4.24-12.8-6.13-19.76-5.67-8.49.53-16.29,5.16-21.67,11.64-3.61,4.45-6.35,9.51-8.15,14.97-.4,1.31-2.3,1.13-2.44-.24h0Z"/>
  <path class="cls-1" d="m160.65,241.92c-43.42,8.79-123.41,9.71-121.67-68.94-.55-34.74.98-62.65,21.88-88.09,6.68-8.13,10.74-13.1,36.08-24.34,10.69-4.44,27.88-14.78,30.66-28.47,6.23.78,10.79,9.01,10.51,16.24,14.07-9.57,25.77-2.81,35.62-8.4.22,9.68-4.92,12.43-3.36,14.88,61.35,14.57,65.73,74.21,70.36,89.77,6.11,8.72,10.33,21.64,7.53,37.6-5.17,29.43-50.99,54.81-82.21,58.53"/>
  <path class="cls-1" d="m248.26,182.16c-1.72,9.82-7.97,19.18-16.69,27.44-17.42,16.51-44.72,28.61-65.52,31.09l-5.39,1.23c-28.84,5.84-73.82,8.2-100.26-13.91-13.37-11.18-22-28.62-21.41-55.03-.55-34.74.98-62.65,21.88-88.09,6.68-8.13,10.74-13.11,36.08-24.34,10.68-4.44,27.88-14.79,30.66-28.47,6.23.78,10.79,9.01,10.51,16.24,14.07-9.57,25.77-2.81,35.61-8.4.23,9.67-4.92,12.43-3.36,14.87,61.35,14.57,65.74,74.21,70.36,89.77,6.11,8.72,10.33,21.64,7.53,37.59Z"/>
  <path class="cls-14" d="m231.57,209.61c-17.42,16.51-44.72,28.61-65.52,31.09l-5.39,1.23c-28.84,5.84-73.82,8.2-100.26-13.91,39.79,10.07,119.95,13.45,171.17-18.4Z"/>
  <path d="m160.65,241.92c-43.59,12.1-107.91,8.99-121.63-43.44-2.29-8.52-2.95-17.34-2.81-26.13-.16-9.52-.18-19.05.48-28.57,1.34-21.11,6.85-41.19,20.09-58.05,2.02-2.56,4-4.99,6.23-7.42,3.79-4.17,8.55-7.61,13.35-10.38,5.52-3.21,11.34-5.95,17.15-8.58,2.37-1.07,5-2.13,7.29-3.3,7.61-3.88,15.11-8.87,20.28-15.71,1.99-2.68,3.49-5.64,4.12-8.74.25-1.26,1.45-2.09,2.7-1.94,1.14.14,2.24.48,3.24.95,6.33,3.12,9.62,11.04,9.46,17.81,0,0-3.89-2.16-3.89-2.16,5.38-3.81,12.19-5.82,18.7-6.11,5.93-.48,11.79.36,16.97-2.59,1.73-1.03,4.04.23,4.07,2.26-.07,3.61-.8,7.3-2.37,10.58-.46,1.08-1.32,2.45-1.57,3.39,0-.08-.05-.27-.07-.3l-1.5-1.07c26.88,5.87,47.53,22.36,59.31,47.21,6.26,12.81,9.5,26.75,12.41,40.58.28,1.21.57,2.41.89,3.51l-.41-.85c7.42,10.61,10.04,24,8.29,36.71-3.12,27.16-34.81,47.25-58.54,55.49-5.78,2.02-11.72,3.63-17.76,4.64-3.01.5-6.05.86-9.09.99,27.34-5.22,74.87-29.67,79.62-59.64,1.95-12.01-.28-24.81-7.35-34.8-.18-.26-.32-.56-.41-.85-.39-1.33-.7-2.6-.99-3.87-1.91-8.59-3.7-17.25-6.48-25.57-8.96-27.85-26.79-48.6-55.26-57.28-1.81-.56-3.63-1.07-5.46-1.53-1.39-.36-1.99-1.87-2.06-3.18-.01-1.23.33-2.04.75-2.97.42-.9.88-1.76,1.26-2.62,1.18-2.64,1.61-5.52,1.35-8.41,0,0,4.07,2.31,4.07,2.31-1.58.88-3.28,1.52-4.98,1.94-6.21,1.5-12.54.48-18.74,1.49-4.26.65-8.26,2.22-11.84,4.66-1.67,1.18-4.01-.15-3.89-2.16.16-4.37-1.57-9.22-4.89-12.11-1-.85-2.17-1.45-3.43-1.61,0,0,2.7-1.94,2.7-1.94-2.54,11.5-12.53,19.46-22.08,25.23-3.19,1.88-6.52,3.57-9.93,5-2.7,1.21-5.82,2.64-8.48,3.93-6.99,3.45-14.19,7.15-19.93,12.41-3.17,2.95-5.87,6.42-8.56,9.84-12.45,16-17.52,35.21-18.76,55.19-.66,9.54-.64,19.24-.52,28.85-.54,18.41,3.91,37.6,17.66,50.62,24.72,23.57,69.4,22.27,101.24,18.27h0Z"/>
  <path d="m170.06,57.42c-3.8-.86-7.68-1.34-11.57-1.65-3.97-.31-7.95-.36-11.94-.16,1.93-.52,3.89-1.03,5.86-1.43,5.87-1.21,11.86-1.94,17.87-2.01.18,0,.4,0,.59.01,1.47.05,2.62,1.29,2.57,2.76-.04,1.71-1.76,2.95-3.39,2.47h0Z"/>
  <path class="cls-21" d="m131.08,181.84c4.58-2.1,13.16-10.1,10.08-25.66-3.89-19.68-27.83-28.84-41.27-18.64-14.15,10.74-21.28,41.22-7.82,51.62,10.17,7.86,23.86-.38,39.01-7.32Z"/>
  <path class="cls-21" d="m198.51,166.89c-9.01.9-20.54-8.78-18.26-25.75,2.7-20.14,11.44-23.01,25.68-18.46,16.56,5.3,28.44,24.95,22.55,38.42-4.42,10.1-11.86,3.98-29.97,5.79Z"/>
  <path class="cls-16" d="m71.61,82.92c-2.14-17.16-23.36-34.78-45.9-27.8C5.24,61.46-6.57,85.95,3.87,107.06c7.47,15.11,30.14,23.16,48.43,17.1,0,0,6.12-5.3,13.33-19.84,8.15-16.43,5.97-21.4,5.97-21.4Z"/>
  <path class="cls-21" d="m71.61,82.92c-2.14-17.16-23.36-34.78-45.9-27.8C5.24,61.46-6.57,85.95,3.87,107.06c7.47,15.11,30.14,23.16,48.43,17.1,0,0,6.12-5.3,13.33-19.84,8.15-16.43,5.97-21.4,5.97-21.4Z"/>
  <path class="cls-21" d="m39.37,121.29c-13.54,0-26.33-6.74-31.1-16.4-4.25-8.6-4.5-18.22-.7-27.08,3.76-8.75,10.9-15.31,19.59-18,2.89-.89,5.85-1.35,8.8-1.35,16.3,0,29.3,13.21,30.78,25.07l.09.71.12.27c.08.88.17,5.81-5.71,17.64-5.3,10.68-9.89,15.99-11.52,17.69-3.26.96-6.74,1.45-10.35,1.45h0Z"/>
  <path class="cls-14" d="m61.24,102.14c-5.3,10.68-9.89,15.99-11.52,17.69-3.26.96-6.74,1.45-10.35,1.45-13.17,0-25.62-6.37-30.69-15.6,7.05,4.47,21.72,8.84,37.1,4.64,10.45-2.85,21.29-22.49,19.16-16.65-.84,2.31-2.03,5.11-3.69,8.46Z"/>
  <path class="cls-4" d="m37.8,64.04c-2.95,0-5.92.45-8.8,1.35-8.7,2.69-15.84,9.26-19.59,18-2.78,6.47-3.93,14.05-4.3,11.03-.67-5.55.14-11.22,2.46-16.61,3.75-8.75,10.89-15.31,19.59-18,2.88-.89,5.85-1.35,8.8-1.35,11.81,0,21.89,6.94,27.11,15.27,1.74,2.78-12.06-9.69-25.27-9.69Z"/>
  <path d="m71.63,82.92c-1.41-3.35-3-6.52-4.93-9.5-1.84-2.84-3.84-5.58-6.21-7.9-8.23-8.16-19.63-11.42-30.13-7.46-17.42,6.55-26.05,29.53-17.42,47.8,4.3,9.19,12.97,14.9,21.76,17.56,6.26,1.85,12.96,2.22,19.6.74-3.07,1.62-6.43,2.62-9.86,3.09-6.48.88-13.23-.18-19.32-2.9-7.06-3.14-13.58-8.92-16.75-16.81-2.99-7.28-3.92-15.57-2.75-23.46,2.12-14.62,11.84-27.74,24.76-31.85,11.78-3.94,24.47.13,33.24,9.53,1.93,2.08,3.72,4.35,5.12,6.91,2.28,4.22,3.71,9.31,2.91,14.24h0Z"/>
  <path d="m90.86,109.94c-.98-1.4,5.02-16.67,15.24-14.22,2.72.65,4.83,5.54,2.94,8.31-3.31,4.86-17.2,7.31-18.18,5.9Z"/>
  <path d="m204.48,95.2c.64-1.26-6.99-14.29-16.08-10-2.74,1.29-3.65,5.86-.3,8.05,6.41,4.21,15.74,3.21,16.39,1.95Z"/>
  <g>
    <ellipse cx="119.38" cy="161.55" rx="15.77" ry="18.22"/>
    <ellipse class="cls-1" cx="116.14" cy="158.81" rx="5.8" ry="7.07" transform="translate(-31.61 28.89) rotate(-12.5)"/>
    <g class="cls-12">
      <ellipse class="cls-1" cx="125.85" cy="168.03" rx="4.52" ry="3.06" transform="translate(-76.81 222.81) rotate(-68.29)"/>
    </g>
  </g>
  <g>
    <ellipse cx="206.4" cy="147.56" rx="14.74" ry="17.04"/>
    <ellipse class="cls-1" cx="203.37" cy="144.99" rx="5.42" ry="6.61" transform="translate(-26.55 47.44) rotate(-12.5)"/>
    <g class="cls-12">
      <ellipse class="cls-1" cx="212.45" cy="153.61" rx="4.22" ry="2.86" transform="translate(-8.85 294.18) rotate(-68.29)"/>
    </g>
  </g>
  <path class="cls-24" d="m151.86,179.78s4.92,23.19,18.54,20.95c11.83-1.95,7.73-19.08,12.29-23.51-5.94-3.74-30.83,2.56-30.83,2.56Z"/>
  <path d="m181.95,177.75c-3.95,3.84-1.07,17.7-9.02,21.56-.78.39-1.68.67-2.69.83-6.44,1.06-10.85-3.86-13.64-9.08-2.83-5.28-4.02-10.87-4.02-10.87,0,0,23.7-6,29.36-2.44Z"/>
  <path class="cls-27" d="m172.93,199.31c-.78.39-1.68.67-2.69.83-5.91.97-10.1-3.08-12.91-7.79,2.15-2.11,4.79-2.04,7.31-1.06,4.57-2.53,9.71,2.23,8.28,8.01Z"/>
  <path class="cls-8" d="m152.59,180.2s4.68,22.08,17.65,19.95c11.27-1.85,7.36-18.17,11.7-22.39-5.66-3.56-29.35,2.44-29.35,2.44Z"/>
  <g>
    <g>
      <g>
        <path class="cls-1" d="m148.23,177.78c1.89,6.03,6.4,8.96,10.51,9.16,6.82.33,9.23-4.4,11.07-7.96,1.1,2.64,3.86,4.78,7.82,4.35,8.17-.89,6.5-11.01,6.5-11.01"/>
        <path d="m148.23,177.78c2.33,3.14,5.24,6,9.13,6.73.54.09,1.07.15,1.6.13.9-.04,1.84-.13,2.71-.33,1.93-.4,3.45-1.59,4.54-3.31,1.15-1.77,2.61-5.2,3.59-7.13,0,0,2.07,4.26,2.07,4.26.3.62.75,1.17,1.26,1.59,1.61,1.28,4,1.69,5.97,1,3.19-1.21,4.12-5.36,5.04-8.4,2.07,3.52,1.77,8.64-1.59,11.36-1.53,1.26-3.47,1.82-5.4,2.02-2.63.29-5.4-.63-7.26-2.54-.95-.95-1.67-2.09-2.14-3.33l4.04.17c-.3.54-.61,1.1-.94,1.66-1.75,3.09-4.32,6.19-7.94,7.22-2.86.83-6.1.43-8.7-.93-3.71-1.94-6.16-6.02-5.99-10.17h0Z"/>
      </g>
      <path d="m169.25,170.4c1.75-.33.61,4.15,2.71,7.93.76,1.37-5.81,3.31-4.7.79,2.55-5.76-.5-8.26,1.98-8.73Z"/>
    </g>
    <path d="m157.71,166.06c.59,6.12,9.76,9.16,11.68,9.01,1.92-.15,10.68-5.38,9.52-10.77-.75-3.47-7.06-3.98-9.95-3.76-3.73.28-11.59,1.97-11.25,5.52Z"/>
    <path class="cls-6" d="m164.02,164.89c.16,1.78,3.23,2.28,5.45,2.05,2.21-.23,5.14-1.33,4.99-3.12-.08-.91-5.3-.38-5.3-.38,0,0-5.22.53-5.13,1.45Z"/>
  </g>
  <path d="m140.22,49.92c-.89.82-1.89,1.5-2.88,2.17-2.37,1.54-4.88,2.79-7.52,3.74-.45.18-1.09.36-1.55.52,0,0,.61-.54.61-.54,2.17-1.93,4.11-4.15,5.71-6.56.53-.82,1.07-1.65,1.45-2.53-1.34-4.57,5.11-6.74,6.8-2.29.44,1.31.08,2.7-.81,3.63l-1.8,1.86h0Z"/>
  <path class="cls-13" d="m80.82,159.5l-43.56,10.73c-5.06,5.08-2.91,16.46.76,18.52,3.24,1.82,4.02-8.26,4.02-8.26l38.46-7.08"/>
  <path class="cls-26" d="m80.82,159.5l-.33,13.9-38.46,7.09s-.77,10.08-4.02,8.26c-1.34-.75-2.47-2.73-3.13-5.2.36.42.74.76,1.13.98,3.24,1.82,3.05-8.42,3.05-8.42l36.81-6.46,2.83-9.62,2.1-.52Z"/>
  <path class="cls-1" d="m80.82,159.5l-.33,13.9-.27.05.25-10.27-43.56,10.73c-1.35,1.36-2.19,3.18-2.62,5.14-.04-3.27.8-6.63,2.98-8.81l43.56-10.73Z"/>
  <path class="cls-11" d="m80.82,159.5l-43.56,10.73c-5.06,5.08-2.91,16.46.76,18.52,3.24,1.82,4.02-8.26,4.02-8.26l38.46-7.08"/>
  <path class="cls-5" d="m149.15,162.66c0,19.43-15.75,35.19-35.19,35.19s-35.19-15.76-35.19-35.19,15.75-35.19,35.19-35.19,35.19,15.75,35.19,35.19Z"/>
  <g>
    <path class="cls-5" d="m149.15,162.66c0,17.37-12.58,31.8-29.14,34.67-1.97.34-3.98.52-6.05.52-2.61,0-5.14-.28-7.59-.82-2.17-.48-4.26-1.15-6.26-2.01-7.64-3.27-13.88-9.17-17.6-16.56-2.39-4.75-3.74-10.12-3.74-15.8,0-17.09,12.19-31.34,28.34-34.52,2.21-.44,4.51-.67,6.85-.67,6.17,0,11.98,1.59,17.03,4.39,1.93,1.06,3.75,2.3,5.43,3.7,3.52,2.92,6.45,6.51,8.62,10.57,2.63,4.92,4.11,10.55,4.11,16.52Z"/>
    <path class="cls-7" d="m130.99,131.87l-30.88,63.16c-7.64-3.27-13.88-9.17-17.6-16.56l24.6-50.32c2.21-.44,4.51-.67,6.85-.67,6.17,0,11.98,1.59,17.03,4.39Z"/>
    <path class="cls-7" d="m145.04,146.14l-25.03,51.19c-1.97.34-3.98.52-6.05.52-2.61,0-5.14-.28-7.59-.82l30.05-61.46c3.52,2.92,6.45,6.51,8.62,10.57Z"/>
  </g>
  <g>
    <path class="cls-5" d="m241.49,144.02c0,15.06-10.91,27.58-25.27,30.07-1.71.3-3.46.45-5.25.45-2.26,0-4.46-.24-6.58-.71-1.88-.41-3.69-1-5.43-1.74-6.62-2.84-12.04-7.95-15.26-14.36-2.07-4.12-3.24-8.78-3.24-13.7,0-14.82,10.57-27.18,24.58-29.93,1.92-.38,3.91-.58,5.94-.58,5.35,0,10.39,1.38,14.77,3.81,1.67.92,3.25,2,4.71,3.21,3.05,2.54,5.6,5.65,7.47,9.17,2.28,4.27,3.57,9.15,3.57,14.33Z"/>
    <path class="cls-7" d="m225.74,117.31l-26.78,54.77c-6.62-2.84-12.04-7.95-15.26-14.36l21.33-43.64c1.92-.38,3.91-.58,5.94-.58,5.35,0,10.39,1.38,14.77,3.81Z"/>
    <path class="cls-7" d="m237.92,129.69l-21.7,44.39c-1.71.3-3.46.45-5.25.45-2.26,0-4.46-.24-6.58-.71l26.06-53.3c3.05,2.54,5.6,5.65,7.47,9.17Z"/>
  </g>
  <path d="m113.96,124.16c-21.26,0-38.5,17.24-38.5,38.5s17.24,38.51,38.5,38.51,38.51-17.24,38.51-38.51-17.24-38.5-38.51-38.5Zm0,69.86c-17.32,0-31.35-14.04-31.35-31.35s14.04-31.35,31.35-31.35,31.36,14.04,31.36,31.35-14.04,31.35-31.36,31.35Z"/>
  <path d="m145.64,148.95c2.74-1.54,5.44-3.43,8.29-4.82,7.37-3.72,14.22-3.85,21.92-1.08,2.36.85,4.59,1.9,6.9,2.91,0,0-4.35,5.93-4.35,5.93-3.95-4.73-10.26-7.54-16.37-5.87-4.87,1.28-8.52,4.76-11.69,8.6,0,0-4.68-5.67-4.68-5.67h0Z"/>
  <g>
    <path class="cls-16" d="m230.94,298.01c10.11,3.73,14.48,27.84,3.08,39.92-9.43,10-25.04,4.92-28.78-3.29-4.85-10.64,0-34.16,24.24-30.86l1.47-5.77Z"/>
    <path class="cls-21" d="m234.03,337.93c-9.44,9.99-25.04,4.91-28.79-3.29-4.68-10.26-.33-32.5,21.73-31.12.81.05,1.65.13,2.51.25l1.46-5.77c2.69.99,4.98,3.43,6.66,6.7,4.66,9.01,4.79,24.36-3.57,33.23Z"/>
    <path class="cls-25" d="m237.6,304.71c-3.65,1.21-8.27-.24-10.64-1.18.81.05,1.65.13,2.51.25l1.46-5.77c2.69.99,4.98,3.43,6.66,6.7Z"/>
    <path class="cls-4" d="m208.7,319s1.55-7.18,9.27-10.4c6.15-2.57,12.61-.24,12.61-.24,0,0-14.91.91-21.88,10.64Z"/>
    <path class="cls-14" d="m240.2,325.24c-.9,4.71-2.88,9.2-6.17,12.69-9.44,9.99-25.04,4.91-28.79-3.29-3.03-6.65-2.27-18.35,4.66-25.36-11.96,29.28,17.76,37.93,30.3,15.97Z"/>
    <path class="cls-9" d="m230.94,298.01c10.11,3.73,14.48,27.84,3.08,39.92-9.43,10-25.04,4.92-28.78-3.29-4.85-10.64,0-34.16,24.24-30.86l1.47-5.77Z"/>
    <path d="m211.13,311.12c-1.13,2.42.14,4.51,2.27,5.82,2.53,1.56,5.75,2.04,8.77,1.9-4.73,1.49-11.05,1.55-14.41-2.8-1.26-1.67-1.71-4.02-1.4-6.06,0,0,4.77,1.13,4.77,1.13h0Z"/>
    <path d="m206.08,323.71c-.3,2.71.84,5.29,3.09,6.97,1.16.89,2.56,1.55,4.07,1.93,1.51.37,3.13.46,4.72.08-1.45.77-3.15,1.12-4.86,1.14-4.59.09-9.32-2.5-11.1-6.96-.39-.92-.65-1.89-.82-2.87l4.9-.29h0Z"/>
    <path d="m234.32,304.41c-1.65,2.38-4.48,2.54-6.76.89,0,0,3.84-3.05,3.84-3.05-.3,1.81,1.4,2.34,2.92,2.16h0Z"/>
  </g>
  <path d="m199.57,354.93c2.24-.99,4.41-2.34,6.09-4.07,1.45-1.51,2.48-3.31,2.18-5.36l4.89.42c-.18.83-.46,1.62-.83,2.35-.72,1.39-1.78,2.56-3,3.46-2.72,1.98-6.05,2.87-9.32,3.19h0Z"/>
  <path d="m202.38,366.12c2.42-1,4.7-2.46,6.51-4.29,1.63-1.62,2.9-3.79,3.18-6.03,0,0,4.65,1.55,4.65,1.55-.72,1.47-1.67,2.79-2.78,3.86-3.09,2.99-7.37,4.52-11.57,4.92h0Z"/>
  <path d="m203.4,269.52c2.79-.6,5.61-1.63,8-3.14,2.14-1.36,3.99-3.15,4.52-5.61,0,0,4.54,1.86,4.54,1.86-.46.83-1.01,1.58-1.62,2.25-1.2,1.27-2.64,2.23-4.19,2.92-3.54,1.55-7.44,1.94-11.24,1.71h0Z"/>
  <path d="m200.16,253.76c4.17-1.72,8.78-2.9,13.35-2.37,1.08.14,2.21.42,3.23.82.86.35,1.71.81,2.51,1.4l-3.34,3.59c-1.11-1.5-2.94-2.4-4.72-2.92-3.55-1-7.36-1-11.03-.53h0Z"/>
  <path d="m164.35,189.45l.29,1.85s1.71.78,3,3.59c0,0,.19-4.16-3.29-5.43Z"/>
  <g>
    <path class="cls-16" d="m240.49,260.41l1.57-8.17s-15.03-7.38-11.64-25.17c3.59-18.82,22.97-17.06,30.55-9.26,11.11,11.44,3.76,47.6-20.49,42.6Z"/>
    <path class="cls-21" d="m264.96,242c-2.79,11.3-11.04,21.18-24.47,18.41l1.57-8.17s-15.04-7.38-11.64-25.17c1.07-5.57,3.52-9.34,6.63-11.67,7.4-5.57,18.59-3.07,23.92,2.42,4.95,5.1,6.23,15.1,3.99,24.19Z"/>
    <path class="cls-4" d="m264.96,242c-.2.78-.41,1.56-.67,2.32,1.65-8.56.23-17.59-4.39-22.34-5.33-5.49-16.51-7.99-23.92-2.42-2.4,1.79-4.4,4.43-5.68,8.09.04-.2.07-.39.11-.59,1.07-5.57,3.52-9.34,6.63-11.67,7.4-5.57,18.59-3.07,23.92,2.42,4.95,5.1,6.23,15.1,3.99,24.19Z"/>
    <path class="cls-14" d="m264.96,242c-2.79,11.3-11.04,21.18-24.47,18.41l1.57-8.17s-15.04-7.38-11.64-25.17c1.07-5.57,3.52-9.34,6.63-11.67-2.91,7.86-5.94,21.83,5.4,28.92,9.29,5.82,17.2,2.23,22.51-2.31Z"/>
    <path class="cls-9" d="m240.49,260.41l1.57-8.17s-15.03-7.38-11.64-25.17c3.59-18.82,22.97-17.06,30.55-9.26,11.11,11.44,3.76,47.6-20.49,42.6Z"/>
    <path d="m230.76,219c3.89-4.07,12.49-3.39,17.13-1.11,1.66.79,3.18,1.88,4.31,3.25-2.8-2.09-6.37-2.67-9.74-2.39-2.59.25-5.58.94-7.45,2.71-.19.21-.32.41-.39.56l-3.86-3.02h0Z"/>
    <path d="m228.59,232.23c5.01-2.82,13.61-1.75,18.34,1.19.72.46,1.4.99,1.96,1.61-2.76-1.75-6.21-1.95-9.37-1.69-2.73.29-6.1,1.01-8.08,2.89,0,0-2.85-3.99-2.85-3.99h0Z"/>
    <path d="m242.6,249.85c1.5.76,3.08,1.42,4.66,1.98,1.62.56,3.26,1.08,5.01,1.09-1.61.8-3.47,1.1-5.25,1.35-1.59.21-3.19.31-4.79.35-.24,0-.46.01-.72,0l1.09-4.78h0Z"/>
  </g>
  <path d="m210.97,110.33c-18.6,0-33.68,15.08-33.68,33.68s15.08,33.69,33.68,33.69,33.69-15.09,33.69-33.69-15.08-33.68-33.69-33.68Zm0,61.12c-15.15,0-27.43-12.28-27.43-27.43s12.28-27.43,27.43-27.43,27.44,12.28,27.44,27.43-12.28,27.43-27.44,27.43Z"/>
  <ellipse cx="218.74" cy="499.58" rx="86.74" ry="2.88"/>
</svg>