<?xml version="1.0" encoding="UTF-8"?>
<svg id="Layer_1" data-name="Layer 1" xmlns="http://www.w3.org/2000/svg" viewBox="0 0 346.38 500">
  <defs>
    <style>
      .cls-1 {
        fill: #e23333;
      }

      .cls-2 {
        opacity: .7;
      }

      .cls-3 {
        fill: #fff;
      }

      .cls-4 {
        fill: #545468;
      }

      .cls-5 {
        opacity: .5;
      }

      .cls-6 {
        opacity: .2;
      }

      .cls-7 {
        fill: #686779;
      }

      .cls-8 {
        opacity: .3;
      }

      .cls-9 {
        fill: #777882;
      }

      .cls-10 {
        fill: #ff8d8d;
      }

      .cls-11 {
        fill: red;
      }
    </style>
  </defs>
  <g class="cls-6">
    <ellipse cx="196.06" cy="480.71" rx="130.06" ry="19.29"/>
  </g>
  <path class="cls-9" d="m259.38,375.38c13.75-15.19,45-14.33,43.28,13.67-1.49,24.29-32.06,29.81-51.21,19.5-6.92-3.72-9.01-14.46,7.93-33.18Z"/>
  <g class="cls-6">
    <path d="m251.44,408.56c19.15,10.31,49.72,4.78,51.21-19.5.63-10.22-3.13-16.82-8.83-20.34,0,.58-.35,1.24-.06,1.76,14.07,25.17-14.27,44.21-24.7,13.14-8.36,2.49-12.69,11.77-21.18,8.72-3.36,8.5-.9,13.82,3.56,16.22Z"/>
  </g>
  <path d="m271.73,416.34c-7.48,0-15.13-1.76-21.64-5.26-3.47-1.87-5.74-5.03-6.41-8.91-1.3-7.53,3.4-17.46,13.58-28.71,8.79-9.7,23.83-13.48,35-8.77,9.15,3.85,13.98,12.8,13.26,24.54-.59,9.69-5.62,17.65-14.15,22.4-5.66,3.15-12.57,4.71-19.63,4.71Zm10.12-47.94c-7.34,0-15.24,3.25-20.35,8.9h0c-11.92,13.16-12.75,20.62-12.18,23.9.37,2.17,1.55,3.8,3.48,4.84,11.03,5.93,25.74,6.17,35.77.59,4.79-2.66,10.62-7.91,11.22-17.75.58-9.44-2.8-15.98-9.77-18.92-2.5-1.05-5.3-1.56-8.18-1.56Zm-22.48,6.98h0,0Z"/>
  <g class="cls-8">
    <path class="cls-3" d="m273.22,375.43c1.71-2.72,11.73-5.23,17.82.32,6.63,6.05-1.34,4.64-6.8,4.08-5.59-.57-12.72-1.68-11.01-4.41Z"/>
  </g>
  <path class="cls-9" d="m275.42,371.77s-.67,16.13-1.69,35.73c-1.44,28.05-3.59,63.22-5.41,68.47-.11.3-.21.59-.33.87-2.34,5.79-8.13,9.44-14.37,9.44h-26.6s-9.56.52-13.71-3.94c-9.46-10.17,1.34-21.95,1.34-21.95,0,0-1.62-14.64-2.49-31.29-.3-5.73-.51-11.69-.54-17.38l63.8-39.95Z"/>
  <g class="cls-6">
    <path d="m275.42,371.77s-.67,16.13-1.69,35.73c-4.92,2.04-10.41,4.72-16.32,8.21-18.04,10.63-35.65,12.99-45.23,13.4-.3-5.73-.51-11.69-.54-17.38l63.8-39.95Z"/>
  </g>
  <g class="cls-6">
    <path d="m275.42,371.77s-4,95.28-7.1,104.2c-.11.3-.21.59-.33.87-2.34,5.79-8.13,9.44-14.37,9.44h-26.6s-9.56.52-13.71-3.94c-4.95-5.33-4.35-11.09-2.66-15.38.61,1.29,1.48,2.59,2.66,3.86,4.15,4.46,13.71,3.93,13.71,3.93h26.6c6.24,0,12.03-3.65,14.37-9.44.11-.28.22-.57.33-.86,2.42-6.96,5.39-66.52,6.57-92.35l.53-.33Z"/>
  </g>
  <path d="m225.93,489.17c-3.07,0-10.63-.47-14.72-4.87-8.32-8.95-3.73-19.59.46-24.82-.57-5.5-2.82-28.35-2.92-47.73,0-1.58,1.27-2.87,2.85-2.88,0,0,.01,0,.01,0,1.57,0,2.85,1.27,2.86,2.85.11,21.8,2.99,48.11,3.02,48.37.09.82-.18,1.64-.73,2.25-.36.4-8.87,9.99-1.36,18.07,2.64,2.83,9.16,3.15,11.46,3.03.05,0,.1,0,.15,0h26.6c5.16,0,9.87-3.07,11.72-7.65.1-.24.19-.48.27-.73,2.17-6.25,5.35-65.25,6.95-103.39.07-1.58,1.41-2.8,2.98-2.74,1.58.07,2.8,1.4,2.74,2.98-.41,9.8-4.11,95.97-7.26,105.03-.12.34-.24.68-.38,1-2.71,6.71-9.55,11.23-17.02,11.23h-26.52c-.22.01-.62.03-1.16.03Z"/>
  <path d="m258.38,461.91c-10.39-3.74-21.91-4.31-32.73-2.52-2.86.55-5.8,1.06-8.29,2.44-.26.15-.35.26-.38.23-.92,1.29-2.7,1.58-3.99.66-3.02-2.5.23-5.56,2.68-6.66,6.61-3.01,14.03-3.03,21.07-2.7,7.88.53,15.76,2.3,22.81,5.93,1.57.83.51,3.24-1.17,2.61h0Z"/>
  <path class="cls-9" d="m188.51,302.12s-75.82,65.83-75.11,21.37c.29-18.73,15.82-36.94,27.97-48.36,7.87-7.39,14.33-11.94,14.33-11.94l26.34-11.76,4.56,35.64,1.92,15.06Z"/>
  <g class="cls-6">
    <path d="m186.59,287.06c-17.46-1.99-33.03-6.2-45.22-11.94,7.87-7.39,14.33-11.94,14.33-11.94l26.34-11.76,4.56,35.64Z"/>
  </g>
  <g class="cls-6">
    <path d="m257.76,282.43c-14.45,3.49-30.89,5.46-48.34,5.46-23.28,0-44.79-3.52-62.15-9.46l10.59-23.27,87.83-10.06,12.07,37.33Z"/>
  </g>
  <path d="m124.89,341.72c-2.38,0-4.55-.4-6.44-1.28-5.39-2.51-8.05-8.23-7.91-17,.5-31.95,41.75-61.37,43.51-62.6.15-.11.31-.2.48-.27l26.34-11.76c.83-.37,1.78-.32,2.57.12.79.44,1.32,1.23,1.44,2.13l6.48,50.7c.12.95-.24,1.9-.96,2.52-4.82,4.18-43.81,37.44-65.5,37.44Zm32.24-76.05c-3.2,2.32-40.43,29.93-40.87,57.86-.1,6.31,1.45,10.25,4.6,11.72,3.66,1.7,13.52,2.1,38.36-14.47,12.08-8.06,22.81-16.92,26.26-19.83l-5.79-45.35-22.56,10.07Z"/>
  <path class="cls-9" d="m246.18,260.31s46.93,39.73,36.67,73.22c-12.69,41.41-73.15-31.41-73.15-31.41l6.48-50.7,30,8.89Z"/>
  <g class="cls-6">
    <path d="m265.15,280.2c-15.2,5-33.7,7.99-53.69,8.16l4.72-36.94,30,8.89s9.47,8.01,18.97,19.88Z"/>
  </g>
  <path d="m268.61,349.13c-9.64,0-22.43-7.15-38.09-21.32-12.73-11.52-22.61-23.37-23.02-23.86-.51-.61-.74-1.4-.64-2.19l6.48-50.7c.11-.83.57-1.58,1.27-2.03.7-.46,1.57-.59,2.38-.35l30,8.89c.38.11.73.3,1.04.56,1.98,1.67,48.24,41.35,37.55,76.24-2.54,8.28-7.09,13.14-13.53,14.43-1.1.22-2.25.33-3.44.33Zm-55.91-47.89c11.52,13.63,42.14,45.17,58.23,41.95,4.28-.86,7.28-4.29,9.18-10.49,9.08-29.64-30.67-65.71-35.34-69.82l-26.18-7.76-5.89,46.13Z"/>
  <path class="cls-9" d="m198.55,383.08c-4.95,40.39-3.25,83.97-6.35,92.89-.11.3-.21.59-.33.87-2.34,5.79-8.13,9.44-14.37,9.44h-23.18s-16.46.71-22.1-3.94c-5.2-4.28-4.63-12.06-3.12-16.59h0c.15-.48.33-.92.5-1.32,2.97-6.74,9.52-9.29,9.52-9.29,0,0-5.37-19.3-7.9-47.94-1.17-13.24-1.74-28.47-.89-44.73l68.19,20.61Z"/>
  <g class="cls-6">
    <path d="m198.55,383.08c-4.95,40.39-3.25,83.97-6.35,92.89-.11.3-.21.59-.33.87-2.34,5.79-8.13,9.44-14.37,9.44h-23.18s-16.46.71-22.1-3.94c-5.2-4.28-4.63-12.06-3.12-16.59h0s2.19,12.92,31.11,11.49c31.17-1.54,24.95-23.94,24.95-38.45,0-12.81-32.22-4.14-53.93-31.59-1.17-13.24-1.74-28.47-.89-44.73l68.19,20.61Z"/>
  </g>
  <path d="m151.7,489.19c-5.27,0-16.31-.52-21.3-4.64-6.87-5.67-5.8-15.82-3.41-21.26,2.26-5.13,6.27-8.15,8.8-9.64-2.32-9.4-10.64-46.81-8.3-91.32.08-1.58,1.42-2.79,3.01-2.71,1.58.08,2.79,1.43,2.71,3.01-2.65,50.33,8.57,91.35,8.68,91.76.39,1.42-.35,2.9-1.72,3.43-.04.02-5.52,2.26-7.94,7.77-1.37,3.12-2.74,10.79,1.81,14.55,3.48,2.87,14.21,3.54,20.15,3.28.04,0,.08,0,.12,0h23.18c5.16,0,9.87-3.07,11.72-7.65.09-.24.19-.48.27-.73,1.31-3.77,1.73-16.25,2.22-30.7.6-17.84,1.35-40.04,3.99-61.61.19-1.57,1.62-2.68,3.19-2.49,1.57.19,2.68,1.62,2.49,3.19-2.61,21.31-3.35,43.38-3.95,61.1-.54,16.13-.94,27.79-2.53,32.38-.12.34-.24.67-.37.99-2.71,6.72-9.56,11.23-17.03,11.23h-23.12c-.41.02-1.37.05-2.69.05Z"/>
  <path class="cls-3" d="m277.55,381.96c-15.77,47.25-112.83,64.09-147,16.54-22.93-31.91-14.32-64.46,3.63-97.69,3.91-7.26,8.28-14.54,12.86-21.87l19.62-23.78,77.4-10.07,14.59,40.08c2.19,6.31,4.79,12.77,7.42,19.37,9.88,24.77,20.2,51.3,11.48,77.41Z"/>
  <g class="cls-6">
    <path d="m277.93,380.79c-.12.39-.25.78-.38,1.17-15.77,47.26-112.83,64.09-147,16.54-3.65-5.08-6.5-10.17-8.65-15.29,38.23,39.84,118.74,32.32,156.02-2.42Z"/>
  </g>
  <path class="cls-9" d="m266.07,304.55c-17.06,4.91-37.86,7.79-60.32,7.79-27.67,0-52.83-4.38-71.57-11.53,3.91-7.26,8.28-14.54,12.86-21.87l17.98-23.78,80.67-10.07,12.96,40.08c2.19,6.31,4.79,12.77,7.42,19.37Z"/>
  <g class="cls-6">
    <path d="m257.76,282.43c-14.45,3.49-30.89,5.46-48.34,5.46-23.28,0-44.79-3.52-62.15-9.46l17.74-23.27,80.67-10.06,12.07,37.33Z"/>
  </g>
  <ellipse class="cls-4" cx="211.19" cy="215.69" rx="95.14" ry="29.86"/>
  <path d="m270.47,392.81c4.57-8.04,6.66-16.99,7.27-26.1.89-13.84-2.54-27.54-6.83-40.64-4.33-13.46-10.28-26.63-13.62-40.43-.38-1.63,1.94-2.51,2.7-.95,2.02,4.29,3.99,8.58,5.94,12.9,11.39,25.93,24.27,55.62,14.23,84-1.63,4.7-4.19,9.09-7.34,12.83-.51.61-1.42.68-2.03.17-.54-.45-.66-1.21-.33-1.8h0Z"/>
  <path d="m148.25,279.7c-23.19,39.29-46.14,84.22-9.86,123.65,21.42,21.49,55.59,24.45,84.01,18.4,4.93-1.09,9.79-2.5,14.55-4.21.74-.27,1.56.12,1.83.86.26.71-.1,1.5-.78,1.8-2.39,1.02-4.81,1.97-7.27,2.83-22.22,7.5-47.06,8.66-69.4.98-10.04-3.48-19.53-9.04-26.98-16.67-11.1-11.44-18.42-26.72-20.02-42.66-2.11-21.23,5.73-41.77,15.47-60.07,4.92-9.09,10.32-17.87,16.02-26.41,1.05-1.43,3.31-.17,2.43,1.52h0Z"/>
  <path class="cls-9" d="m161.01,65.06s-11.04-42.5-41.57-40.87c-24.61,1.32-42.13,21.41-35.25,44.92,8.85,30.25,39.58,33.29,39.58,33.29"/>
  <g class="cls-8">
    <path class="cls-3" d="m83.43,66.06c.42-19.26,16.73-34.21,38.25-35.35,17.76-.95,29.18,12.44,35.79,24.45-5.33-12.45-17.1-32.09-38.03-30.96-23.54,1.26-40.59,19.69-36.01,41.87Z"/>
  </g>
  <path d="m114.77,103.12c-.3,0-.61-.05-.91-.15-9.42-3.18-26.16-11.69-32.41-33.06-3.28-11.21-1.54-22.39,4.89-31.47,7.18-10.14,19.19-16.37,32.96-17.11,25.37-1.37,38.12,25.19,42.41,36.67.55,1.48-.2,3.13-1.68,3.68-1.48.55-3.13-.2-3.68-1.68-3.85-10.3-15.12-34.11-36.75-32.96-12.01.64-22.43,6-28.59,14.7-5.4,7.62-6.85,17.06-4.07,26.56,5.24,17.93,18.53,25.8,28.75,29.24,1.5.5,2.3,2.13,1.8,3.62-.4,1.19-1.52,1.95-2.71,1.95Z"/>
  <path class="cls-3" d="m227.99,273.13c45.95-2.41,118.18-13.57,115.13-86.6-1.97-47.09-15.83-105.58-71.39-142.48-3.65-1.56-7.33-3.47-19.47-10.41-12.57-6.97-27.46-13.44-44.73-29.77-15.14-6.31-18.31,18.35-8.72,30.43-14.03,2.53-44.34-25.38-52.01-11.4-2.57,4.68-.45,16.16,8.28,22.86-15.16,5.57-25.49,15.71-25.49,15.71-28.67,22.72-32.42,56.19-39.44,81.84-4.92,17.97-14.13,34.92-11.54,57.35,6.33,54.92,90,75.59,149.37,72.47Z"/>
  <g class="cls-6">
    <path d="m342.48,202.73c-7.56,58.55-72.16,68.18-114.48,70.4-56.76,2.98-135.7-15.76-148.08-65.39,28.48,35.67,95.99,49.3,146.87,46.62,38.86-2.05,95.27-9.92,115.7-51.64Z"/>
  </g>
  <path d="m227.92,271.7c13.47-2.33,26.99-3.49,40.32-6.3,25.62-5.33,52.71-16.83,64.75-41.41,5.97-11.86,7.54-25.31,6.91-38.52-1.32-26.96-6.38-54.05-17.93-78.52-10.59-23.98-31.52-46.85-51.46-60.01-6.01-2.64-11.44-5.91-17.08-9.09-5.48-3.2-11.08-5.99-16.64-9.12-11.27-6.19-21.92-13.84-31.21-22.77,0,0,.87.56.86.56-10.27-4.37-11.36,10.83-9.36,17.64.79,3.07,2.11,6,3.98,8.38,1,1.23.79,3.05-.45,4.03-9.13,4.37-30.98-10.95-40.97-13.63-5.2-1.74-11.25-2.16-10.97,5.09.16,5.88,3.49,11.86,8.16,15.48,1.27,1.02,1.45,2.89.4,4.13-.32.37-.72.65-1.15.82-2.23.88-4.46,1.81-6.6,2.92-2.16,1.07-4.26,2.27-6.31,3.56-13.37,8.8-25.34,20.26-32.68,34.66-10.97,20.41-13.17,43.93-20.67,65.63-5.1,14.63-9.95,29.64-8.04,45.22,3.48,30.58,32.76,48.78,59.54,58.1,10.77,3.75,21.83,6.51,32.92,9.88.76.23,1.2,1.04.97,1.8-.2.65-.81,1.05-1.45,1.02-27.4-1.8-60.38-14.53-80.12-33.99-13.35-13.17-20.04-30.97-18.44-49.68.94-14.87,6.93-28.57,11.15-42.55,3.19-11.08,5.44-22.5,8.72-33.62,5.65-20.06,15.94-39.31,32.66-52.29,6.41-6.01,16.92-12.7,26.38-16.02,0,0-.75,4.95-.75,4.95-3.03-2.39-5.59-5.37-7.36-8.78-5.34-9.66-4.51-24.32,9.79-23.03,5.55.65,10.61,3.08,15.47,5.31,6.14,2.88,12.17,6.24,18.45,8.5,2.64.92,5.93,1.89,8.61,1.45,0,0-1.73,4.6-1.73,4.6-4.84-6.33-6.66-14.21-5.87-22.02.57-6.28,4.33-13.67,11.51-14.04,2.36-.14,4.52.44,6.42,1.21.34.12.62.32.87.56,4.54,4.25,9.34,8.19,14.39,11.79,7.59,5.46,15.83,9.97,24.15,14.32,5.61,2.91,11.12,6.18,16.67,9.19,2.92,1.64,5.84,3,8.75,4.36,11.66,7.74,22.38,16.97,31.54,27.58,27.78,31.88,39.62,74.59,41.22,116.15,2.7,50.8-30.35,76.61-76.81,85.89-13.6,2.78-27.47,4.38-41.35,3.5-.79-.05-1.4-.74-1.35-1.53.04-.68.55-1.22,1.2-1.33h0Z"/>
  <path d="m167,216.39c3.38,6.53,9.65,10.28,15.45,8.71,5.03-1.36,8.33-6.34,8.9-12.41.22-2.4.01-4.98-.68-7.56-2.48-9.14-10.17-15-17.18-13.1-7.01,1.89-10.68,10.84-8.2,19.97.42,1.57,1,3.04,1.71,4.39Z"/>
  <path class="cls-10" d="m167,216.39c3.38,6.53,9.65,10.28,15.45,8.71,5.03-1.36,8.33-6.34,8.9-12.41-3.97-.9-8.83-.23-12.48,3.03,0,0-5.73-3.48-11.87.67Z"/>
  <path d="m179.81,228.32c-7.46,0-14.78-6.33-17.28-15.56h0c-2.88-10.64,1.7-21.18,10.22-23.49,8.52-2.31,17.8,4.47,20.68,15.11,2.88,10.64-1.7,21.18-10.22,23.49-1.12.3-2.26.45-3.4.45Zm-11.76-17.06c2.06,7.6,8.19,12.57,13.66,11.09,5.47-1.48,8.25-8.87,6.19-16.47-2.06-7.6-8.18-12.57-13.66-11.09-5.47,1.48-8.25,8.87-6.19,16.47h0Z"/>
  <path class="cls-9" d="m226.11,209.5s-30.52-5.78-22.96-40.96c7.55-35.18,15.85-37.04,33.95-35.2,18.1,1.84,45.05,20.1,53.83,32.99,8.78,12.89,8.93,35.07,3.95,43.1-4.08,6.59-16.54,10.03-34.36,7.89-17.81-2.14-27.77-5.51-34.41-7.83Z"/>
  <path class="cls-9" d="m139.77,196.58s22.02-.94,22.78-31.96c.76-31.02-4.64-33.69-17.44-34.49-12.79-.8-34.47,11.26-42.72,21.13-8.24,9.86-12.11,28.77-10.04,36.28,1.7,6.16,9.7,10.72,22.35,11.23,12.65.5,20.08-1.07,25.06-2.18Z"/>
  <path class="cls-9" d="m288.67,112.27c1.37-2.38-11.76-27.38-30.2-20.99-6.76,2.34-5.34,8.33-1.29,10.06,3.85,1.65,9.68,1.25,14.61,3.05,9.6,3.51,15.51,10.26,16.89,7.88Z"/>
  <path class="cls-9" d="m126.17,110.31c-1.21-1.93,8.89-22.99,24.33-18.27,5.66,1.73,4.67,6.73,1.37,8.28-3.13,1.48-7.96,1.33-11.98,2.97-7.83,3.19-12.51,8.95-13.72,7.03Z"/>
  <g>
    <path class="cls-3" d="m198.27,199.97c1.22,8.63-5.82,12.71-13.5,11.29-7.65-1.41-10.02-9.35-10.24-12,0,0-2.07,14.7-12.07,9.66-4.32-2.18-7.26-8-4.31-13.76,0,0-4.71-14.46,17.35-13.31,22.07,1.15,22.76,18.12,22.76,18.12Z"/>
    <g class="cls-6">
      <path d="m198.39,202.52c-.38,6.87-6.74,10.02-13.62,8.75-7.64-1.41-10.03-9.36-10.23-12.01,0,0-2.07,14.7-12.07,9.66-3.48-1.75-6.06-5.88-5.39-10.43.85.78,1.79,1.44,2.8,1.95,12.69,6.4,15.32-12.26,15.32-12.26.27,3.36,3.29,13.44,12.99,15.24,3.69.68,7.27.36,10.2-.9Z"/>
    </g>
    <path d="m199.33,199.82c2.71,10.91-8.91,16.49-17.99,12.76-5.22-2.23-8.46-7.63-8.95-13.15,0,0,4.28-.06,4.28-.06-.07,1.72-.38,3.26-.93,4.87-3.25,10.28-16.88,10.09-20.18-.04-1.09-3.28-.46-7.08,1.65-9.56.75-.9,2.22-.09,1.9,1.01-1.12,4.54.31,10.02,5,11.37,3.33.84,6.22-1.22,7.36-4.38.44-1.08.77-2.43.94-3.57.39-2.45,3.9-2.42,4.27,0,.87,5.17,4.77,10.09,10.31,10.25,5.92.57,10.56-2.88,10.23-9.22-.05-1.28,1.82-1.54,2.12-.3h0Z"/>
    <path d="m176.95,183.31c-1,3.87-.89,7.97-.66,11.94.09,1.32.21,2.69.38,3.95.16,1.18-.67,2.27-1.85,2.43-1.18.16-2.27-.67-2.43-1.85-.01-1.59.27-3.13.45-4.66.39-2.77.9-5.53,1.72-8.22.42-1.34.9-2.67,1.55-3.93.11-.22.39-.31.61-.19.2.1.29.33.23.53h0Z"/>
  </g>
  <path d="m191.79,182.14c-.35,8.96-16.29,12.17-16.29,12.17,0,0-13.41-5.61-12.54-13.65.49-4.57,13.23-3.93,13.23-3.93,0,0,15.79.81,15.61,5.41Z"/>
  <g class="cls-5">
    <path class="cls-3" d="m182.91,180.78c-.09,2.32-4.04,3.16-6.93,3.01-2.88-.15-6.76-1.39-6.67-3.71.05-1.19,6.84-.84,6.84-.84,0,0,6.8.35,6.75,1.54Z"/>
  </g>
  <path class="cls-9" d="m286.28,82.9c-20.48-16.16-19.8-30.16-15.08-39.52,5.97-11.83,16.59-25.35,33.88-24.95,24.63.57,42.76,20.11,36.6,43.82-3.68,14.17-12.26,22.61-20.39,27.6-9.13,5.6-19.84,5.03-35.02-6.95Z"/>
  <g class="cls-8">
    <path class="cls-3" d="m266.4,55.01c5.91-12.98,17.34-29.65,36.97-29.2,20.53.48,36.75,13.53,39.29,31.35,2.54-21.36-14.71-38.21-37.56-38.74-23.68-.54-34.86,25.03-38.69,36.58Z"/>
  </g>
  <path d="m265.23,53.98c2.16-13.82,11.8-28.77,24.5-35.21,6.87-3.5,14.87-4.04,22.37-2.71,14.88,2.39,28.84,12.99,32.52,28.05,2.92,11.07-.15,22.82-5.89,32.43-5.85,9.54-15.29,16.64-25.67,20.46-3.57,1.22-5.51-3.93-2.01-5.36,9.33-3.46,17.59-9.63,22.81-18.1,8.86-14.59,8.86-32.45-5.1-43.82-7.45-6.08-17.79-8.88-27.32-8.09-9.83,1-17.63,7.54-23.26,15.61-3.9,5.63-6.79,11.68-10.25,17.66-.75,1.39-2.96.65-2.71-.92h0Z"/>
  <path d="m249.55,188.79c-1.26-8.13-5.5-20.25-13.9-22.09-3.93-.79-8.07.31-11.75,2.86-3.85,2.76-6.79,6.47-9.38,10.6-1.01,1.84-3.88,1.03-3.79-1.05.67-17.01,22.87-28.86,35.59-15.35,6.11,6.72,8.44,16.33,7.16,25.18-.4,2.26-3.7,2.13-3.93-.13h0Z"/>
  <path d="m114.96,176.31c.33-8.53,3.65-17.3,10.79-22.58,5.35-3.98,13.41-5.13,19.05-.97,7.35,5.41,10.53,14.77,9.52,23.46-.27,2-3.06,2.38-3.87.56-2.75-5.96-4.95-13.17-10.4-16.93-3.12-2.08-6.77-1.33-9.87.48-5.75,3.67-8.88,10.12-11.35,16.67-.74,2.14-3.92,1.57-3.87-.68h0Z"/>
  <path class="cls-9" d="m189.43,302.33c-.19.64-1.12.99-1.51.44-6.16-8.39-17-8.25-21.01.8-5.54,12.48,13.9,21.29,19.45,30.55,2.62,4.38,2.1,7.9-.31,10.04-1.02.91-2.24,1.3-3.58,1.34-5.55.18-13.37-5.59-19.73-5.59-.34,0-.74.04-1.21.12-10.39,1.79-50.57,21.74-48.12-16.54,0,0,0-.77.16-2.17.58-4.94,3.28-17.8,15.7-33.33l3.96,6.68c3.83.5,7-1.48,7-1.48,17.02-10.9,36.53-18.01,47.49-2.81,1.16,1.6,1.79,3.43,2.07,5.23.42,2.59.12,5.1-.36,6.73Z"/>
  <g class="cls-6">
    <path d="m189.43,302.33c-.19.64-1.12.99-1.51.44-6.16-8.39-17-8.25-21.01.8-5.54,12.48,13.9,21.29,19.45,30.55,2.62,4.38,2.1,7.9-.31,10.04-1.02.91-2.24,1.3-3.58,1.34.83-1.04,1.5-2.37,1.72-3.99.5-3.73-9.39-17.38-16.35-16.98-6.64.39-7.02,8.89-6.31,15.5-10.39,1.79-50.57,21.74-48.12-16.54,0,0,0-.77.16-2.17,2.57,4.96,6.27,8.84,11.54,9.05,16.62.65,25.75-32.14,39.55-37.44,13.8-5.3,18.53,3.11,21.94,4.12,1.72.51,2.68-.41,3.2-1.44.42,2.59.12,5.1-.36,6.73Z"/>
  </g>
  <path d="m131.5,289.77c-9.93,12.43-19.68,31.35-13.45,47.25,4.12,8.83,15.54,7.35,23.53,5.62,6.75-1.34,13.33-4.29,20.28-5.54,3.75-.28,7.38,1.15,10.44,2.34,3.67,1.31,7.12,3.52,10.82,3.09,1.66-.54,2.37-2.07,1.95-4.04-1.15-4.3-4.85-7.2-8.08-10.25-3.87-3.52-7.9-6.79-10.99-11.27-3.83-5.29-4.17-12.03-.28-17.43,3.62-5.49,11.1-7.44,17.03-4.75,3.14,1.32,5.66,3.53,7.59,6.13-1.17-1.51-3.35-1.04-3.82.42.8-2.93.44-6.75-1.27-9.14-2.54-3.62-6.09-6.23-10.31-7.13-9.06-1.89-18.54,2.44-26.77,6.42-4.75,2.22-9.61,6.1-15.14,4.58-1.58-.38-1.36-2.77.28-2.83,1.11-.04,2.19-.24,3.22-.62.99-.35,2.01-.88,2.73-1.43,2.03-1.53,4.17-2.97,6.37-4.3,13.72-8.39,33.63-13.76,44.6,1.76,2.98,4.35,3.39,9.48,2.16,14.36-.03.31-.4,1.08-.65,1.39-1.36,1.94-4.38,2.37-6.08.47-1.4-1.89-3.22-3.61-5.31-4.45-8.24-3.49-14.81,6.33-9.45,13.24,4.96,7.25,13.44,11.62,18.1,19.32,3.42,5.44,2.46,13.18-4.52,15.15-5.06,1.1-10-1.73-14.34-3.36-3.26-1.2-6.02-2.53-9.2-1.68-6.02,1.61-11.86,3.8-18.15,5.16-15.14,3.61-30.17,1.3-32.13-16.89-.64-6.48-.14-12.04,1.74-18.34,2.94-9.84,8.27-18.85,14.6-26.8.98-1.24,2.78-1.44,4.02-.45,1.24.99,1.44,2.79.45,4.03h0Z"/>
  <g>
    <path class="cls-11" d="m91.81,298.98c0,13.9-8.65,21.84-22.54,30.07-14.63,8.66-21.93,20.53-21.93,20.53,0,0-7.31-11.87-21.93-20.53-10.69-6.34-18.28-12.5-21.21-21.34-.88-2.64-1.33-5.52-1.33-8.72,0-13.9,11.27-25.17,25.17-25.17,12.55,0,19.3,14.53,19.3,14.53,0,0,6.75-14.53,19.3-14.53,10.13,0,18.87,5.99,22.86,14.62,1.48,3.21,2.31,6.78,2.31,10.55Z"/>
    <g class="cls-2">
      <path class="cls-3" d="m91.81,298.98c0,.83-.03,1.64-.09,2.42-.25-2.99-1.02-5.83-2.22-8.43-2.83-6.13-8.06-10.92-14.47-13.19-.04,2.11-3.29,3.82-7.29,3.82s-7.3-1.73-7.3-3.86c0-.05,0-.1,0-.15-8.56,3.52-13.1,13.29-13.1,13.29,0,0-6.75-14.53-19.3-14.53-13.18,0-24,10.14-25.08,23.04-.06-.79-.09-1.59-.09-2.42,0-13.9,11.27-25.17,25.17-25.17,12.55,0,19.3,14.53,19.3,14.53,0,0,6.75-14.53,19.3-14.53,10.13,0,18.87,5.99,22.86,14.62,1.48,3.21,2.31,6.78,2.31,10.55Z"/>
    </g>
    <path class="cls-1" d="m91.81,298.98c0,13.9-8.65,21.84-22.54,30.07-14.63,8.66-21.93,20.53-21.93,20.53,0,0-7.31-11.87-21.93-20.53-10.69-6.34-18.28-12.5-21.21-21.34h0s23.08,23.82,50.3,18.52c37.31-7.27,35-37.79,35-37.79h0c1.48,3.21,2.31,6.78,2.31,10.55Z"/>
    <path d="m47.34,352.43h0c-.99,0-1.91-.52-2.43-1.36-.07-.11-7.16-11.4-20.95-19.57-14.37-8.51-23.95-17.3-23.95-32.53s12.58-28.03,28.03-28.03c9.53,0,15.99,6.98,19.3,11.78,3.31-4.8,9.77-11.78,19.3-11.78,15.46,0,28.03,12.58,28.03,28.03s-9.57,24.02-23.95,32.53c-13.79,8.16-20.88,19.46-20.95,19.57-.52.84-1.44,1.36-2.43,1.36Zm-19.31-75.77c-12.3,0-22.31,10.01-22.31,22.31s7.75,19.68,21.14,27.6c10.34,6.12,17.13,13.72,20.47,18.06,3.35-4.33,10.14-11.94,20.47-18.06,13.39-7.93,21.14-14.98,21.14-27.6s-10.01-22.31-22.31-22.31c-10.54,0-16.65,12.75-16.71,12.88-.47,1-1.48,1.65-2.59,1.65h0c-1.11,0-2.12-.64-2.59-1.65h0c-.06-.13-6.17-12.88-16.71-12.88Z"/>
    <path d="m43.64,297.25c.15-3.39.29-6.7,1.06-10.05,1.29-4.24,7.36-1.77,5.31,2.17-1.44,2.49-2.57,5.62-3.56,8.41-.54,1.55-2.87,1.1-2.81-.53h0Z"/>
  </g>
  <path d="m151.45,316.98c5.53-1.7,9.48-6.63,11.73-11.77,0,0,.91-2.32.91-2.32l.07-.18c.58-1.48,2.24-2.21,3.72-1.63,1.48.58,2.21,2.24,1.63,3.72-.48.99-1.04,1.94-1.58,2.9-2.55,4.18-5.99,7.93-10.38,10.22-1.82.94-3.65,1.63-5.72,1.9-.78.09-1.49-.47-1.58-1.25-.1-.78.46-1.45,1.2-1.59h0Z"/>
  <path class="cls-4" d="m184.15,288.86c0-.18.03-.31.06-.36l-.06.36Z"/>
  <path class="cls-9" d="m277.07,298.05c10.46,17.89,6.08,34.77,5.79,35.46,0,.02-.02.04-.02.07-10.84,37.48-61.33,6.34-69.23,6.34s-18.05,8.91-23.31,4.25c-2.41-2.13-2.77-5.56-.32-10.04,4.57-8.34,22.09-15.5,20.89-27.41-.6-5.92-6.01-10.53-12.21-9.94-4.83.46-7.91,4.13-9.25,5.6-.34.37-.93.28-1.16-.17-1.28-2.5-2.65-7.65.38-11.84,10.97-15.2,30.46-8.09,47.49,2.81,5.36,3.09,18.2,11.38,28.56,11.03,0,0,3.86.03,6.7-1.7"/>
  <g class="cls-6">
    <path d="m282.86,333.51s-.01.05-.02.07c-8.17,28.24-38.84,17.53-56.85,10.53-6.46-9.52-12.49-18.07-18.42-17.1-7.88,1.29-19.05,10.51-11.04,18.22-2.42.54-4.57.42-6.23-1.06-2.41-2.14-2.77-5.56-.32-10.04,4.57-8.34,22.1-15.5,20.89-27.42-.6-5.91-6.01-10.53-12.22-9.93-4.83.46-7.91,4.13-9.25,5.6-.34.37-.94.28-1.17-.16-.98-1.93-2.03-5.43-1.06-8.86.68,2.23,1.91,4.16,3.86,2.63,4.44-3.48,14.01-6.65,20.08-1.3,5.64,4.98,2.11,15.53,14.18,23.73,0,0,49.19,46.08,58.64,2.58.38,7.22-.92,12.15-1.08,12.52Z"/>
  </g>
  <path d="m279.54,296.61c6.48,11.15,9.1,24.8,6.15,37.45-.02.13-.13.38-.17.51-.07.17.05-.12.06-.16.02-.07,0,.03-.01.03l-.03.08c-1.37,4.63-3.53,9.1-6.92,12.62-15.71,15.78-42.43,3.84-59.86-2.79-1.83-.64-3.58-1.43-5.26-1.58-5.89.37-11.02,4.33-17.17,5.4-8.47,1.57-13.17-6.32-9.75-13.6,2.79-6.63,9.58-10.69,14.48-15.37,4.08-3.8,8.42-8.51,6.39-14.16-1.72-4.78-7.99-6.91-12.2-3.9-1.25.78-2.46,2.01-3.57,3.27-.12.15-.35.34-.51.47-1.54,1.24-4,.93-5.2-.62-.87-1.21-1.32-2.69-1.71-4.09-1.09-3.99-.45-8.79,2.28-12.09,4.46-6.26,12.27-9.88,19.91-9.47,17.73.57,31.14,13.79,46.56,20.27,4.27,1.76,8.7,3.29,13.35,3.19,1.48-.06,2.96-.27,4.27-.78.75-.35,1.66,0,1.96.77.24.61.03,1.29-.47,1.67-9.25,6.33-21.91.62-30.59-4.07-8.53-4.71-16.91-10.63-26.21-13.34-5.69-1.71-12.03-2.52-17.41.01-2.87,1.33-5.28,3.57-7.06,6.21-1.13,1.83-1.21,3.98-.68,6.12.18.71.42,1.41.74,2.04l.05.1c-.06-.13-.16-.27-.26-.4-.42-.52-1.08-.85-1.76-.86-.6-.02-1.23.23-1.67.65,2.09-2.57,6.37-6,10.59-6.37,11.75-1.49,19.89,10.98,14.18,21.22-3.58,6.53-9.52,10.4-14.67,15.03-2.24,2.02-4.35,3.99-5.49,6.73-.87,2.08-1.19,4.17.64,5.43,2.22,1.05,4.73-.22,7.1-1.01,3-1.15,6.08-2.66,9.73-3.6,1.91-.49,4.38-.83,6.3-.32,3.7.91,10.9,3.99,14.49,5.3,16.88,6.42,42.98,14.07,49.75-9.16.69-1.89.97-4.31,1.17-6.74.66-9.45-1.66-19.05-6.44-27.22-1.82-3.31,2.94-6.1,4.94-2.89h0Z"/>
  <path d="m225.11,319.82c-4.98-.71-9.33-3.7-12.62-7.38-1.99-2.18-3.53-4.69-4.9-7.29-.77-1.39-.26-3.14,1.13-3.9,1.39-.77,3.14-.26,3.9,1.13.17.29.98,2.48,1.14,2.84,2.25,5.14,6.2,10.06,11.73,11.77,1.82.36,1.47,3-.38,2.84h0Z"/>
  <g>
    <path class="cls-7" d="m168.61,455.52c-9.89-1.55-24.46-2.21-29.47-.37"/>
    <path d="m168.39,456.94c-8.41-.43-16.92-.54-25.27.41-1.22.15-2.3.31-3.25.55-1.53.37-3.07-.58-3.44-2.12-1.5-7.35,20.91-3.84,25.01-3.19,2.48.4,4.94.91,7.39,1.53.77.19,1.24.98,1.04,1.75-.17.68-.81,1.13-1.48,1.08h0Z"/>
  </g>
  <path d="m248.59,465.79c-1.78,4.46-2.4,10.28.52,14.33.87,1.24,2.05,2.25,3.37,3.08,3.14,2.09.19,6.79-3.06,4.85-7.73-5.69-7.86-15.83-3.36-23.61.93-1.58,3.31-.31,2.53,1.34h0Z"/>
  <path d="m228.08,465.81c-2.51,6-2.2,13.47,3.9,17.06,3.33,2.14.23,6.99-3.1,4.84-7.57-5.8-7.88-15.47-3.31-23.27.95-1.56,3.3-.27,2.51,1.37h0Z"/>
  <path d="m163.15,465.76c-1.75,4.67-2.44,10.7.47,14.99.86,1.31,2.07,2.35,3.42,3.21,3.13,2.11.15,6.79-3.09,4.83-7.9-5.82-7.71-16.38-3.36-24.32.89-1.6,3.3-.38,2.56,1.28h0Z"/>
  <path d="m142.64,465.78c-1.76,4.58-2.42,10.51.49,14.69.87,1.28,2.06,2.3,3.39,3.15,3.14,2.1.18,6.79-3.07,4.84-7.82-5.74-7.78-16.15-3.36-24,.91-1.59,3.3-.35,2.54,1.31h0Z"/>
</svg>