<?xml version="1.0" encoding="UTF-8"?>
<svg id="Layer_1" data-name="Layer 1" xmlns="http://www.w3.org/2000/svg" viewBox="0 0 337.15 500">
  <defs>
    <style>
      .cls-1 {
        fill: #fff;
      }

      .cls-2 {
        opacity: .5;
      }

      .cls-3 {
        opacity: .2;
      }

      .cls-4 {
        fill: #66e9ff;
      }

      .cls-5 {
        opacity: .4;
      }

      .cls-6 {
        opacity: .3;
      }

      .cls-7 {
        fill: #25b0d6;
      }

      .cls-8 {
        fill: #777882;
      }

      .cls-9 {
        fill: #66dbff;
      }

      .cls-10 {
        fill: #232333;
      }

      .cls-11 {
        opacity: .25;
      }
    </style>
  </defs>
  <g class="cls-3">
    <ellipse cx="170.94" cy="479.57" rx="137.7" ry="20.43"/>
  </g>
  <g>
    <path class="cls-8" d="m260.15,101.97c-22.11-21.3-19.69-37.6-13.07-48.02,8.36-13.15,22.37-27.76,42.56-25.29,28.78,3.52,47.73,28.51,37.77,55.55-5.95,16.16-16.97,25.05-27.07,29.94-11.34,5.49-23.81,3.59-40.19-12.19Z"/>
    <path class="cls-8" d="m77.11,101.97c22.11-21.3,19.69-37.6,13.07-48.02-8.36-13.15-22.37-27.76-42.56-25.29C18.84,32.19-.11,57.18,9.84,84.22c5.95,16.16,16.97,25.05,27.07,29.94,11.34,5.49,23.81,3.59,40.19-12.19Z"/>
    <circle class="cls-1" cx="50.52" cy="72.68" r="19.12"/>
    <circle class="cls-1" cx="285.1" cy="72.68" r="19.12"/>
    <g class="cls-11">
      <path d="m319.18,83.91s-7.14,25.44-35.94,21.33c-18-2.57-41.19-30.96-38.32-35.29,11.04-16.65,23.43,2.05,37.91,15.21,12.22,11.11,28.54,8.72,36.35-1.25Z"/>
    </g>
    <g class="cls-6">
      <path class="cls-1" d="m240.1,67.01c8.42-14.51,23.74-32.7,46.66-29.9,23.98,2.94,41.46,20.1,42.36,41.26,5.45-24.71-12.8-46.44-39.48-49.71-27.66-3.38-43.71,25.26-49.54,38.34Z"/>
    </g>
    <path class="cls-10" d="m239.09,65.77c3.53-12.34,11.29-23.3,21.25-31.4,8.68-7.02,20.19-10.43,31.26-8.48,19.5,2.65,37.98,17.34,40.85,37.51,2.12,13.15-2.81,26.43-10.55,36.9-7.89,10.4-19.65,17.55-32.15,20.8-3.67.86-5.08-4.44-1.47-5.51,11.43-2.99,21.92-9.33,29.08-18.74,6.82-9.24,11.33-21.02,9.46-32.57-2.84-19.64-22.8-32.74-41.8-32.82-11.78.02-21.87,6.89-29.44,15.79-5.11,6.06-9.31,12.88-13.88,19.71-.87,1.34-3.04.37-2.6-1.18h0Z"/>
    <path class="cls-8" d="m181.4,450.88c16.68,2.42,89.22,28.77,116.92,28.77,26.06,0,38.73-27.13,35.47-50.77-4.63-33.53-33.05-32.57-42.68-24.18,0,0-37.2-20.7-58.54-25.98"/>
    <path class="cls-8" d="m155.75,450.88c-16.68,2.42-89.22,28.77-116.92,28.77-26.06,0-38.73-27.13-35.47-50.77,4.63-33.53,33.05-32.57,42.68-24.18,0,0,37.2-20.7,58.54-25.98"/>
    <path class="cls-8" d="m155.75,450.88c-16.68,2.42-89.21,28.77-116.92,28.77-18.31,0-30.02-13.39-34.21-29.55,0,0,0-.02,0-.02-1.78-6.84-2.22-14.17-1.25-21.2,4.63-33.53,33.05-32.57,42.68-24.18,0,0,37.2-20.7,58.55-25.98l40.13,56.61,11.03,15.56Z"/>
    <path class="cls-8" d="m155.75,450.88c-16.68,2.42-89.21,28.77-116.92,28.77-18.31,0-30.02-13.39-34.21-29.55,0,0,0-.02,0-.02-1.78-6.84-2.22-14.17-1.25-21.2,4.63-33.53,33.05-32.57,42.68-24.18,0,0,37.2-20.7,58.55-25.98l40.13,56.61,11.03,15.56Z"/>
    <g class="cls-11">
      <path d="m155.75,450.88c-16.68,2.42-89.21,28.77-116.92,28.77-18.31,0-30.02-13.39-34.21-29.55.25.57,9.42,20.97,29.62,16.25,18.18-4.24,21.82-24.77,21.82-24.77,0,0,11.1,12.87,18.37,6.85,9.64-7.99-1.69-30.25.76-34.8,2.17-4.02,14.18,16.84,69.54,21.69l11.03,15.56Z"/>
    </g>
    <g class="cls-11">
      <path d="m123.51,458.42c-2.83-.62-5.46-1.27-7.85-1.9,0,0-18.07,5.36-34.05-22.89-2.29-4.05-4.15-7.7-5.62-10.96-.94-4.16-1.61-7.55-.81-9.03,1.79-3.32,10.29,10.31,44.33,17.91,5,9.58,6.67,18.99,4,26.88Z"/>
    </g>
    <g class="cls-11">
      <path d="m155.75,450.88c-16.68,2.42-89.21,28.77-116.92,28.77-18.31,0-30.02-13.39-34.21-29.55.25.57,9.42,20.97,29.62,16.25,18.18-4.24,21.82-24.77,21.82-24.77,0,0,11.1,12.87,18.37,6.85,9.64-7.99-1.69-30.25.76-34.8,2.17-4.02,14.18,16.84,69.54,21.69l11.03,15.56Z"/>
    </g>
    <g class="cls-11">
      <path d="m181.4,450.88c16.68,2.42,89.21,28.77,116.92,28.77,18.31,0,30.02-13.39,34.21-29.55-.25.57-9.42,20.97-29.62,16.25-18.18-4.24-21.82-24.77-21.82-24.77,0,0-11.1,12.87-18.37,6.85-9.64-7.99,1.69-30.25-.76-34.8-2.17-4.02-14.18,16.84-69.54,21.69l-11.03,15.56Z"/>
    </g>
    <g class="cls-5">
      <path class="cls-1" d="m56.05,432.17s-6.81-28.47-29.93-23.26c-16.61,3.74-21.37,23.36-22.72,35.02-.03-.14-.05-.28-.06-.42h0c-.64-4.85-.64-9.81.03-14.62,4.64-33.53,33.05-32.57,42.69-24.19,0,0,.04-.08.11-.24,5.22,5.8,9,14.6,9.9,27.71Z"/>
    </g>
    <path class="cls-10" d="m38.83,482.5c-10.69,0-20.06-4.26-27.08-12.32-9.04-10.37-13.33-26.35-11.21-41.69,2.81-20.32,13.91-27.35,20.28-29.74,9.51-3.56,19.57-1.51,25.49,2.55,7.53-4.11,38.45-20.62,57.6-25.35l1.37,5.54c-20.73,5.13-57.47,25.5-57.84,25.71l-1.75.97-1.51-1.32c-4.18-3.64-13.09-5.85-21.35-2.75-6.33,2.37-14.35,8.66-16.63,25.17-1.9,13.76,1.88,28,9.86,37.16,5.91,6.78,13.78,10.36,22.78,10.36,17.37,0,54.34-11.07,81.34-19.16,16.2-4.85,29-8.69,35.18-9.58l.82,5.65c-5.76.83-19.02,4.8-34.36,9.4-28.86,8.64-64.77,19.4-82.97,19.4Z"/>
    <path class="cls-10" d="m48.17,402.8c7.87,9.71,10.42,22.74,9.17,34.97-.24,1.83-2.97,1.56-2.84-.29.17-9.68-2.15-19.92-7.98-27.78-.36-.52-.82-1.11-1.27-1.58,0,0-1.33-1.52-1.33-1.52-2.83-2.96,1.65-6.97,4.26-3.8h0Z"/>
    <ellipse class="cls-1" cx="28.95" cy="448.43" rx="13.75" ry="15.34"/>
    <ellipse class="cls-1" cx="41.77" cy="428.39" rx="5.05" ry="5.63"/>
    <ellipse class="cls-1" cx="15.21" cy="430.68" rx="5.05" ry="5.63"/>
    <ellipse class="cls-1" cx="27.78" cy="424.43" rx="5.6" ry="6.25"/>
    <g class="cls-5">
      <path class="cls-1" d="m281.1,432.17s6.81-28.47,29.93-23.26c16.61,3.74,21.37,23.36,22.72,35.02.03-.14.05-.28.06-.42h0c.64-4.85.64-9.81-.03-14.62-4.64-33.53-33.05-32.57-42.69-24.19,0,0-.04-.08-.11-.24-5.22,5.8-9,14.6-9.9,27.71Z"/>
    </g>
    <path class="cls-10" d="m298.32,482.5c-18.21,0-54.12-10.76-82.98-19.4-15.34-4.6-28.59-8.57-34.36-9.4l.82-5.65c6.18.9,18.98,4.73,35.18,9.58,27,8.09,63.97,19.16,81.34,19.16,9,0,16.87-3.58,22.78-10.36,7.98-9.17,11.76-23.4,9.86-37.16-2.28-16.51-10.3-22.8-16.63-25.17-8.27-3.1-17.17-.89-21.35,2.75l-1.51,1.32-1.75-.97c-.37-.2-37.12-20.58-57.84-25.71l1.37-5.54c19.15,4.74,50.07,21.24,57.6,25.35,5.92-4.06,15.97-6.11,25.49-2.55,6.37,2.39,17.47,9.42,20.28,29.74,2.12,15.34-2.18,31.32-11.21,41.69-7.02,8.06-16.39,12.32-27.08,12.32Z"/>
    <path class="cls-10" d="m293.24,406.6c-3.78,4-6.53,8.87-8.19,14.14-.85,2.67-1.49,5.44-1.89,8.26-.39,2.8-.6,5.72-.51,8.48.07.81-.56,1.53-1.37,1.55-.75.02-1.38-.53-1.46-1.26-.67-6.14-.26-12.16,1.11-18.17,1.36-6.04,4.14-11.96,8.05-16.8,2.6-3.16,7.09.82,4.26,3.8h0Z"/>
    <ellipse class="cls-1" cx="308.2" cy="448.43" rx="13.75" ry="15.34"/>
    <ellipse class="cls-1" cx="295.38" cy="428.39" rx="5.05" ry="5.63"/>
    <ellipse class="cls-1" cx="321.94" cy="430.68" rx="5.05" ry="5.63"/>
    <ellipse class="cls-1" cx="309.37" cy="424.43" rx="5.6" ry="6.25"/>
    <path class="cls-1" d="m266,397.21c3.35-46.14-32.3-101.45-40.84-129.62l-56.45-40.67-56.45,40.67c-8.54,28.17-44.19,83.48-40.84,129.62l44.23,59.3c12.33,3.26,30.75,6.77,52.92,6.77s40.58-3.51,52.92-6.77"/>
    <path class="cls-1" d="m266.01,397.21l-44.52,59.3c-12.33,3.26-30.74,6.77-52.91,6.77s-40.58-3.51-52.91-6.77l-22.39-30.02-21.84-29.28c-1.48-20.34,4.62-42.45,12.63-63.23,10.16-26.38,23.42-50.63,28.2-66.39l56.45-40.67,56.45,40.67c4.78,15.75,18.01,39.97,28.18,66.33,8.03,20.8,14.14,42.94,12.66,63.29Z"/>
    <path class="cls-1" d="m266.01,397.21l-35.45,47.2-9.08,12.09c-12.33,3.27-30.74,6.77-52.91,6.77s-40.58-3.5-52.91-6.77l-9.05-12.13-13.34-17.89-21.83-29.28c-1.48-20.34,4.62-42.45,12.63-63.23,10.17-26.39,23.42-50.63,28.2-66.4l56.45-40.67,56.45,40.67c4.77,15.76,18.01,39.97,28.18,66.33,8.03,20.81,14.13,42.94,12.66,63.3Z"/>
    <g class="cls-11">
      <path d="m230.57,444.42l-9.08,12.09c-12.33,3.27-30.74,6.77-52.91,6.77s-40.58-3.5-52.91-6.77l-9.05-12.13,12.9-12.85s21.51,4.77,49.06,4.77,49.07-4.77,49.07-4.77l12.93,12.88Z"/>
    </g>
    <path class="cls-8" d="m123.51,458.42c-2.83-.62-5.46-1.27-7.85-1.9,0,0-18.06,5.35-34.05-22.89-15.99-28.24-10.32-36.42-10.32-36.42,0-2.79.09-5.62.28-8.48,35.28,16.66,59.06,48.66,51.94,69.68Z"/>
    <g class="cls-11">
      <path d="m123.51,458.42c-2.83-.62-5.46-1.27-7.85-1.9,0,0-18.07,5.36-34.05-22.89-2.29-4.05-4.15-7.7-5.62-10.96-.94-4.16-1.61-7.55-.81-9.03,1.79-3.32,10.29,10.31,44.33,17.91,5,9.58,6.67,18.99,4,26.88Z"/>
    </g>
    <path class="cls-8" d="m213.79,458.42c2.83-.62,5.46-1.27,7.85-1.9,0,0,18.06,5.35,34.05-22.89s10.32-36.42,10.32-36.42c0-2.79-.09-5.62-.28-8.48-35.28,16.66-59.06,48.66-51.94,69.68Z"/>
    <path class="cls-8" d="m253.35,333.92c-25.85,4.96-54.55-2.27-84.78-2.27s-58.73,7.21-84.5,2.33c10.16-26.38,23.42-50.63,28.2-66.39l56.45-40.67,56.45,40.67c4.78,15.75,18.01,39.97,28.18,66.33Z"/>
    <path class="cls-8" d="m253.35,333.92s-38.76,12.65-86.25,12.65-83.03-12.58-83.03-12.58c4.37-11.35,9.31-22.3,13.91-32.35,6.09-13.33,11.57-25.06,14.29-34.05l56.45-40.67,56.45,40.67c2.73,8.99,8.2,20.73,14.29,34.05,4.59,10.03,9.53,20.96,13.89,32.29Z"/>
    <g class="cls-11">
      <path d="m239.46,301.63c-19.32,8.8-43.93,14.06-70.73,14.06s-51.42-5.27-70.75-14.06c6.09-13.33,11.57-25.06,14.29-34.05l56.45-40.67,56.45,40.67c2.73,8.99,8.2,20.73,14.29,34.05Z"/>
    </g>
    <path class="cls-10" d="m264.58,397.11c-.61-5.49-1.09-11.22-1.8-16.71-2.15-16.76-7.34-32.88-13.45-48.67-8.11-21.45-19.54-41.48-26.89-63.31,0,0,1.06,1.49,1.06,1.48l-56.45-40.67h3.34l-56.45,40.67,1.06-1.49c-1.76,5.66-3.97,11.02-6.26,16.3-14.89,33.42-32.11,66.99-34.99,103.99-.05.99-.32,3.17-.42,4.18-.12,1.4-.24,2.8-.47,4.22-.09.82-.86,1.42-1.67,1.28-.59-.09-1.03-.53-1.17-1.07-.36-1.43-.61-2.88-.87-4.34-.37-2.92-.49-5.86-.45-8.8,1.74-30.57,15.43-58.74,27.79-86.15,4.62-10.27,9.67-20.61,13.05-31.27,0,0,.3-.94.3-.94,0,0,.76-.55.76-.55l56.45-40.67,1.67-1.2,1.67,1.2,56.45,40.67.76.55c1.73,5.6,3.93,11.12,6.34,16.63,6.88,15.72,14.43,31.11,20.86,47.11,7.39,18.69,14.24,38.62,13.86,59.02-.17,2.94-.53,5.87-1.22,8.73-.19.78-.96,1.25-1.74,1.07-.62-.15-1.04-.67-1.1-1.28h0Z"/>
    <g class="cls-11">
      <path d="m18.08,83.91s7.14,25.44,35.94,21.33c18-2.57,41.19-30.96,38.32-35.29-11.04-16.65-23.43,2.05-37.91,15.21-12.22,11.11-28.54,8.72-36.35-1.25Z"/>
    </g>
    <g class="cls-6">
      <path class="cls-1" d="m97.16,67.01c-8.42-14.51-23.74-32.7-46.66-29.9-23.98,2.94-41.46,20.1-42.36,41.26C2.68,53.67,20.93,31.94,47.62,28.67c27.66-3.38,43.71,25.26,49.54,38.34Z"/>
    </g>
    <path class="cls-10" d="m95.57,66.95c-10.26-15.91-22.4-35.37-43.32-35.5-19,.09-38.97,13.18-41.8,32.82-2.34,15.27,5.87,31.38,17.59,40.91,6.06,4.92,13.31,8.36,20.92,10.39,1.53.4,2.45,1.97,2.04,3.5-.41,1.52-1.97,2.43-3.49,2.02-8.31-2.21-16.3-5.98-23.06-11.47-3.38-2.73-6.43-5.88-9.09-9.33-7.75-10.47-12.67-23.74-10.55-36.9,2.87-20.17,21.35-34.85,40.85-37.51,20.99-3.6,38.05,10.84,47.69,28.16,2.02,3.73,3.72,7.62,4.82,11.72.21.77-.25,1.56-1.02,1.77-.61.16-1.24-.09-1.58-.59h0Z"/>
    <path class="cls-1" d="m188.26,295.58c51.58-3.78,100.33-18.54,116.66-51.45,12.31-24.81,3.32-50.33,3.31-50.37-.31-1.49,5.88-105.7-74.53-142.15-22.67-10.28-43.98-13.02-64.99-13.27-21.01.25-42.31,2.99-64.99,13.27C23.31,88.06,29.5,192.26,29.19,193.75c0,.04-8.99,25.57,3.31,50.37,16.33,32.91,65.08,47.67,116.66,51.45h39.1Z"/>
    <path class="cls-1" d="m306.1,241.59c-.37.84-.77,1.69-1.18,2.53-16.33,32.91-65.09,47.67-116.66,51.46h-39.1c-51.58-3.78-100.33-18.54-116.67-51.46-.41-.84-.81-1.69-1.18-2.53-10.52-23.98-2.13-47.8-2.13-47.84.31-1.49-5.89-105.7,74.54-142.15,22.67-10.28,43.98-13.03,64.99-13.28,21.01.25,42.31,2.99,64.99,13.28,80.41,36.45,74.22,140.66,74.53,142.15,0,.04,8.4,23.86-2.13,47.84Z"/>
    <g class="cls-11">
      <path d="m306.1,241.59c-.37.84-.77,1.69-1.18,2.53-16.33,32.91-65.09,47.67-116.66,51.46h-39.1c-51.58-3.78-100.33-18.54-116.67-51.46-.41-.84-.81-1.69-1.18-2.53,14.25,11.29,57.86,39.55,137.39,39.55s123.14-28.26,137.4-39.55Z"/>
    </g>
    <path class="cls-10" d="m188.16,294.15c35.85-5.57,78.01-10.89,104.57-37.8,15.27-15.73,18.84-39.74,13-60.37-.16-.66-.46-1.32-.54-1.99,0,0,.05.38.05.38-.06-.54-.09-1.06-.07-1.56,0,0,0-.94,0-.94v-1.83c-.27-34.9-8.2-70.99-28.77-99.71-18.47-25.93-47.65-41.44-78.72-46.57-37.82-6.08-79.4-1.19-111.31,21.19-39.37,27.87-54.19,78.74-54.3,125.09-.03,1.31.11,2.98-.05,4.3,0,0,.05-.36.05-.36-.03.19-.07.37-.11.56l-.08.27c-6.27,20.91-2.72,45.51,12.85,61.49,26.55,26.74,68.7,32.45,104.52,37.86,1.74.24,1.56,2.84-.21,2.84-7.73-.04-15.47-.56-23.17-1.45-51.04-6.31-110.15-28.9-102.06-90.95.48-3.59,1.48-8.42,2.46-11.29,0,.07,0,.14,0,.21l.05-.36s-.05.15-.05.13v-.45c-.1-9.67.46-19.4,1.68-28.99,6.24-51.44,31.12-98.78,81.68-117.95,28.15-10.99,59.35-12.83,89.04-8.09,35.86,5.97,67.28,24.1,86.95,55.18,18.44,29.35,25.8,64.57,25.63,98.93,0,0,0,.92,0,.92v.45s-.01-.12-.06-.16l.05.38c.02-.13,0-.27-.04-.4,0,0,.01.05.01.05,4.74,16.19,4.39,34.18-2.52,49.72-15.57,35.05-62.25,48.31-97.19,52.7-7.7.89-15.44,1.4-23.17,1.41-1.79-.06-1.92-2.56-.21-2.85h0Z"/>
    <path class="cls-1" d="m225.2,53.21c-4.9-10.92,19.85-10.8,17.31-20.85-1.85-7.31-31.78-19.35-52.45,1.84,0,0-.6-5.81-.19-13.49.49-9.2-.7-16.74-4.65-17.73-7.99-2.01-20.6,14.97-46.98,31.69-10.2,6.47-29.96,16.09-39.16,19.31l71.6,45.46,54.53-46.23Z"/>
    <g class="cls-5">
      <path class="cls-1" d="m239.83,38.6c-7.44-6.87-32.4-13.54-50.37,4.87,0,0-.6-5.81-.19-13.49.49-9.2-.71-16.74-4.65-17.73-8-2.01-20.61,14.97-46.99,31.69-7.48,4.74-20.1,11.18-29.92,15.54l-8.66-5.5c9.2-3.23,28.96-12.85,39.16-19.31C164.61,17.95,177.21.96,185.21,2.97c3.95,1,5.15,8.53,4.65,17.73-.41,7.68.19,13.49.19,13.49,20.67-21.19,50.61-9.15,52.45-1.84.67,2.67-.57,4.61-2.67,6.25Z"/>
    </g>
    <path class="cls-10" d="m223.89,53.8c-3.83-5.92,1.94-10.76,6.82-13.28,0,0,2.48-1.31,2.48-1.31,1.6-.86,3.18-1.66,4.42-2.58.96-.69,1.86-1.51,2.06-2.5.11-.24-.06-.96-.12-1.09-.92-1.59-2.9-2.82-4.75-3.81-7.6-3.8-16.7-4.68-24.95-2.86-6.76,1.5-12.89,5.02-17.83,9.89-1.61,1.69-4.67.53-4.81-1.77-.56-5.76-.3-11.33-.1-17.05.02-2.65-.12-5.32-.62-7.71-.36-1.52-.73-2.95-1.69-3.83-.2-.15-.33-.16-.57-.2-1.82-.18-4.12,1.17-5.84,2.27-6.77,4.6-12.91,10.34-19.48,15.42-4.42,3.5-8.96,6.88-13.64,10.06-9.31,6.42-19.43,11.64-29.61,16.51-5.16,2.43-10.25,4.76-15.66,6.72-3.5,1.16-5.48-3.97-1.91-5.38,2.52-.89,5.07-1.95,7.59-3.06,17.72-7.73,34.66-17.08,49.69-29.34,4.35-3.43,8.58-7.01,12.97-10.56,4.75-3.54,10.82-9.44,17.42-8.16,7.92,2.14,7.12,15.25,6.9,21.59-.17,3.99-.12,8.21.22,12.13,0,0-4.88-1.7-4.88-1.7h0c10.77-12.01,28.92-16.14,44.09-10.86,5.89,2.11,14.79,6.2,13.42,13.91-1.56,6.59-9.57,8.54-14.71,11.27-2.76,1.4-5.18,2.87-4.31,6.1.43,1.58-1.71,2.55-2.6,1.17h0Z"/>
    <path class="cls-8" d="m116.23,216.71c10.14-3.94,28.13-9.52,29.26-28.02,1.31-21.45-13.72-38.67-31.86-40.04-17.35-1.31-37.84,5.41-53.99,29.53-8.87,13.25-14.2,34.02-1.95,42.39,15.79,10.79,50.48-.74,58.53-3.87Z"/>
    <g>
      <path class="cls-10" d="m185.01,199.19c0,3.66-4.78,6.88-9.16,9.07-4.58,2.29-9.71,2.29-14.29-.01-4.38-2.2-9.14-5.43-9.14-9.09.01-11.03,32.6-11,32.59.03Z"/>
      <g class="cls-2">
        <path class="cls-1" d="m175.18,197.02c0,1.05-1.89,1.98-3.63,2.62-1.82.66-3.85.66-5.67,0-1.74-.63-3.63-1.57-3.62-2.62,0-3.18,12.92-3.17,12.92.01Z"/>
      </g>
    </g>
    <path class="cls-8" d="m94.88,112.91c-1.21-2.5,12.96-22.88,25.27-20.99,7.02,1.08,9.42,10.87,4.06,14.15-4.4,2.7-27.24,11.15-29.33,6.84Z"/>
    <path class="cls-8" d="m242.38,112.91c1.21-2.5-12.96-22.88-25.27-20.99-7.02,1.08-9.42,10.87-4.06,14.15,4.4,2.7,27.24,11.15,29.33,6.84Z"/>
    <g>
      <g>
        <path class="cls-10" d="m88.48,208.19c4.77,8.66,14.75,4.31,26.22-.45,11.46-4.75,18-6.2,17.64-14.08-.46-10.06-15.03-18.24-29.62-13.89-14.77,4.4-19.42,19.02-14.24,28.42Z"/>
        <path class="cls-10" d="m96.8,215.25c-4.17,0-7.75-1.59-10.19-6.03-2.81-5.09-3.05-11.62-.66-17.46,2.78-6.77,8.52-11.76,16.17-14.04,8.62-2.57,18.16-1.18,24.92,3.62,4.59,3.26,7.23,7.6,7.44,12.22.38,8.4-5.69,10.83-14.88,14.5-1.28.51-2.64,1.06-4.08,1.65l-.67.28c-6.27,2.6-12.67,5.25-18.05,5.25Zm14.1-34.53c-2.53,0-5.09.36-7.56,1.1-6.39,1.9-11.15,6.01-13.43,11.56-1.91,4.65-1.74,9.8.45,13.77h0c3.57,6.48,11.01,3.8,22.86-1.11l.67-.28c1.46-.6,2.84-1.15,4.13-1.67,9.24-3.69,12.42-5.23,12.19-10.33-.15-3.28-2.15-6.45-5.65-8.93-3.79-2.7-8.65-4.11-13.66-4.11Z"/>
      </g>
      <ellipse class="cls-1" cx="118.49" cy="192.96" rx="7.01" ry="7.35" transform="translate(-19.87 13.71) rotate(-6.11)"/>
      <ellipse class="cls-1" cx="99.35" cy="195.01" rx="4.59" ry="4.82" transform="translate(-20.19 11.68) rotate(-6.11)"/>
    </g>
    <path class="cls-4" d="m111.07,208.54s-10.85,38.49-8.3,80.1c-4.91,3.08-20.61-1.31-23.66-5.85-2.95-4.39-5.29-48.36,12.32-72.43,4.64-6.35,18.19-4.47,19.64-1.82Z"/>
    <path class="cls-4" d="m102.77,288.63c-4.92,3.08-20.61-1.32-23.65-5.85-1.2-1.79-2.3-10.16-1.99-21.08.45-15.86,3.88-37.09,14.3-51.35,4.64-6.34,18.19-4.47,19.64-1.81,0,0-6.71,23.78-8.34,54.17-.44,8.27-.5,17.03.04,25.93Z"/>
    <path class="cls-9" d="m98.6,285.64c-.22.02-.46.02-.71.02-6.35,0-14.06-3.31-15.4-5.02-.45-1.06-1.45-10.38-1.05-17,4.45,1.61,10.55,2.69,17.28.64-.69,5.68-.35,16.26-.12,21.37Z"/>
    <path class="cls-9" d="m98.6,285.64c-.22.02-.46.02-.71.02-6.35,0-14.06-3.31-15.4-5.02-.45-1.06-1.45-10.38-1.05-17,4.45,1.61,10.55,2.69,17.28.64-.69,5.68-.35,16.26-.12,21.37Z"/>
    <path class="cls-7" d="m97.87,291.76c-7.49,0-17.84-3.77-20.53-7.79-3.86-5.74-5.23-50.83,12.36-74.89,2.65-3.62,8.03-5.53,14.39-5.1,1.69.11,7.32.7,8.86,3.53.27.49.33,1.06.18,1.6-.11.38-10.73,38.65-8.22,79.38.05.78-.34,1.53-1,1.94-1.47.92-3.6,1.32-6.03,1.32Zm4.55-83.56c-.43,0-.87.01-1.32.04-2.15.14-6.04.76-7.94,3.36-7.15,9.77-11.92,24.81-13.45,42.35-1.3,14.92.24,26.13,1.18,27.63,2.16,3.21,14.64,7.06,19.66,5.68-1.97-36.61,6.27-70.89,8.11-77.98-1.11-.51-3.43-1.08-6.23-1.08Zm6.84,1.47h0,0Z"/>
    <path class="cls-8" d="m220.93,216.71c-10.14-3.94-28.13-9.52-29.26-28.02-1.31-21.45,13.72-38.67,31.86-40.04,17.35-1.31,37.84,5.41,53.99,29.53,8.87,13.25,14.2,34.02,1.95,42.39-15.79,10.79-50.48-.74-58.53-3.87Z"/>
    <path class="cls-10" d="m190.44,232.31c-.81,0-1.58-.46-1.94-1.24-.1-.22-2.41-5-7.45-5.03h-.04c-2.03,0-3.62,1-5.45,2.16-1.94,1.23-4.13,2.62-6.97,2.62s-5.04-1.39-6.97-2.62c-1.83-1.16-3.42-2.16-5.45-2.16h-.04c-5.12.03-7.43,4.97-7.45,5.02-.49,1.08-1.76,1.55-2.83,1.06-1.08-.49-1.55-1.76-1.06-2.83.14-.31,3.5-7.48,11.32-7.52h.06c3.27,0,5.64,1.5,7.74,2.83,1.66,1.05,3.09,1.95,4.69,1.95s3.03-.9,4.69-1.95c2.09-1.33,4.47-2.83,7.74-2.83h.06c7.83.04,11.18,7.22,11.32,7.52.49,1.08.01,2.34-1.06,2.83-.29.13-.59.19-.89.19Z"/>
    <path class="cls-10" d="m171.56,209.63s-.91,1.2-1.28,2.63c-.55,2.14-.74,4.81-1.56,4.81s-1.01-2.67-1.56-4.81c-.37-1.43-1.27-2.63-1.27-2.63l2.83-2.19,2.84,2.19Z"/>
    <path class="cls-1" d="m94.45,217.1c-3.17,4.76-6.9,15.23-1.96,16.58,5.52,1.51,6.52-8.46,7.33-17.55.66-7.41-2.87-2.78-5.37.97Z"/>
    <path class="cls-1" d="m89.79,239.65c-2.61,3.42-1.71,7.92,1.14,8.41,3.68.63,5.12-2.51,4.65-6-.64-4.69-3.89-4.91-5.8-2.42Z"/>
    <g>
      <g>
        <path class="cls-10" d="m248.94,208.19c-4.77,8.66-14.75,4.31-26.22-.45-11.46-4.75-18-6.2-17.64-14.08.46-10.06,15.03-18.24,29.62-13.89,14.77,4.4,19.42,19.02,14.24,28.42Z"/>
        <path class="cls-10" d="m240.62,215.25c-5.39,0-11.78-2.65-18.05-5.25l-.67-.28c-1.44-.6-2.8-1.14-4.08-1.65-9.19-3.67-15.26-6.1-14.88-14.5.21-4.62,2.85-8.96,7.44-12.22,6.76-4.8,16.31-6.19,24.92-3.62,7.65,2.28,13.39,7.27,16.17,14.04,2.39,5.84,2.14,12.37-.66,17.46h0c-2.44,4.44-6.02,6.03-10.19,6.03Zm-14.1-34.53c-5,0-9.86,1.41-13.66,4.11-3.49,2.48-5.5,5.65-5.65,8.93-.23,5.1,2.95,6.64,12.19,10.33,1.3.52,2.67,1.07,4.13,1.67l.67.28c11.84,4.91,19.29,7.59,22.86,1.11,2.19-3.97,2.36-9.12.45-13.77-2.27-5.55-7.04-9.66-13.43-11.56-2.48-.74-5.04-1.1-7.56-1.1Zm22.42,27.47h0,0Z"/>
      </g>
      <ellipse class="cls-1" cx="218.93" cy="192.96" rx="7.35" ry="7.01" transform="translate(3.76 390.11) rotate(-83.89)"/>
      <ellipse class="cls-1" cx="238.07" cy="195.01" rx="4.82" ry="4.59" transform="translate(18.83 410.97) rotate(-83.89)"/>
    </g>
    <g>
      <path class="cls-8" d="m92.65,336.4s6.18,54.65,30.91,79.17c9.27,9.19,20.78,9.67,28.28,5.42,11.26-6.39,9.52-22.08,7.89-30.41-4.3-21.98-15.67-48.1-21.16-65.63"/>
      <g class="cls-11">
        <path d="m97.45,341.29s14.74,60.75,33.22,71.86c13.25,7.96,27.42,1.48,25.9-12.82,0,0-4.77,16.27-21.95,8.77-17.61-7.69-37.18-67.81-37.18-67.81Z"/>
      </g>
      <path class="cls-10" d="m93.71,336.28c3.66,17.72,8.31,35.37,15.63,51.93,6.93,15.19,20.85,39.35,40.58,30.13,13.05-7.3,6.56-28.84,3.59-40.58-3.65-13.1-8.46-26.02-12.4-39.12-1.34-4.4-2.59-8.84-3.56-13.37-.12-.58.24-1.15.82-1.28.51-.11,1.02.17,1.22.64,3.55,8.42,7.19,16.81,10.55,25.35,3.39,8.57,6.47,17.27,9.1,26.13,4.35,15.18,10.68,38.15-6.26,47.93-7,3.78-15.78,3.45-22.76.08-20.73-10.46-32.01-45.55-36.03-66.98-1.25-6.84-2.25-13.67-2.62-20.63-.04-1.3,1.87-1.57,2.13-.24h0Z"/>
      <path class="cls-10" d="m149.91,400.32c3.61,6.07,6.59,13,6.34,20.22,0,0-5.58-1.2-5.58-1.2.11-.18.21-.63.29-.89,1.38-5.94.51-12.28-1.05-18.13h0Z"/>
      <path class="cls-10" d="m133.63,405.86c2.46,5.76,6.11,11.38,11.51,14.68.24.13.65.38.85.42,0,0-2.96,4.87-2.96,4.87-5.74-5.01-8.39-12.64-9.4-19.97h0Z"/>
    </g>
    <g>
      <path class="cls-8" d="m244.77,336.4s-6.18,54.65-30.91,79.17c-9.27,9.19-20.78,9.67-28.28,5.42-11.26-6.39-9.52-22.08-7.89-30.41,4.3-21.98,15.67-48.1,21.16-65.63"/>
      <g class="cls-11">
        <path d="m239.97,341.29s-14.74,60.75-33.22,71.86c-13.25,7.96-27.42,1.48-25.9-12.82,0,0,4.77,16.27,21.95,8.77,17.61-7.69,37.18-67.81,37.18-67.81Z"/>
      </g>
      <path class="cls-10" d="m245.84,336.52c-1.97,26.54-9.65,57.42-27,78.29-8.08,10.14-22.27,15.66-34.41,9.25-16.94-9.79-10.6-32.75-6.26-47.93,2.63-8.86,5.71-17.56,9.1-26.13,3.37-8.55,7-16.94,10.56-25.36.51-1.15,2.3-.65,2.04.64-.97,4.53-2.22,8.97-3.56,13.37-3.94,13.1-8.76,26.02-12.4,39.12-2.98,11.75-9.46,33.28,3.59,40.58,27.08,12.45,44.15-36.12,49.74-55.58,2.52-8.7,4.69-17.57,6.48-26.48.21-1.25,2.19-1.12,2.13.24h0Z"/>
      <path class="cls-10" d="m187.51,400.32c-1.56,5.86-2.43,12.19-1.05,18.13.08.26.18.71.29.89,0,0-5.58,1.2-5.58,1.2-.26-7.22,2.73-14.14,6.34-20.22h0Z"/>
      <path class="cls-10" d="m203.78,405.86c-1.01,7.33-3.66,14.97-9.4,19.97,0,0-2.96-4.87-2.96-4.87.21-.04.61-.29.85-.42,5.41-3.3,9.06-8.92,11.51-14.68h0Z"/>
    </g>
    <path class="cls-4" d="m235.29,288.63c4.92,3.08,20.61-1.32,23.65-5.85,1.2-1.79,2.3-10.16,1.99-21.08-.45-15.86-3.88-37.09-14.3-51.35-4.64-6.34-18.19-4.47-19.64-1.81,0,0,6.71,23.78,8.34,54.17.44,8.27.5,17.03-.04,25.93Z"/>
    <path class="cls-9" d="m239.45,285.64c.22.02.46.02.71.02,6.35,0,14.06-3.31,15.4-5.02.45-1.06,1.45-10.38,1.05-17-4.45,1.61-10.55,2.69-17.28.64.69,5.68.35,16.26.12,21.37Z"/>
    <path class="cls-7" d="m240.19,291.76c-2.43,0-4.57-.4-6.03-1.32-.66-.42-1.05-1.16-1-1.94,2.5-40.74-8.12-79-8.22-79.38-.15-.54-.09-1.11.18-1.6,1.54-2.83,7.17-3.42,8.86-3.53,6.36-.42,11.74,1.48,14.39,5.1,17.6,24.06,16.22,69.15,12.37,74.89-2.7,4.01-13.05,7.79-20.53,7.79Zm-2.67-4.49c5.01,1.37,17.5-2.47,19.66-5.68.94-1.5,2.48-12.7,1.18-27.62-1.53-17.54-6.3-32.58-13.45-42.35-1.9-2.6-5.79-3.23-7.94-3.36-3.38-.22-6.28.45-7.56,1.04,1.84,7.09,10.08,41.37,8.11,77.98Zm-8.72-77.6h0Z"/>
    <path class="cls-1" d="m243.61,217.1c3.17,4.76,6.9,15.23,1.96,16.58-5.52,1.51-6.52-8.46-7.33-17.55-.66-7.41,2.87-2.78,5.37.97Z"/>
    <path class="cls-1" d="m248.27,239.65c2.61,3.42,1.71,7.92-1.14,8.41-3.68.63-5.12-2.51-4.65-6,.64-4.69,3.89-4.91,5.8-2.42Z"/>
    <g class="cls-11">
      <path d="m213.79,458.42c2.83-.62,5.46-1.27,7.85-1.9,0,0,18.07,5.36,34.05-22.89,2.29-4.05,4.15-7.7,5.62-10.96.94-4.16,1.61-7.55.81-9.03-1.79-3.32-10.29,10.31-44.33,17.91-5,9.58-6.67,18.99-4,26.88Z"/>
    </g>
    <path class="cls-10" d="m116.02,455.13c17.18,2.68,35.17,5.21,52.55,5.01,17.39.19,35.36-2.36,52.55-5.01,1.64-.25,2.34,2.12.73,2.76-28.27,10.39-64.43,10.77-93.62,3.98-4.39-1.07-8.72-2.36-12.94-3.98-1.56-.61-.96-3,.73-2.76h0Z"/>
    <path class="cls-10" d="m146.44,194.15c10.53-9.68,27.58-10.76,39.76-3.6,1.72,1.04,3.4,2.17,4.81,3.6-1.84-.76-3.66-1.44-5.52-2-12.77-4.23-26.72-3.27-39.05,2h0Z"/>
  </g>
</svg>