<?xml version="1.0" encoding="UTF-8"?>
<svg id="Layer_1" data-name="Layer 1" xmlns="http://www.w3.org/2000/svg" viewBox="0 0 375.64 500">
  <defs>
    <style>
      .cls-1 {
        fill: #5e5e68;
      }

      .cls-2 {
        fill: #fff;
      }

      .cls-3 {
        fill: #52bf2e;
      }

      .cls-4 {
        opacity: .5;
      }

      .cls-5 {
        fill: #469b19;
      }

      .cls-6 {
        opacity: .2;
      }

      .cls-7 {
        fill: #777782;
      }

      .cls-8 {
        fill: #686779;
      }

      .cls-9 {
        fill: #777882;
      }

      .cls-10 {
        fill: #b199c5;
      }

      .cls-11 {
        fill: #371a45;
      }

      .cls-12 {
        fill: #232333;
      }

      .cls-13 {
        opacity: .25;
      }
    </style>
  </defs>
  <g class="cls-6">
    <ellipse cx="198.88" cy="481.52" rx="124.58" ry="18.48"/>
  </g>
  <g>
    <g>
      <path class="cls-3" d="m166.03,295.65s24.59,8.14,17.17,30.77c0,0-2.47,22.12,3.7,33.28,5.5,9.94,11.69,21.87,4.57,32.43-8.9,13.19-38.54,31.01-77.46,33.21-40.28,2.27-56.43-15.45-52.59-27.95,3.84-12.5,5.68-21.21,2.06-29.34-3.62-8.13-17.73-25.6-.3-39.57,17.44-13.98,102.85-32.83,102.85-32.83Z"/>
      <path class="cls-3" d="m166.03,295.65s24.59,8.14,17.17,30.77c0,0-2.47,22.12,3.7,33.28,5.5,9.94,11.69,21.87,4.57,32.43-8.9,13.19-38.54,31.01-77.46,33.21-40.28,2.27-56.43-15.45-52.59-27.95,3.84-12.5,5.68-21.21,2.06-29.34-3.62-8.13-17.73-25.6-.3-39.57,17.44-13.98,102.85-32.83,102.85-32.83Z"/>
      <g class="cls-4">
        <path class="cls-2" d="m89.74,413.6c-8.9-.73-20.21-7.7-19.2-14.51,1.86-12.47,4.92-19.63-.54-32.03-6.13-13.93-4.18-19.9-1.11-17.5,3.06,2.39,7.63,6.28,20.19,11.25,12.3,4.87-2.11,10.51,1.18,28.71,2.57,14.22,8.4,24.81-.51,24.09Z"/>
      </g>
      <path class="cls-5" d="m160.1,305s20.98,6.95,14.65,26.25c0,0-2.11,18.87,3.16,28.39,4.69,8.48,9.98,18.66,3.9,27.67-7.59,11.25-32.88,26.46-66.08,28.33-34.37,1.94,25.03-12.16,15.54-39.96-7.05-20.66-73.79-30.75-58.91-42.67,14.87-11.92,87.75-28.01,87.75-28.01Z"/>
      <path class="cls-12" d="m106.99,428.28c-28.99,0-40.69-10.71-44.52-15.59-4-5.1-5.31-10.83-3.68-16.12,3.89-12.68,5.3-20.4,2.17-27.41-.51-1.14-1.27-2.54-2.16-4.16-4.86-8.88-13.91-25.41,2.65-38.68,17.73-14.21,100.47-32.59,103.98-33.37.48-.11.99-.08,1.46.08.27.09,6.78,2.28,12.38,7.5,5.31,4.95,10.75,13.54,6.64,26.45-.24,2.49-1.93,21.75,3.4,31.38,5.07,9.17,12.73,23.02,4.44,35.3-10.18,15.08-41.53,32.27-79.59,34.41-2.5.14-4.9.21-7.18.21Zm58.86-129.77c-8.59,1.93-85.08,19.39-100.95,32.11-11.97,9.59-7.43,20.49-1.27,31.75.94,1.72,1.76,3.21,2.36,4.56,4.2,9.42,1.73,19.31-1.94,31.26-1.08,3.52-.1,7.47,2.75,11.11,7.49,9.55,25.08,14.52,47.06,13.28,38.53-2.17,67.25-20.02,75.34-32,5.92-8.77,1.38-18.58-4.7-29.56-6.52-11.79-4.13-33.98-4.03-34.92.02-.19.06-.37.12-.55,5.88-17.95-11.01-25.6-14.75-27.05Z"/>
      <path class="cls-3" d="m150.87,236.11s9.89,28.67,18.25,33.95c8.17,5.16,15.98,13.97-.66,34.73-14.7,18.32-53.49,41.52-85.48,37.79-27.39-3.19-33.05-13.69-27.7-30.07,0,0,2.9-28.32-7.07-43.06-11.62-18.9-4.4-25.93,3.08-33.96,13.47-14.47,70.07-45.63,92.95-38.49,16.96,5.3,2.92,28.56,6.63,39.11Z"/>
      <path class="cls-5" d="m146.13,239.95s8.75,25.35,16.14,30.02c7.22,4.56,14.13,12.35-.59,30.71-9.88,12.32-32.06,27.12-54.56,32.07-7.1,1.56,11.05-23.48,5.18-46.8-3.88-15.4-30.23-16.91-43.38-22.79-10.17-4.55-9.44-11.47-6.17-11.88,72.74-9.12,65.97-49.94,77.93-49.62,12.16.33,2.18,28.96,5.45,38.29Z"/>
      <path class="cls-12" d="m89.99,345.72c-2.47,0-4.91-.13-7.32-.41-15.26-1.78-24.8-5.95-29.16-12.76-3.37-5.27-3.68-12.01-.93-20.59.26-2.92,2.15-27.98-6.64-40.97-.02-.03-.04-.07-.06-.1-12.46-20.26-4.64-28.64,2.92-36.74l.5-.53c13.97-15.01,71.7-46.76,95.78-39.24,13.2,4.12,10.94,17.03,9.12,27.41-.89,5.07-1.81,10.32-.72,13.42,0,0,0,0,0,.01,3.7,10.73,11.63,29.05,17.12,32.52,3.83,2.42,9.05,6.43,10.21,13.34,1.18,7.08-2.15,15.4-10.2,25.43-13.64,17.01-48.87,39.22-80.62,39.22Zm-39.46-77.77c10.37,15.41,7.62,43.64,7.49,44.83-.02.19-.06.39-.12.57-2.31,7.06-2.23,12.37.24,16.22,3.41,5.33,11.64,8.69,25.17,10.26,31.51,3.67,69.09-19.42,83.02-36.78,6.91-8.62,9.96-15.71,9.06-21.08-.61-3.66-2.99-6.62-7.72-9.6-8.91-5.63-18.32-32.31-19.38-35.37-1.56-4.45-.56-10.15.49-16.18,2.02-11.53,2.67-18.71-5.34-21.21-9.28-2.9-26.78,1.11-48.02,11.01-17.61,8.2-35.31,19.44-42.1,26.73l-.5.54c-7.26,7.78-12.51,13.41-2.28,30.06Z"/>
      <path class="cls-3" d="m92.6,359.95s9.76,16.89-2.18,19.51c-10.27,2.25-36.78-14.18-47.51-29.31-7.51-10.59-7.05-18.1.57-16.11,8.49,2.22,18.31,13.99,43.06,20.81"/>
      <path class="cls-3" d="m92.6,359.95s9.76,16.89-2.18,19.51c-10.27,2.25-36.78-14.18-47.51-29.31-7.51-10.59-7.05-18.1.57-16.11,8.49,2.22,18.31,13.99,43.06,20.81l6.06,5.11Z"/>
      <path class="cls-3" d="m92.6,359.95s9.76,16.89-2.18,19.51c-10.27,2.25-36.78-14.18-47.51-29.31-7.51-10.59-7.05-18.1.57-16.11,8.49,2.22,18.31,13.99,43.06,20.81l6.06,5.11Z"/>
      <path class="cls-5" d="m92.04,373.43c-.19.73-.56,1.54-2.51,1.96-3.01.66-10.52-1.44-20.51-7.61,21.82-1.77-21.22-17.66-26.6-29.72,2.53.66,5.64,2.67,9.58,5.2,7.17,4.62,16.94,10.91,32.55,15.34,0,0,9.83,8.96,7.49,14.82Z"/>
      <path class="cls-12" d="m93.5,359.43c3.24,4.78,6.31,11.3,3.98,17.11-1.99,4.72-8.06,5.91-12.52,4.96-14.56-3.04-30.68-14.77-40.59-25.69-2.15-2.47-4.12-5.14-5.78-8.01-1.73-3.11-3.24-6.16-3.4-9.95-.18-4.13,2.92-6.95,7.03-6.37,4.38.59,8.22,3.26,11.56,5.36,6.58,4.38,13.06,8.34,20.18,11.49,4.21,2,8.55,3.65,12.84,5.51,1.14.48.67,2.21-.56,2.02-6.34-.97-12.5-2.98-18.29-5.74-5.81-2.72-11.3-6.16-16.57-9.53-2.8-1.68-8.51-5.55-11.2-4.29-1.3,2.22,1.22,6.96,2.46,9.15,4.68,7.84,11.58,14.05,18.89,19.52,5.33,4.12,30.13,20.21,32.73,8.19.55-4.23-1.09-8.62-2.59-12.68-.5-1.15,1.09-2.05,1.82-1.05h0Z"/>
      <path class="cls-3" d="m40.19,347.07c.69,1.99-4.1,12.4-18.07,12.63-11.86.19-19.85-4.74-19.6-10.05.26-5.5,12.65-10.22,20.24-9.95,9.76.34,16.74,5.38,17.43,7.37Z"/>
      <g class="cls-4">
        <path class="cls-2" d="m10.97,350.45c.14,3.11,5.97,5.13,2.05,4.69-3.72-.42-6.26-3-6-5.19.27-2.29,4.52-4.91,6.65-4.7,2.21.21-2.84,2.23-2.7,5.2Z"/>
      </g>
      <path class="cls-5" d="m34.34,347.89c-.16,3.7-8.7,10.06-17.05,7.83,5.89-1.62,8.94-5.49,8.77-7.54-.09-1.07-2.49-3.15-8.82-4.19,5.13-2.29,17.22,1.16,17.1,3.9Z"/>
      <path class="cls-12" d="m21.46,362.22c-8.03,0-14.99-2.26-18.71-6.1-1.91-1.97-2.86-4.25-2.74-6.59.38-8.01,15.23-12.61,22.84-12.35,10.24.36,18.52,5.6,19.72,9.06h0c.9,2.57-1.37,6.11-2.08,7.13-1.82,2.6-7.24,8.66-18.33,8.84-.23,0-.47,0-.7,0Zm.59-20.02c-7.52,0-16.87,4.55-17.01,7.57-.06,1.16.69,2.18,1.33,2.84,2.22,2.3,7.52,4.69,15.71,4.57,10.89-.18,15.22-7.31,15.63-9.4-1.2-1.49-6.97-5.29-15.03-5.57-.21,0-.41-.01-.62-.01Zm15.81,5.8h0,0Z"/>
      <path class="cls-3" d="m53.23,317.97c1.66,7.78.82,16.65-4.37,16.74-5.17.09-12.85-7.17-13.79-19.54-.81-10.64,4.3-13.49,6.3-13.68,4.06-.38,9.21,4.08,11.86,16.48Z"/>
      <path class="cls-3" d="m51.34,317.97c1.29,6.04.63,12.93-3.39,13-4.01.07-9.98-5.57-10.71-15.18-.63-8.26,3.34-10.48,4.89-10.62,3.15-.29,7.15,3.17,9.21,12.8Z"/>
      <g class="cls-4">
        <path class="cls-2" d="m39.39,308.92c.43.62.42,3.4.57,5.38.63,8.35,4.21,13.12,3.88,13.7-.34.58-5.47-4.95-6.14-12.05-.4-4.21,1.26-7.65,1.69-7.03Z"/>
      </g>
      <path class="cls-5" d="m49.4,318.49c.77,3.53.8,10.58-.69,12.06-.68.67-2.1-.23-2.95-1.4,3.09-6.07-1.05-22.56-5.27-22.23,2.29-3.63,6.52,1.26,8.9,11.57Z"/>
      <path class="cls-12" d="m48.76,337.23c-7.05,0-15.2-8.73-16.2-21.87-.96-12.69,5.86-16.12,8.58-16.38,2.44-.23,10.7.44,14.56,18.46h0c1.23,5.74,1.42,13.28-1.72,17.23-1.3,1.63-3.05,2.52-5.06,2.55-.05,0-.1,0-.15,0Zm-6.91-33.24c-.08,0-.17,0-.25.01-1.02.09-4.69,2.24-4.02,10.98.86,11.36,7.71,17.21,11.19,17.21.02,0,.04,0,.05,0,.36,0,.76-.09,1.21-.65,1.61-2.03,1.92-7.51.74-13.05h0c-2.15-10.05-6.07-14.51-8.92-14.51Z"/>
      <g class="cls-4">
        <path class="cls-2" d="m82.93,332.29c-5.33,2.6-25.31-1.56-21.69-13.1,3.69-11.79,2.38-25.29.52-35.08-1.58-8.3-7.45-18.02-5.87-19.87,1.58-1.85,7.09,7.47,21.25,12.49,13.84,4.91,2.07,16.02,1.59,28.95-.56,14.87,12.29,22.68,4.22,26.61Z"/>
      </g>
      <path class="cls-5" d="m53.87,245.58s51.5.49,75.32-41.13c0,0-22.08,2.97-42.51,14.95-9.02,5.29-.87,8.39-2.94,14.3-3.14,8.96-29.87,11.88-29.87,11.88Z"/>
      <path class="cls-12" d="m53.87,245.58c23.41-4.12,46.56-12.36,64.08-28.83,4.08-3.82,7.67-7.93,11.24-12.31-1.41,3.52-3.12,6.94-5.23,10.1-14.7,22.37-43.91,33.9-70.09,31.03h0Z"/>
    </g>
    <path class="cls-9" d="m236.03,251.94l1.51,20.34,2.49,33.66.09,1.25c49.27-1.7,91.01-16.03,115.57-42.8,3.91-4.26,7.38-8.84,10.39-13.73,1.37-2.24,2.53-4.5,3.47-6.76,12.4-29.62-11.53-58.13-42.83-31.08-2.99,2.58-6.1,5.11-9.33,7.55-12.16,9.22-26.07,17.35-41.73,23.1-12.16,4.46-25.37,7.49-39.62,8.47Z"/>
    <path class="cls-7" d="m275.92,243.38c-10.7,11.17-24.2,18.42-38.83,22.86l-1.07-14.31c14.26-.98,27.47-4,39.63-8.46.09-.03.17-.06.26-.1Z"/>
    <g class="cls-13">
      <path d="m275.92,243.38c-10.7,11.17-24.2,18.42-38.83,22.86l-1.07-14.31c14.26-.98,27.47-4,39.63-8.46.09-.03.17-.06.26-.1Z"/>
    </g>
    <path class="cls-1" d="m178.22,263.79l-4.12,7.63c-13.14-1.14-25.23-3.35-34.96-5.79,7-3.89,15.52-7.3,25.9-9.65l13.18,7.81Z"/>
    <path class="cls-1" d="m256.37,258.24c-33.5,18.37-79.1,15.5-109.23,9.23-2.01-13.93-1.41-44.43,42.34-44.43,40.04,0,59.12,22.18,66.89,35.21Z"/>
    <g class="cls-13">
      <path d="m240.03,305.94l.09,1.25c49.27-1.7,91.01-16.03,115.57-42.8,3.91-4.26,7.38-8.84,10.39-13.73,1.37-2.24,2.53-4.5,3.47-6.76-.32.43-46.83,55.22-106.68,37.51-10.18,11.13-17.41,17.54-22.84,24.53Z"/>
    </g>
    <circle class="cls-2" cx="343.81" cy="236.81" r="11.56"/>
    <circle class="cls-2" cx="339.82" cy="218.51" r="4.4"/>
    <circle class="cls-2" cx="361.81" cy="231.68" r="4.4"/>
    <circle class="cls-2" cx="353.41" cy="220.04" r="5.55" transform="translate(-62.87 214.87) rotate(-31.2)"/>
    <path class="cls-12" d="m240.13,309.95c-1.48,0-2.7-1.17-2.75-2.65-.05-1.52,1.14-2.79,2.65-2.84,59.17-2.04,103.11-21.65,123.71-55.23,10.26-16.72,6.94-33.27-1.39-40.35-8.48-7.2-21.13-4.95-33.84,6.03-27.89,24.11-58.95,37.49-92.3,39.78-1.51.11-2.83-1.04-2.93-2.56-.1-1.52,1.04-2.83,2.56-2.93,32.13-2.2,62.1-15.14,89.08-38.45,14.94-12.91,30.27-15.18,41-6.07,5.59,4.75,9,12.04,9.62,20.55.65,8.94-1.81,18.23-7.11,26.86-10.96,17.86-28.12,31.99-51.01,41.97-21.81,9.52-47.79,14.86-77.2,15.87-.03,0-.06,0-.1,0Z"/>
    <path class="cls-8" d="m203.57,349.45c.48,18.26,1.92,29.23,2.45,41.38,1.48,20.91-3.52,67.68-.57,83.31,1.34,7.12,9.25,12.12,40.63,12.12,15.42,0,23.31.63,26.01-10.27,3.13-12.66-10.12-18.27-10.12-18.27,0,0,16.17-49.92,19.52-89.91"/>
    <path class="cls-8" d="m279.34,385.45c-5.51,35.64-17.37,72.27-17.37,72.27,0,0,9.77,4.14,10.55,13.32.13,1.51.01,3.16-.43,4.95-2.69,10.89-10.58,10.27-26.01,10.27-31.38,0-39.29-5-40.63-12.12-2.95-15.63,2.05-62.41.57-83.31-.54-12.1-1.96-23.03-2.45-41.14,0-.08,0-.16,0-.24h0l77.91,18.35c-.48,5.73-1.23,11.67-2.15,17.64Z"/>
    <path class="cls-9" d="m279.34,385.45c-5.51,35.64-17.37,72.27-17.37,72.27,0,0,9.77,4.14,10.55,13.32.13,1.51.01,3.16-.43,4.95-2.69,10.89-10.58,10.27-26.01,10.27-31.38,0-39.29-5-40.63-12.12-2.95-15.63,2.05-62.41.57-83.31-.54-12.1-1.96-23.03-2.45-41.14,0-.08,0-.16,0-.24h0l77.91,18.35c-.48,5.73-1.23,11.67-2.15,17.64Z"/>
    <path class="cls-7" d="m157.61,388.87s-6.73,25.95-30.09,22.09c-20.82-3.44-27.31-27.67-16.11-39.83,13.12-14.24,37.63-13.39,46.2,17.74Z"/>
    <path class="cls-9" d="m157.61,388.87s-6.74,25.95-30.09,22.09c-12-1.98-19.24-10.87-21.08-20.37-1.35-6.98.22-14.31,4.96-19.45,8.49-9.22,21.76-12.11,32.39-4.55,5.78,4.1,10.79,11.32,13.81,22.29Z"/>
    <g class="cls-13">
      <path d="m157.61,388.87s-6.74,25.95-30.09,22.09c-12-1.98-19.24-10.87-21.08-20.37,3.64,5.88,10.39,13.45,19.75,9.94,13.64-5.11-3.04-22.66,17.6-33.94,5.78,4.1,10.79,11.32,13.81,22.29Z"/>
    </g>
    <path class="cls-12" d="m132.17,413.87c-1.6,0-3.28-.14-5.05-.43-10.45-1.73-18.71-8.64-22.1-18.5-3.18-9.24-1.44-19.02,4.55-25.52,7.2-7.81,17.48-11.26,26.83-8.99,11.06,2.68,19.46,12.54,23.65,27.77.12.43.12.87,0,1.3-.07.26-6.59,24.37-27.88,24.37Zm-1.57-49.09c-6.23,0-12.56,2.88-17.33,8.05-4.73,5.14-6.07,12.98-3.49,20.47,2.78,8.08,9.57,13.75,18.16,15.17,19.17,3.17,25.9-15.79,27.06-19.61-3.73-13-10.74-21.35-19.79-23.54-1.51-.37-3.06-.55-4.61-.55Z"/>
    <g class="cls-13">
      <path d="m218.14,424.25c-3.58,6.17-11.85,47.35,6.84,50.88,25.43,4.81,41.9.52,47.54-4.1.13,1.51.01,3.16-.43,4.95-2.69,10.89-10.58,10.27-26.01,10.27-31.38,0-39.29-5-40.63-12.12-2.95-15.63,2.05-62.41.57-83.31-.54-12.1-1.96-23.03-2.45-41.14v-.24l77.91,18.35c-.48,5.73-1.23,11.67-2.15,17.64-16.45,29.25-54.06,26.47-61.2,38.81Z"/>
    </g>
    <path class="cls-12" d="m206.32,349.38c.26,13.91,1.77,27.86,2.48,41.78.72,14.08-.29,28.17-.81,42.18-.39,13.25-1.56,26.46.05,39.58.26,2.23,1.27,4.02,3.29,5.37,9.44,6.15,34.59,5.29,46.34,5.07,6.14-.32,10.38-1.63,11.76-8.08,1.84-6.55-2.78-12.38-8.53-15.03-1.32-.57-1.97-2.04-1.54-3.38,2.29-7.24,4.41-14.62,6.4-21.99,3.29-11.98,6-24.09,8.44-36.27,1.34-6.36,2.84-13.24,3.97-19.63.73-3.77,1.28-7.56,1.96-11.35.26-1.55,2.74-1.51,2.73.29-.14,7.62-.85,15.58-1.87,23.15-.96,7.68-2.55,15.25-4.33,22.77-3.47,15.08-7.42,29.94-12.07,44.72,0,0-1.54-3.38-1.54-3.38.41.18.67.31.98.47,6.91,3.45,12.46,10.88,11.12,18.92-.61,4.11-2.23,8.34-5.7,10.94-5.46,3.9-12.39,3.33-18.6,3.49-6.87-.03-14.34.02-21.19-.6-9.35-.99-24.53-2.21-26.89-13.66-.81-4.47-.93-9.05-1-13.55-.11-18.74,1.43-37.32,1.74-55.96.38-18.67-2.41-37.04-2.69-55.72,0-3.58,5.27-3.84,5.5-.14h0Z"/>
    <path class="cls-12" d="m232.37,456.68c7.24-2.39,15.04-3.34,22.67-2.78,2.61.16,5.21.64,7.81,1.21,3.54.89,2.41,6.07-1.18,5.4-2.4-.88-4.75-1.96-7.3-2.55-1-.3-2.5-.59-3.53-.82-6.07-1.1-12.32-1.34-18.45-.47h0Z"/>
    <path class="cls-2" d="m142.68,384.55s25.95,23.96,60.89,23.96c14.97,0,27.2-1.97,36.29-4.22,21.64-5.36,38.55-22.58,42.82-44.46.11-.56.21-1.12.31-1.68,1.52-8.87,1.48-18.49.22-28.71-1.45-11.72-6.41-27.44-13.42-43.49-2.69-6.17-5.69-12.38-8.9-18.45,0,0-24.85-47.08-71.39-42.32-26.64,2.73-40.91,49.08-40.91,49.08-2.39,5.42-4.46,12-6.13,19.29-.24,1.04-.47,2.1-.7,3.17-5.93,28.21-6.36,65.59.95,87.83Z"/>
    <g class="cls-13">
      <path d="m142.68,384.55s25.95,23.96,60.89,23.96c14.97,0,27.2-1.97,36.29-4.22,21.64-5.36,38.55-22.58,42.82-44.46.11-.56.21-1.12.31-1.68,0,0-17.65,38.08-68.35,32.03-47.22-5.64-55.51-26.17-57.02-41.02-1.51-14.84,9.35-50.33,3.74-56.3-3.72-3.96-10.94-2.74-18.92.69-.24,1.04-.47,2.1-.7,3.17-5.93,28.21-6.36,65.59.95,87.83Z"/>
    </g>
    <g class="cls-13">
      <path class="cls-11" d="m244.09,403.17c-.23.06-.45.12-.68.19-.06.02-.12.03-.17.05-9.21,2.56-22.39,5.04-38.99,5.11h-.68c-34.93,0-60.88-23.96-60.88-23.96-3.48-10.57-5.2-24.55-5.42-39.35-.25-16.35,1.35-33.68,4.46-48.49.23-1.07.46-2.12.7-3.16,7.98-3.44,15.2-4.65,18.92-.69,5.62,5.97-5.24,41.46-3.74,56.3.25,2.5.7,5.16,1.49,7.89,3.92,13.45,16.26,28.44,55.54,33.13,2.24.27,4.42.45,6.53.55l22.93,12.44Z"/>
    </g>
    <path class="cls-7" d="m141.73,293.27c53.27,23.4,120.23,6.29,128.04-7.32-2.69-6.17-5.69-12.38-8.9-18.45,0,0-14.69-44.48-71.39-44.48s-40.92,51.23-40.92,51.23c-2.74,6.19-5.04,10.46-6.84,19.01Z"/>
    <path class="cls-9" d="m141.73,293.27c53.27,23.4,120.23,6.29,128.04-7.32-2.69-6.17-5.69-12.38-8.9-18.45,0,0-14.69-44.48-71.39-44.48s-40.92,51.23-40.92,51.23c-2.74,6.19-5.04,10.46-6.84,19.01Z"/>
    <g class="cls-13">
      <path d="m256.37,258.24c-33.5,18.37-79.1,15.5-109.23,9.23-2.01-13.93-1.41-44.43,42.34-44.43,40.04,0,59.12,22.18,66.89,35.21Z"/>
    </g>
    <path class="cls-12" d="m149.82,274.82c-9.76,30.95-14,77.69-4.53,108.86.5,1.46-.3,3.05-1.77,3.51-1.45.46-2.99-.34-3.45-1.79-2.94-9.26-4.27-18.74-5.01-28.2-1.44-24.71-.31-50.14,7.98-73.67.73-1.89,1.8-4.8,2.73-6.61.5-1.08,1.02-2.16,1.55-3.22.33-.68,1.16-.96,1.84-.63.65.32.93,1.09.67,1.74h0Z"/>
    <path class="cls-12" d="m264.25,393.09c22.88-27.23,18.99-62.32,7.85-93.77-3.72-10.51-7.79-20.9-11.24-31.82.9,1.12,1.75,2.27,2.6,3.42,9.07,12.89,15.08,27.59,19.67,42.62,7.84,26.75,6.46,62.57-18.88,79.54h0Z"/>
    <path class="cls-12" d="m239.88,464.56c7.77,3.09,10.5,14.75,4.45,20.84-2.25,2.29-5.4,3.9-8.75,3.33-1.44-.27-2.38-1.66-2.11-3.1.53-2.32,2.73-2.1,4.61-3.11,7.36-3.3,7.02-12.68,1.79-17.95h0Z"/>
    <path class="cls-12" d="m257.07,464c6.06,3.7,9.54,14.01,5.77,20.38-1.55,2.67-4.57,4.82-7.87,4.59-1.51-.11-2.64-1.42-2.53-2.93.08-1.34,1.11-2.22,2.29-2.56,1.3-.48,2.41-1.2,3.38-2.32,3.92-4.22,2.26-12.8-1.04-17.15h0Z"/>
    <path class="cls-2" d="m137.26,345.2c-.91,19.01-1.13,79,.18,110.11.38,9.04-.59,14.2,1.22,19.39,3.53,10.07,13.08,12.26,40.93,11.42,14.86-.45,19.32-6.46,20.6-11.58,2.07-8.28-2.35-16.41-2.35-16.41,0,0,5.63-49.78,6.59-50.02,1.51-.38,18.81.62,39.68-4.93l-106.85-57.98Z"/>
    <path class="cls-2" d="m244.11,403.18c-11.14,2.96-21.26,4.06-28.51,4.49-6.34.38-10.47.26-11.17.44-.95.24-6.58,50.02-6.58,50.02,0,0,4.41,8.13,2.35,16.4-1.28,5.12-5.75,11.13-20.6,11.58-27.86.84-37.4-1.35-40.94-11.42-1.81-5.18-.84-10.35-1.22-19.39-.91-21.5-1.08-56.8-.8-82.84.12-11.63.34-21.41.62-27.28l106.85,57.98Z"/>
    <g class="cls-13">
      <path d="m244.1,403.18c-.23.06-.47.12-.69.18-.06.02-.12.03-.17.05-10.79,2.79-20.58,3.84-27.64,4.27-6.33.38-10.47.25-11.17.43-.05.01-.11.15-.18.41h-.68c-34.93,0-60.88-23.96-60.88-23.96-3.48-10.57-5.2-24.55-5.42-39.35l39.73-20.57c3.92,13.45-15.46,60.96,44.17,66.1l22.93,12.44h.01Z"/>
    </g>
    <path class="cls-7" d="m215.6,407.67c-6.34.38-10.47.26-11.17.44-.95.24-6.58,50.02-6.58,50.02,0,0,4.41,8.13,2.35,16.4-1.28,5.12-5.75,11.13-20.6,11.58-27.86.84-37.4-1.35-40.94-11.42-1.81-5.18-.84-10.35-1.22-19.39-.91-21.5-1.08-56.8-.8-82.84,5.57,7.34,24.37,26.82,70.32,33.02,3.27.44,6.13,1.18,8.64,2.19Z"/>
    <path class="cls-9" d="m215.6,407.67c-6.33.38-10.47.25-11.17.43-.23.06-.76,3.13-1.4,7.73-1.99,14.04-5.18,42.29-5.18,42.29,0,0,4.41,8.13,2.35,16.41-1.29,5.11-5.75,11.13-20.6,11.58-27.86.84-37.4-1.35-40.94-11.42-1.81-5.18-.84-10.35-1.22-19.39-.64-15.13-.91-37.1-.92-57.86,0-8.74.04-17.26.12-24.97,5.57,7.33,24.36,26.82,70.32,33.02,3.27.43,6.13,1.18,8.64,2.19Z"/>
    <g class="cls-13">
      <path d="m215.6,407.67c-6.33.38-10.47.25-11.17.43-.23.06-.76,3.13-1.4,7.73-37.31,3.26-57.15-9.18-66.51-18.4,0-8.74.04-17.26.12-24.97,5.57,7.33,24.36,26.82,70.32,33.02,3.27.43,6.13,1.18,8.64,2.19Z"/>
    </g>
    <g class="cls-13">
      <path d="m138.67,474.7c3.52,10.07,13.07,12.25,40.93,11.41,14.85-.45,19.32-6.46,20.6-11.58.81-3.25.63-6.47.1-9.18-.03.14-.06.29-.1.43-1.28,5.12-5.75,11.13-20.6,11.58-27.86.84-37.41-1.34-40.93-11.41-.79-2.26-1.05-4.51-1.12-7.08,0,0,0,0-.01,0,.08,6.91-.42,11.36,1.14,15.82Z"/>
    </g>
    <path class="cls-12" d="m140,345.33c-1.16,37.23-1,74.7.25,111.92.4,6.99-1.48,15.39,3.57,20.92,2.42,2.58,6.49,3.79,10.7,4.46,4.24.65,8.7.83,13.15.89,4.36.04,9.02-.03,13.39-.22,6.79-.43,14.61-2.25,16.45-9.36,1.15-4.6.14-9.59-1.79-13.89-.37-.73-.74-1.43-.61-2.23,1.55-13.33,3.66-31.93,5.58-45.05.31-1.84.48-3.52,1.03-5.37.1-.29.28-.68.53-.98.32-.47,1.1-.91,1.56-.99,0,0,.24-.05.24-.05l.24-.04c2.02-.21,4.21-.15,6.16-.31,11.26-.18,22.36-.27,33.65-1.85-10.57,4.23-22.04,7.11-33.47,7.59-1.57,0-4.1-.02-5.56.03-.03,0-.1,0-.13,0,0,0,.06,0,.06,0,.82-.17,1.61-.81,1.89-1.56-2.58,14.61-4.47,34.28-6.33,49.2,0,0-.32-1.62-.32-1.62.35.62.56,1.18.84,1.78,2.64,6.39,3.65,14.16.23,20.5-4.66,8.2-14.91,9.71-23.43,9.81-8.12.16-16.09.35-24.24-.85-6.19-.87-13.11-3.4-16.24-9.4-3.69-6.6-2.4-14.2-2.67-21.29-.74-19.29-.95-38.56-.98-57.82.02-18.19.03-36.28.74-54.49.26-3.59,5.55-3.45,5.49.26h0Z"/>
    <path class="cls-12" d="m147.59,458.45c2.75-2.76,6.54-4.34,10.25-5.38,11.18-2.97,24.1-1.14,33.23,6.2-7.3-1.84-14.33-3.25-21.76-3.41-7.34-.13-14.61.26-21.72,2.6h0Z"/>
    <path class="cls-12" d="m182.51,463.74c3.51,5.38,5.33,12.4,2.78,18.64-.87,2.19-2.29,4.17-3.94,5.86l-3.5-4.24c1.46-.94,2.79-2.09,3.79-3.54,3.35-4.78,2.84-11.39.87-16.72h0Z"/>
    <path class="cls-12" d="m162.28,465.15c2.34,6.28,3.8,13.69.64,20.02-.52.98-1.18,1.93-1.96,2.79l-3.67-4.1c1.15-.74,2.18-1.83,2.95-3.22,2.48-4.6,2.61-10.34,2.03-15.5h0Z"/>
    <path class="cls-9" d="m165.04,255.98c-47.5,10.78-56.34,43.68-56.34,43.68,0,0-10.89,15.02,4.16,34.84,17.42,22.93,33.85-12.29,33.85-12.29l31.5-58.42-13.18-7.81Z"/>
    <g class="cls-13">
      <path d="m178.22,263.79l-4.12,7.63c-13.14-1.14-25.23-3.35-34.96-5.79,7-3.89,15.52-7.3,25.9-9.65l13.18,7.81Z"/>
    </g>
    <path class="cls-12" d="m125.27,345.01c-5.22,0-10.12-2.97-14.59-8.84-14.86-19.56-6.3-34.89-4.49-37.68,1.33-4.32,12.2-34.73,58.25-45.19,1.48-.33,2.95.59,3.29,2.07.34,1.48-.59,2.95-2.07,3.29-23.64,5.37-37.13,16.42-44.29,24.75-7.76,9.02-9.98,16.9-10,16.98-.09.32-.23.63-.43.89-.38.54-9.42,13.73,4.13,31.56,3.64,4.79,7.39,7.02,11.12,6.62,8.14-.87,15.8-13.59,18.06-18.41.64-1.38,2.28-1.97,3.65-1.33,1.38.64,1.97,2.28,1.33,3.65-.38.82-9.55,20.18-22.45,21.55-.5.05-1,.08-1.5.08Z"/>
    <path class="cls-3" d="m163.15,261.14c11.68,13.63,42.76,93.62-27.33,113.48,0,0-6.3-10.05-.15-19.26,7.63-11.41,37.73-25.95,18.96-73.23-2.53-6.38-7.8-16.94-13.7-17.47,0,0-1.17-8.26,7.92-8.26s14.29,4.74,14.29,4.74Z"/>
    <path class="cls-3" d="m135.82,374.62s-6.3-10.05-.14-19.26c7.63-11.41,37.73-25.94,18.97-73.23-1.14-2.88-2.85-6.61-4.91-9.89-2.5-3.98-5.55-7.29-8.79-7.58,0,0-1.17-8.26,7.92-8.26s14.28,4.74,14.28,4.74c1.68,1.97,3.77,5.31,5.9,9.65,12.64,25.79,26.76,86.83-33.22,103.83Z"/>
    <path class="cls-3" d="m179.51,327.27c-2.71,20.14-14.31,39.02-43.69,47.35,0,0-6.3-10.05-.14-19.26,5.02-7.5,19.74-16.35,23.91-34.97,2.18-9.7,1.48-22.06-4.94-38.26-1.14-2.88-2.85-6.61-4.91-9.89-2.5-3.98-5.55-7.29-8.79-7.58,0,0-1.17-8.26,7.92-8.26s14.28,4.74,14.28,4.74c1.68,1.97,3.77,5.31,5.9,9.65,6.45,13.16,13.29,35.5,10.46,56.48Z"/>
    <path class="cls-5" d="m179.51,327.27c-2.71,20.14-14.31,39.02-43.69,47.35,0,0-6.3-10.05-.14-19.26,5.02-7.5,19.74-16.35,23.91-34.97,7.33.63,14.77,2.5,19.92,6.88Z"/>
    <path class="cls-5" d="m169.05,270.8c-7.21-4.59-15.45-.86-19.32,1.44-2.5-3.98-5.55-7.29-8.79-7.58,0,0-1.17-8.26,7.92-8.26s14.28,4.74,14.28,4.74c1.68,1.97,3.77,5.31,5.9,9.65Z"/>
    <path class="cls-12" d="m135.83,377.14c-.85,0-1.66-.43-2.13-1.18-.29-.47-7.09-11.55-.11-22,1.6-2.4,3.96-4.77,6.69-7.51,10.58-10.64,26.58-26.73,12.03-63.39-3.65-9.21-8.31-15.59-11.58-15.89-1.16-.1-2.1-1-2.27-2.15-.07-.47-.57-4.69,2.22-7.91,1.86-2.14,4.61-3.22,8.19-3.22,9.95,0,15.74,5.18,15.98,5.4.08.07.15.14.21.22,7.82,9.12,24.2,47.01,14.76,78.29-5.91,19.57-20.48,32.78-43.31,39.25-.23.06-.46.1-.69.1Zm7.67-114.42c6.3,2.51,11.07,12.38,13.49,18.48,15.77,39.73-2.33,57.93-13.14,68.8-2.54,2.56-4.74,4.77-6.07,6.76-3.83,5.73-1.94,11.95-.66,14.86,19.94-6.16,32.68-18.02,37.89-35.27,8.91-29.55-7.15-65.62-13.64-73.42-.73-.59-5.23-4.01-12.5-4.01-2.05,0-3.53.5-4.39,1.49-.6.69-.87,1.57-.98,2.31Z"/>
    <path class="cls-9" d="m175.02,340.63c-4.77,3.08-9.49,4-17.26,3.63-1.51,1.96-11,13.16-27.33,14.24-6.25.41-15.67-1.06-22.12-8.37-7.33-8.31-10.6-19.35-9.08-31.38,1.81-14.25,10.36-29.89,26.84-43.99l-5.87,32.49c2.12-1.97,9.67-7.96,16.72-12.49,7.71-4.96,9.01-9.96,17.32-10.77,2.15-.21,3.37,8.15,5.38,8.33,7.88.7,15.08,3.19,18.6,6.8,2.68,2.75,4.39,6.04,5.35,9.55,3.49,12.68-2.81,28.25-8.55,31.96Z"/>
    <g class="cls-13">
      <path d="m175.02,340.63c-4.77,3.08-9.49,4-17.26,3.63-1.51,1.96-11,13.16-27.33,14.24-6.25.41-15.67-1.06-22.12-8.37-7.33-8.31-10.6-19.35-9.08-31.38.93,4.48,2.38,9.2,4.43,9.83,4.52,1.39,8.71-7.53,8.95-8.05-.19.8-5.32,21.75,10.72,26.71,13.55,4.18,27.18-1.72,24.41-11.43,0,0,10.53,2.88,18.67.82,10.44-2.64,16.89-17.49,17.16-27.96,3.49,12.68-2.81,28.25-8.55,31.96Z"/>
    </g>
    <path class="cls-12" d="m120.21,307.26c3.36-4.75,7.63-8.65,12.12-12.29,2.17-1.74,4.46-3.18,6.53-5.03,2.22-1.88,4.05-3.99,6.56-5.78,2.44-1.78,5.51-2.82,8.51-3.13,4.85-.19,5.28,5.78,7.23,8.8-.18-.21-.73-.52-1.11-.55,6.55.54,15.15,2.29,20.55,7.56,8.06,8.1,8.75,20.79,5.67,31.2-1.63,5.25-3.95,10.64-8.24,14.39-5.63,4.52-13.55,5.3-20.41,4.58-.01,0,2.31-1.07,2.31-1.07-14.24,17.91-44.82,22.62-57.65.68-8.64-13.58-7.45-31.28-.68-45.3,5.24-11.13,13.42-20.68,22.68-28.64,2.82-2.29,6.27,1.73,3.59,4.17-6.57,5.66-12.49,12.04-17.16,19.32-4.54,7.14-7.93,15.26-8.82,23.65-1.3,10.96,2.08,22.54,10.16,30.19,3.89,3.51,9.19,5.4,14.6,5.75,10.98.62,22.01-4.73,28.92-13.17.58-.74,1.44-1.11,2.31-1.07,2.73.01,5.41-.11,7.88-.56,3.39-.7,6.87-1.96,9.14-4.65,6.32-8.44,8.75-22.83,3.13-32.05-3.7-6.35-11.83-7.94-18.67-8.86-4.24-.62-4.56-5.79-6.28-8.76-.08-.15-.19-.23.02-.05.11.08.35.26.8.35.17.03.51.06.61.03-.37.04-.75.07-1.12.13-4.74.61-7.16,3.99-11.03,7.07-1.18.93-2.42,1.83-3.73,2.6-6.07,3.57-12.07,7.15-18.43,10.49h0Z"/>
    <path class="cls-12" d="m146.9,296.2c4.48-1.9,11.13-4.23,15.77-5.94,0,0,.95,4.72.95,4.72-4.94.32-11.88.67-16.72,1.22h0Z"/>
    <path class="cls-3" d="m240.13,247.67s29.64,35.26,42.84,80.19c0,0-7.45-63.92-31.57-83.96-18.24-15.15-11.28,3.77-11.28,3.77Z"/>
    <path class="cls-3" d="m282.98,327.86c-8.35-28.39-23.25-52.92-33.09-67.13-5.75-8.28-9.76-13.06-9.76-13.06,0,0-6.96-18.92,11.28-3.77,3.62,3.01,6.87,7.01,9.78,11.64,16.42,26.16,21.79,72.32,21.79,72.32Z"/>
    <path class="cls-5" d="m261.19,255.54c-4.76-.65-9.25,3.15-11.29,5.19-5.75-8.28-9.76-13.06-9.76-13.06,0,0-6.96-18.92,11.28-3.77,3.62,3.01,6.87,7.01,9.78,11.64Z"/>
    <path class="cls-12" d="m282.98,329.96c-.91,0-1.74-.6-2.01-1.51-12.92-43.97-42.14-79.08-42.44-79.43-.16-.19-.28-.4-.36-.63-.78-2.11-3.04-9.21.51-11.72,2.74-1.94,7.08-.21,14.08,5.61,24.49,20.34,32,82.69,32.31,85.33.13,1.08-.6,2.08-1.67,2.3-.14.03-.28.04-.42.04Zm-40.99-83.34c2.37,2.9,21.13,26.33,34.78,58.01-4.4-20.07-12.7-47.49-26.69-59.12-6.48-5.38-8.63-5.43-8.97-5.39-.45.76-.03,3.84.89,6.5Z"/>
    <g>
      <path class="cls-8" d="m241.42,51.26c4.5-14.95,26.25-36.5,51.26-29.02,26.45,7.91,39.14,33.8,26.57,58.19-9.76,18.94-28.52,24.04-41.64,24.32,0,0-15.05-1.31-24.94-12.18-14.84-16.31-11.24-41.3-11.24-41.3Z"/>
      <path class="cls-9" d="m319.24,80.43c-8.58,16.65-24.12,22.6-36.67,23.98-1.72.19-3.39.3-4.97.33,0,0-15.05-1.31-24.94-12.18-14.85-16.31-11.24-41.3-11.24-41.3,4.5-14.96,26.25-36.51,51.26-29.03,14.67,4.39,25.12,14.31,29.35,26.44,3.41,9.73,2.81,20.89-2.79,31.75Z"/>
      <g class="cls-13">
        <path d="m319.24,80.43c-8.58,16.65-24.12,22.6-36.67,23.98-2.09-1.14-3.56-2.87-2.75-5.51,2.43-7.82,18.01-1.17,29.38-21.8,8.85-16.06.64-27.39,2.67-27.78,1.43-.28,7,1.82,10.15-.64,3.41,9.73,2.81,20.89-2.79,31.75Z"/>
      </g>
      <path class="cls-12" d="m240.1,50.86c2.67-15.74,19.53-29.42,34.82-32.39,12.53-2.52,25.61,1.96,35.53,9.68,10.02,7.75,16.52,20.07,16.41,32.83.11,16.79-9.98,33.49-25.33,40.47-7.53,3.57-15.83,5.02-23.9,4.66-1.7-.11-1.75-2.58-.06-2.75,15.02-1.32,29.74-8.35,37.54-21.47,10.5-16.6,7.59-37.21-8.18-49.24-20.58-15.45-42.69-10.03-58.09,9.59-2.34,2.92-4.39,6.05-6.12,9.41-.66,1.4-2.86.74-2.63-.79h0Z"/>
      <path class="cls-2" d="m254.04,64.5c.97-7.22,9.15-25.14,28.47-22.05,16.32,2.61,24.41,17.41,16.44,33.89-6.51,13.46-22.24,13.89-27.91,12.43-9.58-2.46-18.36-14.17-17-24.28Z"/>
      <path class="cls-2" d="m298.95,76.34c-.81,1.68-1.76,3.15-2.83,4.44-7.45,9.1-20.11,9.27-25.08,7.99-9.57-2.46-18.36-14.17-17-24.28.97-7.22,9.16-25.14,28.48-22.05,6.17.99,11.15,3.71,14.55,7.61h.01c5.59,6.43,6.84,16.03,1.88,26.28Z"/>
      <g class="cls-13">
        <path d="m296.12,80.78c-7.45,9.1-20.11,9.27-25.08,7.99-9.57-2.46-18.36-14.17-17-24.28.97-7.22,9.16-25.14,28.48-22.05,6.17.99,11.15,3.71,14.55,7.61-17.84-10.89-40.49,9.51-26.01,27.37,8.74,10.79,18.82,7.35,25.07,3.35Z"/>
      </g>
      <path class="cls-12" d="m276.37,92.11c-2.35,0-4.43-.26-6.01-.67-11.29-2.9-20.55-16.17-19.04-27.31h0c.57-4.24,3.81-13.86,11.94-19.9,5.62-4.17,12.24-5.68,19.69-4.49,8.77,1.4,15.59,6,19.21,12.94,3.78,7.25,3.52,16.08-.73,24.87-5.52,11.4-16.92,14.57-25.05,14.57Zm-19.61-27.24h0c-1.12,8.33,6.42,19.05,14.96,21.25,3.43.88,18.62,1.7,24.75-10.97,3.47-7.18,3.76-14.26.8-19.93-2.8-5.36-8.19-8.93-15.2-10.05-5.93-.95-11.16.22-15.54,3.48-6.18,4.59-9.23,12.22-9.77,16.22Z"/>
      <path class="cls-12" d="m241.4,66.27c2.48,11.5,8.39,21.91,16.84,30.04,1.18,1.24,2.51,2.27,3.7,3.53-.78-.36-1.54-.76-2.3-1.17-11.38-6.16-19.36-19.34-18.23-32.4h0Z"/>
    </g>
    <path class="cls-2" d="m189.99,260.45c-62.07,6.23-100.48-18.86-108.17-65.33-6.72-40.61,8.12-90.57,26.6-119.87,6.87-10.9,20.84-27.85,62.75-39.86,34.68-8.88,24.68-28.3,28.6-31.12,4.67-3.36,30.68-1.09,28.84,23.45,14.6-.01,16.09-12.45,24.66-8.92,5.3,2.19,11.97,13.59,5.16,29.72,9.7,4.91,15.89,10.69,15.89,10.69,28.13,21.17,32.5,53.53,38.28,78.06,4.11,17.45,13.66,35.16,6.7,61.09-8.85,32.96-39.97,49.87-90.33,57.33"/>
    <path class="cls-2" d="m319.28,198.37c-2.56,9.53-6.98,17.72-13.19,24.72-15.27,17.23-41.34,27.31-77.14,32.62l-38.97,4.75c-27.96,2.8-51.12-.75-68.82-9.74-21.62-10.96-35.12-30.05-39.35-55.6-6.73-40.61,8.12-90.56,26.59-119.87,6.87-10.89,20.84-27.85,62.75-39.85,34.67-8.88,24.68-28.31,28.6-31.13,4.67-3.36,30.68-1.08,28.84,23.45,14.6,0,16.09-12.45,24.66-8.92,5.31,2.19,11.98,13.59,5.16,29.72,9.7,4.91,15.89,10.69,15.89,10.69,28.13,21.17,32.5,53.53,38.28,78.07,4.11,17.45,13.66,35.15,6.7,61.08Z"/>
    <g class="cls-13">
      <path d="m306.09,223.08c-15.27,17.23-41.34,27.31-77.14,32.62,0,0-10.54,2.5-18.27,3.33-9.6,1.02-20.7,1.43-20.7,1.43-27.96,2.8-51.12-.75-68.82-9.74-2.32-1.87,41.99,10.43,111.23-1.33,39.98-6.79,73.69-26.56,73.7-26.3Z"/>
    </g>
    <path class="cls-9" d="m157.56,105.87c-.98-1.66,7.09-18.23,18.32-14.58,2.99.97,4.92,6.63,2.56,9.57-4.13,5.15-19.9,6.66-20.88,5.01Z"/>
    <path class="cls-9" d="m287.16,100.07c.83-1.35-6.57-16.62-17.13-12.62-3.18,1.2-4.6,6.23-1.05,8.99,6.81,5.28,17.34,4.98,18.18,3.63Z"/>
    <path class="cls-9" d="m192.21,203.4c2.96-.73,25.18-5.09,21.84-39.56-2.73-28.25-15.44-32.28-32.9-33.66-21.5-1.71-45.18,16.3-51.6,32.09-13.11,32.22,10.45,50.33,28.78,49.83,11.41-.31,11.73-3.24,33.88-8.7Z"/>
    <path class="cls-9" d="m275.23,190.42c-7.38-.98-20.82-8.16-23.53-31.26-2.76-23.56,5.71-31.25,17.97-32.66,11.34-1.31,25.19,1.77,37.32,17.23,7.63,9.73,10.89,27.65,9.46,36.15-1.24,7.36-7.98,12.07-19.31,11.3-10.49-.72-17.03-.11-21.89-.75Z"/>
    <path class="cls-12" d="m257.09,50.94c-5.76-3.5-12.13-6.53-18.73-8.03-1.68-.35-1.32-2.86.39-2.72,5.48.49,10.75,1.97,15.88,3.84,1.72.64,3.36,1.29,5.1,2.09,1.38.63,1.99,2.27,1.36,3.65-.68,1.52-2.61,2.08-4,1.17h0Z"/>
    <g>
      <path class="cls-2" d="m215.62,196.72c2.68,5.65,6.46,8.9,12.68,9.38,6.74.53,10.64-5.05,12.76-9.14,1.29,3.3,5.22,5.66,9,5.03,7.65-1.28,8.76-11.82,8.76-11.82,0,0-7.09-10.55-22.57-8.13-15.47,2.42-20.63,14.68-20.63,14.68Z"/>
      <path class="cls-2" d="m215.62,196.72c2.68,5.65,6.46,8.9,12.68,9.38,6.74.53,10.64-5.05,12.76-9.14,1.29,3.3,5.22,5.66,9,5.03,7.65-1.28,8.76-11.82,8.76-11.82,0,0-7.09-10.55-22.57-8.13-15.47,2.42-20.63,14.68-20.63,14.68Z"/>
      <g class="cls-13">
        <path d="m231.39,201.79c3.66-.83,7.28-8.15,6.18-11.51-.82-2.51-5.35-3.95-5.13-1.89,1.51,14.42-12.92,9.53-12.92,9.53,0,0,6.57,5.07,11.87,3.87Z"/>
      </g>
      <g class="cls-13">
        <path d="m250.41,197.89c-4.61,1.59-7.27-5.91-8.05-9.36-.58-2.58,1.35-3.62,2.02-1.65,4.69,13.75,12.05,3.69,12.05,3.69,0,0-1.57,5.78-6.02,7.32Z"/>
      </g>
      <path class="cls-12" d="m216.56,196.28c2.58,4.6,6.6,7.8,11.93,7.84,5.03.08,8.61-3.72,10.71-8.13,0,0,2.02-4.01,2.02-4.01l1.82,4.21c1.39,2.98,5.31,4.76,8.44,3.4,1.6-.65,2.96-2.05,4.01-3.77,1.05-1.73,1.84-3.82,2.34-5.84.29-1.19,2.08-.94,2.03.29-.25,4.91-2.15,10.28-6.76,12.7-5.09,2.77-11.91.27-13.98-5.25,0,0,3.84.2,3.84.2-2.67,5.31-8.06,11.24-14.75,10.15-3.03-.3-6.19-1.41-8.58-3.48-2.4-2.06-3.91-4.75-4.92-7.44-.2-.54.07-1.13.61-1.33.48-.18,1.01.02,1.26.45h0Z"/>
      <path class="cls-12" d="m240.45,187.09c2.02-.37,1.01,5.32,2.92,9.57.74,1.64-6.41,3.84-5.15.93,2.81-6.45-.63-9.98,2.23-10.5Z"/>
      <g>
        <path class="cls-12" d="m227.09,180.35c.29,7.2,10.83,11.36,13.09,11.31,2.26-.05,12.86-5.6,11.84-12-.65-4.11-8-5.12-11.41-5.05-4.39.09-13.7,1.55-13.53,5.74Z"/>
        <g class="cls-4">
          <path class="cls-2" d="m234.56,179.38c.07,2.1,3.64,2.87,6.25,2.75,2.6-.12,6.11-1.23,6.04-3.33-.04-1.08-6.18-.79-6.18-.79,0,0-6.14.29-6.11,1.36Z"/>
        </g>
      </g>
    </g>
    <path class="cls-12" d="m189.99,260.45c-25.99,7.12-57.42,2.39-79.79-12.85-15.63-10.61-26.31-27.71-30.39-46-8.83-41.2,3.38-90.27,24.4-126.14,13.02-22.83,38.03-34.84,62.18-42.15,0,0,3.34-.97,3.34-.97,6.96-1.79,14.61-4.36,19.81-9.25,3.71-3.37,5.51-8.04,5.78-13.02.28-4.26.23-8.46,5.63-9.6,5.77-1.21,11.59-.07,16.85,2.3,9.99,4.53,14.63,14.66,13.53,25.14,0,0-2.74-2.96-2.74-2.96,4.57.06,8.52-1.56,12.09-4.55,2.22-1.71,4.14-3.71,7.17-4.63,6.64-1.96,12.4,4.1,14.43,9.73,3.07,7.78,1.82,16.7-1.34,24.07,0,.01-1.29-3.52-1.29-3.52,5.62,2.76,12.48,7.47,16.3,10.95,24.19,17.92,32.14,45.57,37.93,73.59,3.28,16.41,10.7,31.95,10.61,49.02-.33,43.39-31.09,65.51-70.65,73.26-8.2,1.59-16.54,2.57-24.89,2.81,25.84-7.22,53.77-13.43,73.25-32.86,11.23-11.31,16.88-27.37,16.79-43.18.05-16.48-7.35-31.84-10.47-47.86-7.17-33.29-13.91-56.12-43.36-76.14-2.57-1.72-5.24-3.29-7.99-4.69-1.3-.66-1.84-2.21-1.29-3.53,3.41-7.97,4.4-18.63-2.11-25.07-1.14-1.08-2.91-1.74-4.37-1.31-1.41.38-3.26,2.02-5.28,3.65-4.11,3.56-9.93,5.89-15.51,5.75-1.6.03-2.89-1.37-2.74-2.96.28-4.14-.31-8.24-2.13-11.63-3.62-6.93-12.45-10.4-20.01-9.67-.68.05-1.63.29-2.11.54-.04.02-.03.03-.05.03.11-.07.19-.16.25-.23.12-.14.13-.2.12-.16-.28,1.24-.28,2.66-.4,4.18-.58,15.61-13.26,23.35-26.73,27.25-24.78,6.99-51.31,17.96-64.66,41.24-7.99,13.28-13.93,27.74-18.38,42.59-10.4,35.57-15.55,83.64,12.04,112.65,23.47,24.22,54.9,24.09,86.19,26.16h0Z"/>
    <g>
      <path class="cls-8" d="m133.14,61.85c-4.97-14.8-27.39-35.66-52.15-27.39-26.18,8.74-38.06,35.02-24.72,59,10.36,18.62,29.27,23.12,42.39,22.99,0,0,15-1.79,24.55-12.96,14.32-16.77,9.93-41.63,9.93-41.63Z"/>
      <path class="cls-9" d="m56.28,93.45c9.1,16.37,24.82,21.82,37.41,22.81,1.73.14,3.4.19,4.98.17,0,0,15-1.79,24.54-12.96,14.32-16.77,9.93-41.63,9.93-41.63-4.97-14.81-27.39-35.66-52.15-27.4-14.53,4.85-24.65,15.09-28.5,27.36-3.1,9.84-2.15,20.97,3.79,31.64Z"/>
      <g class="cls-13">
        <path d="m56.28,93.45c9.1,16.37,24.82,21.82,37.41,22.81,2.06-1.2,3.47-2.98,2.57-5.59-2.67-7.74-18.04-.6-30.06-20.86-9.36-15.77-1.51-27.35-3.54-27.68-1.44-.24-6.94,2.04-10.17-.32-3.1,9.84-2.15,20.97,3.79,31.64Z"/>
      </g>
      <path class="cls-12" d="m131.84,62.28c-9.56-17.3-30.01-32.11-50.23-24.94-7.01,2.38-13.53,6.3-18.56,11.76-11.95,12.87-12.33,31.35-2.6,45.69,8.22,12.86,23.15,19.43,38.2,20.27,1.68.1,1.73,2.61.03,2.75-8.06.61-16.4-.58-24.04-3.91-7.63-3.28-14.45-8.9-18.99-15.97-12.32-18.67-9.65-42.56,7.75-57.01,9.67-8.02,22.6-12.92,35.21-10.79,14.19,2.45,27.79,12.34,33.94,25.29.86,1.9,1.54,3.9,1.89,5.98.13.76-.39,1.48-1.15,1.6-.61.1-1.19-.21-1.46-.73h0Z"/>
      <path class="cls-2" d="m120.94,75.47c-1.2-7.19-9.94-24.84-29.15-21.14-16.23,3.13-23.85,18.17-15.36,34.39,6.93,13.24,22.67,13.18,28.29,11.54,9.5-2.76,17.91-14.74,16.23-24.8Z"/>
      <path class="cls-2" d="m76.43,88.73c.87,1.65,1.86,3.1,2.97,4.35,7.73,8.86,20.4,8.63,25.32,7.2,9.49-2.76,17.91-14.74,16.23-24.8-1.2-7.18-9.94-24.84-29.16-21.14-6.13,1.18-11.03,4.06-14.3,8.07h0c-5.38,6.6-6.33,16.24-1.05,26.33Z"/>
      <g class="cls-13">
        <path d="m79.39,93.08c7.73,8.86,20.4,8.63,25.32,7.2,9.49-2.76,17.91-14.74,16.23-24.8-1.2-7.18-9.94-24.84-29.16-21.14-6.13,1.18-11.03,4.06-14.3,8.07,17.49-11.45,40.77,8.23,26.86,26.54-8.39,11.06-18.58,7.94-24.95,4.14Z"/>
      </g>
      <path class="cls-12" d="m98.49,103.79c-8.05,0-18.86-3.02-24.5-13.79-4.53-8.65-5.06-17.47-1.51-24.83,3.4-7.05,10.07-11.86,18.79-13.54,7.41-1.43,14.07-.12,19.82,3.87,8.33,5.79,11.86,15.3,12.57,19.52h0c1.85,11.09-6.98,24.64-18.17,27.89-1.79.52-4.23.88-6.99.88Zm-1.62-47.21c-1.48,0-3,.15-4.57.45-6.97,1.34-12.25,5.08-14.88,10.52-2.78,5.76-2.27,12.82,1.43,19.89,6.52,12.46,21.68,11.17,25.09,10.18,8.46-2.46,15.67-13.41,14.28-21.71h0c-.67-3.99-3.95-11.51-10.28-15.91-3.29-2.29-7-3.44-11.08-3.44Z"/>
      <path class="cls-12" d="m133.63,76.85c1.54,13.02-6.02,26.44-17.2,32.96-.75.43-1.5.85-2.27,1.24,1.15-1.29,2.45-2.37,3.59-3.64,8.18-8.39,13.76-18.98,15.88-30.55h0Z"/>
    </g>
    <g>
      <path class="cls-12" d="m279.96,142.54c7.91.09,14.15,9.46,13.95,20.94-.2,11.47-6.77,20.7-14.68,20.61-7.9-.09-14.15-9.46-13.95-20.94.2-11.47,6.77-20.7,14.68-20.61Z"/>
      <path class="cls-2" d="m279.97,147.36c2.37,1.32,3.01,5.31,1.42,8.9-1.59,3.59-4.8,5.43-7.17,4.11-2.37-1.32-3.01-5.31-1.42-8.9,1.59-3.59,4.8-5.43,7.17-4.11Z"/>
      <path class="cls-10" d="m285.58,172.71c1.08,1.01.98,3.15-.22,4.79-1.2,1.64-3.05,2.16-4.13,1.15-1.08-1.01-.98-3.15.22-4.79,1.2-1.64,3.05-2.16,4.13-1.15Z"/>
    </g>
    <g>
      <path class="cls-12" d="m183.54,150.05c-8.64.1-15.47,10.35-15.25,22.89.22,12.54,7.41,22.63,16.05,22.53,8.64-.1,15.47-10.35,15.25-22.89-.22-12.54-7.41-22.63-16.05-22.53Z"/>
      <path class="cls-2" d="m183.53,155.32c-2.59,1.45-3.29,5.8-1.55,9.73,1.74,3.93,5.25,5.94,7.84,4.5,2.59-1.45,3.29-5.8,1.55-9.73-1.74-3.93-5.25-5.94-7.84-4.5Z"/>
      <path class="cls-10" d="m177.4,183.03c-1.18,1.1-1.07,3.45.24,5.24,1.31,1.79,3.33,2.36,4.52,1.26,1.18-1.1,1.07-3.45-.24-5.24-1.31-1.79-3.33-2.36-4.52-1.26Z"/>
    </g>
  </g>
</svg>