<?xml version="1.0" encoding="UTF-8"?>
<svg id="Layer_1" data-name="Layer 1" xmlns="http://www.w3.org/2000/svg" viewBox="0 0 369.35 500">
  <defs>
    <style>
      .cls-1 {
        fill: #512717;
      }

      .cls-2 {
        fill: #fff;
      }

      .cls-3 {
        opacity: .5;
      }

      .cls-4 {
        stroke: #223;
        stroke-linecap: round;
        stroke-linejoin: round;
        stroke-width: 4.6px;
      }

      .cls-4, .cls-5 {
        fill: none;
      }

      .cls-6 {
        opacity: .2;
      }

      .cls-7 {
        fill: #dfe6f2;
      }

      .cls-8 {
        fill: #223;
      }

      .cls-9 {
        fill: #e23a3a;
      }

      .cls-10 {
        fill: #626273;
      }

      .cls-11 {
        fill: #fdfeff;
      }

      .cls-12 {
        fill: #ee7d80;
      }

      .cls-13 {
        fill: #777882;
      }

      .cls-14 {
        fill: #5874cc;
      }

      .cls-15 {
        opacity: .2;
      }

      .cls-16 {
        fill: #62537c;
      }

      .cls-17 {
        opacity: .3;
      }
    </style>
  </defs>
  <g class="cls-6">
    <ellipse cx="185.06" cy="480.42" rx="131.97" ry="19.58"/>
  </g>
  <g>
    <g>
      <path class="cls-11" d="m351.82,451.37c-5.15,20.34-19.07,37.87-42.37,36.54-10.92.91-20.57-4.77-30.71-9.28-16-7.14-32.29-13.54-49.73-15.3-3.68-.38-7.41-.55-11.2-.47-22.22,4.43-44.43,3.92-66.63-1.54-.16,0-.32,0-.48.02-.32,0-.63.03-.94.03-17.4.73-33.95,4.96-49.38,13.72-5.57,3.16-11.63,5.24-17.88,5.95-20.95,2.39-36.11-5.56-45.82-17.7-26.97-33.64-12.18-99.39,36.86-66.07l10.21-15.56,5.38-8.21v-124.18l174.8,3.36,69.95-38.88c47.75-1.7,54.12,72.78-52.97,119.4-.66.29-1.33.58-2,.86,2.54,13.21,4.14,26.35,3.34,39.25-.18,2.87-.47,5.73-.9,8.57,6.83,1.94,14.28,9.3,22.29,21.54,39.94-30.34,57.04,12.94,48.17,47.93Z"/>
      <path class="cls-13" d="m280.92,333.21c-1.6.39-3.2.78-4.8,1.14-61.7,14.31-127.91,11.34-186.99-5.08v-79.94l174.8,3.36,37.01-20.57,25.21-14.01c8.36-4.65,18.34-4.84,26.63-.02,4.45,2.59,7.96,6.25,10.36,10.74,12.75,23.9-5.99,71.19-82.22,104.38Z"/>
      <g class="cls-6">
        <path d="m280.92,333.21c-1.6.39-3.2.78-4.8,1.14-3.04-8.36-5.62-18.46-8.33-28.03,37.3-5.18,70.25-38.71,95.34-77.49,12.75,23.9-5.99,71.19-82.22,104.38Z"/>
      </g>
      <path class="cls-13" d="m150.7,461.35c-.32,0-.63.03-.94.03-17.4.73-33.95,4.96-49.38,13.72-5.57,3.16-11.63,5.24-17.88,5.95-79,9.01-75.69-129.12-8.96-83.77l10.21-15.56,5.38-8.21v-2.34c2.14,9.79,5.18,19.68,9.46,29.02,5.28,11.54,11.92,21.31,11.92,21.31,13,19.12,26.79,29.06,36.05,36.47,1.32,1.06,2.71,2.18,4.14,3.37Z"/>
      <path class="cls-13" d="m309.45,487.91c-10.92.91-20.57-4.77-30.71-9.28-16-7.14-32.29-13.54-49.73-15.3,32.92-20.3,46.61-52.86,53.25-90.01-.18,2.87-.47,5.73-.9,8.57,6.83,1.94,14.28,9.3,22.29,21.54,63.16-47.97,69.19,88.1,5.8,84.47Z"/>
      <g class="cls-6">
        <path d="m351.82,451.37c-5.15,20.34-19.07,37.87-42.37,36.54-10.92.91-20.57-4.77-30.71-9.28-16-7.14-32.29-13.54-49.73-15.3-3.68-.38-7.41-.55-11.2-.47-22.22,4.43-44.43,3.92-66.63-1.54-.16,0-.32,0-.48.02-.32,0-.63.03-.94.03-17.4.73-33.95,4.96-49.38,13.72-5.57,3.16-11.63,5.24-17.88,5.95-20.95,2.39-36.11-5.56-45.82-17.7,35.17-5.22,56.8-25.45,61.18-64.79,34.62,58.3,131.15,42.62,171.79,17.71,6.9,8.54,14.81,10.91,24.41,2.98,13.41,35.73,31.74,50.38,57.76,32.13Z"/>
      </g>
      <path d="m352.61,457.74c3.88-11.4,5.03-24.08,3.22-35.71-1.78-11.53-6.28-20.84-12.64-26.23-2.95-2.49-7.95-5.47-15.02-5.47s-14.66,2.85-22.85,8.48l-1.07.74-.74-1.07c-3.28-4.72-6.51-8.64-9.58-11.66-3.03-2.97-6.01-5.18-8.88-6.54l-.84-.4.11-.93c1.4-12.14.68-25.5-2.28-42.03l-.18-1.01.94-.41c27.37-12.03,48.99-26.53,64.24-43.1,17.28-18.76,21.63-34.95,22.23-45.22.81-13.81-4.67-25.29-15.04-31.48-4.42-2.64-9.47-4.04-14.6-4.04s-10.06,1.34-14.61,3.86l-61.35,34.1-.31.17h-.35s-173.85-3.34-173.85-3.34h-.03c-.66,0-1.28.28-1.75.79-.51.54-.8,1.31-.8,2.1v123.22l-.21.33-12.82,19.55-.7,1.06-1.08-.67c-8.18-5.04-15.81-7.6-22.69-7.6-8.12,0-13.65,3.59-16.85,6.6-5.85,5.49-9.75,14.35-10.98,24.94-1.24,10.68.33,22.28,4.43,32.65,2.18,5.51,4.98,10.52,8.32,14.88,3.29,4.29,7.11,7.97,11.37,10.95,4.25,2.97,8.95,5.25,13.96,6.77,5.07,1.54,10.5,2.33,16.13,2.33,2.38,0,4.83-.14,7.29-.42,6.46-.74,12.77-2.83,18.76-6.24,14.82-8.41,30.94-12.81,49.26-13.45h.18s.17.04.17.04c12.16,2.95,24.56,4.45,36.84,4.45,9.98,0,20.06-.99,29.96-2.94l.11-.02h.12c.47-.01.95-.01,1.43-.01,21.47,0,41.31,8.04,58.23,15.58,1.6.71,3.21,1.47,4.76,2.19l.07.03c7.73,3.61,15.72,7.35,24.46,7.35.76,0,1.53-.03,2.28-.09h.08s.08,0,.08,0c.8.04,1.61.06,2.4.06,4.64,0,9.09-.74,13.22-2.18,4.09-1.43,7.92-3.58,11.37-6.38,3.46-2.81,6.58-6.3,9.25-10.38,2.72-4.14,5.01-8.91,6.81-14.19Zm-40.69,27.36c-.77,0-1.56-.02-2.34-.07-.04,0-.09,0-.13,0-.06,0-.12,0-.17,0-.71.06-1.43.09-2.15.09-7.76,0-14.95-3.36-22.55-6.92-1.6-.75-3.25-1.52-4.91-2.26-17.35-7.73-37.73-15.98-60.06-15.98-.61,0-1.23,0-1.84.02-.13,0-.26.02-.39.04-9.71,1.93-19.6,2.92-29.4,2.92-12.09,0-24.29-1.49-36.25-4.43-.18-.04-.35-.06-.54-.06-.02,0-.04,0-.06,0-19,.6-36.45,5.33-51.85,14.07-5.44,3.09-11.16,4.99-17.01,5.66-2.43.28-4.83.42-7.13.42-29.19,0-41.06-22.05-44.81-31.54-3.58-9.05-5.04-19.22-4.12-28.64.93-9.53,4.23-17.39,9.27-22.13,3.7-3.48,8.27-5.24,13.58-5.24,6.88,0,14.68,2.94,23.2,8.72.39.27.84.41,1.29.41.8,0,1.56-.43,2.03-1.16l15.59-23.77c.32-.5.5-1.11.5-1.72v-121.24l1.33.03,170.88,3.28h0c.41,0,.82-.1,1.16-.29l62.21-34.57c3.86-2.15,8.15-3.28,12.39-3.28,4.31,0,8.55,1.17,12.25,3.38,8.63,5.15,13.01,14.38,12.33,25.98-.77,13.14-8.13,27.9-20.73,41.55-15.26,16.54-37.28,31.02-65.45,43.04-1.17.5-1.86,1.93-1.59,3.32,3.66,19.09,4.41,33.5,2.41,46.73-.22,1.48.61,2.92,1.89,3.29,3.09.88,6.44,3.08,9.96,6.56,3.42,3.38,7.09,8.06,10.91,13.9.48.74,1.23,1.17,2.04,1.17.5,0,.98-.17,1.4-.49,8.55-6.49,16.32-9.78,23.11-9.78,4.53,0,8.57,1.47,12.01,4.38,5.56,4.7,9.4,13.07,10.83,23.56,1.41,10.37.3,21.62-3.12,31.66-3.01,8.85-12.55,29.43-35.96,29.43Z"/>
      <path d="m266.62,298.9c15.28,31.15,23.5,70.15,9.83,103.68-.33.81-1.19,1.17-1.93.82-.68-.33-1.02-1.15-.81-1.91,4.54-16.63,5.47-34.04,3.16-51.13-2.26-17.2-7.49-33.72-13.32-49.91-.74-2.12,2.03-3.59,3.07-1.55h0Z"/>
      <path d="m110.75,417.1c18.42,49.87,101.03,54.08,137.93,28.59,4.61-3.22,8.85-7.11,12.1-11.92,1.13-1.56,2.05-3.27,2.93-5.01.38-.84,1.33-1.18,2.09-.72.68.41.95,1.32.65,2.08-.78,2-1.63,3.99-2.7,5.84-3.13,5.59-7.52,10.26-12.32,14.11-34.59,26.81-101.85,24.65-131.9-9.52-5.48-6.3-9.76-13.96-11.96-22.26-.26-.97.25-1.99,1.15-2.28.84-.27,1.71.22,2.03,1.08h0Z"/>
      <path d="m94.42,436.99c-1.58,0-3-1.22-3.32-2.98-2.75-15.18-11.34-25.14-19.9-34.05-1.35-1.41-1.4-3.75-.11-5.23s3.44-1.53,4.79-.12c9.34,9.73,18.73,20.67,21.87,37.97.36,2-.83,3.95-2.67,4.34-.22.05-.44.07-.66.07Z"/>
      <path d="m306.25,405.8c-3.05,3.51-5.93,7.01-8.22,10.92-2.31,3.89-4.02,8.24-5.38,12.82-.67,2.16-3.61,1.35-3.26-.9.85-4.92,2.13-9.9,4.2-14.6,2.04-4.71,4.75-8.96,7.45-12.98,2.96-4.07,8.35.82,5.2,4.74h0Z"/>
      <ellipse class="cls-11" cx="316.41" cy="459.81" rx="17.96" ry="14.06" transform="translate(-208.39 649.87) rotate(-75.38)"/>
      <ellipse class="cls-11" cx="341.28" cy="437.51" rx="9.63" ry="5.92" transform="translate(-180.51 626.24) rotate(-71.93)"/>
      <ellipse class="cls-11" cx="328.85" cy="421.15" rx="9.22" ry="5.67" transform="translate(-173.53 603.14) rotate(-71.93)"/>
      <ellipse class="cls-11" cx="310.57" cy="424.05" rx="9.34" ry="5.65" transform="translate(-152.33 673.05) rotate(-82.06)"/>
      <ellipse class="cls-11" cx="63.65" cy="451.96" rx="14.17" ry="17.83" transform="translate(-152.99 50.23) rotate(-20.32)"/>
      <ellipse class="cls-11" cx="36.13" cy="433.75" rx="5.98" ry="9.55" transform="translate(-180.62 56.3) rotate(-25.11)"/>
      <ellipse class="cls-11" cx="46.3" cy="415.62" rx="5.72" ry="9.14" transform="translate(-171.97 58.91) rotate(-25.11)"/>
      <ellipse class="cls-11" cx="64.77" cy="415.66" rx="5.68" ry="9.29" transform="translate(-103.46 30.09) rotate(-14.72)"/>
      <ellipse class="cls-11" cx="329.28" cy="258.6" rx="15.44" ry="12.77" transform="translate(-64.67 400.39) rotate(-57.94)"/>
      <ellipse class="cls-11" cx="334.55" cy="232.41" rx="6.91" ry="4.45" transform="translate(-46.13 377.38) rotate(-55.63)"/>
      <ellipse class="cls-11" cx="348.59" cy="235.53" rx="6.62" ry="4.26" transform="translate(-42.6 390.32) rotate(-55.63)"/>
      <ellipse class="cls-11" cx="353.2" cy="249.43" rx="6.53" ry="4.35" transform="translate(-74.32 314.19) rotate(-43.84)"/>
      <g class="cls-6">
        <path d="m300.94,232.11c-4.17,44.79-30.99,72.04-105.01,72.31-3.11-.08-6.23-.18-9.34-.04-43.21,1.93-76.77-5.97-97.47-25.41v-29.63l174.8,3.36,37.01-20.57Z"/>
      </g>
    </g>
    <g>
      <path class="cls-14" d="m145.48,292.52l-.46,65.4-.17,24.41c-.01,2.46-1.88,4.42-4.15,4.37l-10.55-.26-42.02-1.04-3.48-.08c-1.57-.04-2.93-1.04-3.57-2.49-.27-.59-.42-1.25-.42-1.95l.23-79.02.03-9.95c.01-2.45,1.85-4.42,4.1-4.39l56.42.54c2.25.02,4.06,2.02,4.04,4.46Z"/>
      <polygon class="cls-14" points="132.9 289.41 144.41 289.5 143.59 383.65 133.72 384.53 132.9 289.41"/>
      <line class="cls-5" x1="130.77" y1="287.96" x2="130.16" y2="386.43"/>
      <path d="m140.8,389.21s-.1,0-.15,0l-56.05-1.38c-3.45-.08-6.25-3.21-6.24-6.96l.26-88.97c0-1.85.67-3.59,1.88-4.89,1.2-1.3,2.79-2.01,4.48-2.01.02,0,.04,0,.06,0l56.41.54c3.51.03,6.35,3.17,6.33,6.99l-.62,89.8c-.01,1.86-.7,3.61-1.92,4.91-1.2,1.27-2.77,1.96-4.44,1.96Zm-55.81-99.17c-.47,0-.91.2-1.24.55-.33.35-.51.82-.51,1.33l-.26,88.97c0,1.03.77,1.89,1.73,1.91l56.05,1.38c.47.03.93-.18,1.27-.54.33-.35.52-.83.52-1.33l.62-89.8c0-1.05-.78-1.91-1.76-1.92l-56.41-.54h-.02Z"/>
      <rect x="83.47" y="334.93" width="98.51" height="4.61" transform="translate(-205.1 468.44) rotate(-89.74)"/>
      <path class="cls-5" d="m132.91,287.98c-.12,32.84-.24,65.67-.37,98.51"/>
      <g class="cls-6">
        <path d="m80.9,301.86l-.23,79.02c0,.7.15,1.36.42,1.95l7.05,2.57,42.02,1.03,10.55.26c2.27.06,4.14-1.9,4.15-4.37l.17-24.41c-10.28-5.69-19.01-13.76-27.92-22.69-8.25-8.27-16.66-17.26-26.64-25.77-3.02-2.59-6.2-5.14-9.56-7.6Z"/>
      </g>
      <g>
        <ellipse class="cls-2" cx="89.82" cy="297.82" rx="5.38" ry="5.83" transform="translate(-3.65 1.13) rotate(-.7)"/>
        <path d="m89.53,304c-.21,0-.42-.01-.64-.04-3.31-.37-5.72-3.6-5.38-7.18h0c.16-1.74.94-3.3,2.19-4.4,1.25-1.1,2.82-1.6,4.42-1.42,3.31.37,5.72,3.6,5.38,7.18-.16,1.74-.94,3.3-2.19,4.4-1.08.95-2.41,1.46-3.78,1.46Zm-4.66-7.07h0c-.26,2.77,1.61,5.26,4.16,5.54,1.24.14,2.45-.25,3.42-1.1.96-.85,1.56-2.05,1.69-3.4.26-2.77-1.61-5.26-4.16-5.54-1.24-.14-2.45.25-3.42,1.1-.96.85-1.56,2.05-1.69,3.39Z"/>
        <path d="m89.55,300.73c-.09,0-.19,0-.28-.02-1.48-.17-2.56-1.61-2.41-3.22h0c.07-.78.42-1.48.98-1.98.56-.49,1.26-.72,1.98-.64,1.48.17,2.56,1.61,2.41,3.22-.07.78-.42,1.48-.98,1.98-.49.43-1.08.65-1.7.65Zm-.02-4.87c-.41,0-.8.15-1.12.43-.37.33-.6.79-.65,1.3h0c-.1,1.06.62,2.02,1.6,2.13.48.05.94-.1,1.31-.42.37-.33.6-.79.65-1.3.1-1.06-.62-2.02-1.6-2.13-.06,0-.13-.01-.19-.01Z"/>
      </g>
    </g>
    <g>
      <g>
        <line class="cls-5" x1="86.13" y1="283.29" x2="86.04" y2="273.72"/>
        <path class="cls-16" d="m79.82,372.67c-54.03-2.24-30.48-86.42,6.21-98.95l-2.08,9.56c-2.14.09-3.87,2.02-3.87,4.38l-.05,13.6-.22,1.04c.08-.03.15-.05.22-.08,29.36-10.28,49.45,66.26-.21,70.45Z"/>
      </g>
      <g>
        <line class="cls-5" x1="86.13" y1="283.29" x2="86.04" y2="273.72"/>
        <path class="cls-13" d="m79.82,372.67c-22.19-.92-31.3-15.66-31.78-33.57-.7-25.72,16.37-57.99,37.99-65.38l-2.08,9.56c-2.14.09-3.87,2.02-3.87,4.38l-.05,13.6-.22,1.04c.08-.03.15-.05.22-.08,15.77-5.52,28.87,14.02,29.91,33.93.9,17.15-7.14,34.58-30.12,36.52Z"/>
      </g>
      <g class="cls-6">
        <path d="m79.82,372.67c-22.19-.92-31.3-15.66-31.78-33.57,22.5,14.85,42.66,11.14,61.9-2.95.9,17.15-7.14,34.58-30.12,36.52Z"/>
      </g>
      <g>
        <path d="m86.13,285.8c-1.26,0-2.29-1.11-2.31-2.49l-.09-9.57c-.01-1.39,1.01-2.53,2.28-2.54h.02c1.26,0,2.29,1.11,2.31,2.49l.09,9.57c.01,1.39-1.01,2.53-2.28,2.54h-.02Z"/>
        <path d="m80.03,304.74h0c-1.27,0-2.3-1.14-2.3-2.53l.05-14.57c0-1.85.68-3.59,1.89-4.89,1.22-1.31,2.85-2.06,4.54-2l1.95.02c1.27.01,2.3,1.15,2.29,2.54,0,1.38-1.04,2.5-2.31,2.5h-.02l-1.95-.02h-.02c-.47,0-.91.2-1.24.55-.33.36-.51.83-.51,1.33l-.05,14.57c0,1.39-1.04,2.51-2.31,2.51Z"/>
        <path d="m86.73,276.12c-18.57,7.37-30.62,29.5-34.51,49.78-2.92,15-.44,33.34,13.79,39.98,4.26,2.08,9.08,2.97,13.95,3.19,2.6-.22,9.32-1.53,12.73-3.63,13.01-6.68,16.25-23.66,12.77-37.78-2.2-9.06-7.36-18.97-15.62-22.19-4.09-1.68-8.43-.48-12.38,1.08-4.43,1.64-8.43,3.58-11.56,7.58-.57.81-1.79.13-1.55-.83.64-2.85,2.21-5.55,4.23-7.59,2.01-2.09,4.36-3.62,6.73-4.86,11.23-6.5,22.52-1.42,29.56,9.26,12.71,18.91,11.99,50.7-9.28,61.8-5,2.69-10.4,3.94-15.71,4.39-5.56-.27-11.24-1.29-16.56-3.91-28.5-14.73-19.21-57.65-3.67-79.77,6.51-9.47,15.08-17.79,25.7-21.28,2.9-.85,4.21,3.7,1.38,4.8h0Z"/>
      </g>
      <path d="m109.2,329.19c-6.99,2.35-15.89,3.79-22-1.66-.68-.63,0-1.86.82-1.52,6.66,2.38,13.3.04,19.92-1.66,2.85-.68,4.01,3.77,1.27,4.84h0Z"/>
      <path d="m107.73,355.97c-7.85,3.74-18.14,2.63-24.23-4.3-.63-.7.08-1.9.92-1.57,3.67,1.31,7.23,2.25,11,2.4,3.7.16,7.29-.52,10.94-1.33,2.71-.53,3.86,3.58,1.37,4.8h0Z"/>
    </g>
  </g>
  <g>
    <path class="cls-9" d="m134.28,293.08c-.3-.01-.59-.02-.88-.05.13,0,.45,0,.88.05"/>
    <polygon class="cls-1" points="177.21 196.75 176.88 196.85 176.86 196.74 177.21 196.75"/>
    <path class="cls-13" d="m77.18,102.97c19.29-24.39,14.69-40.46,6.66-50.04-10.14-12.1-26.13-24.9-46.03-19.7C9.46,40.63-6.19,68.31,7.41,94.16c8.13,15.45,20.36,22.91,31.13,26.47,12.1,4,24.33.41,38.63-17.66"/>
    <path class="cls-13" d="m77.18,102.97c-14.3,18.07-26.53,21.66-38.63,17.66-10.77-3.56-23.01-11.02-31.14-26.47-1.6-3.04-2.8-6.11-3.61-9.17-6.13-22.92,9-45.23,34.01-51.77,19.9-5.2,35.89,7.6,46.02,19.71.36.43.71.86,1.05,1.32,7.34,9.71,10.73,25.42-7.71,48.72"/>
    <path class="cls-10" d="m77.18,102.97c-14.3,18.07-26.53,21.66-38.63,17.66-10.77-3.56-23.01-11.02-31.14-26.47-1.6-3.04-2.8-6.11-3.61-9.17,5.53,9.4,15.08,19.33,29.67,15.08,19.21-5.59,26.33-39.63,51.42-45.83,7.34,9.71,10.73,25.42-7.71,48.72"/>
    <g class="cls-17">
      <path class="cls-2" d="m92.58,65.12c-10.38-13.46-28.16-29.69-50.76-23.79C18.19,47.51,2.98,67.12,4.92,88.52c-8.77-24.11,6.6-48.42,32.9-55.29,27.26-7.12,47.18,19.52,54.77,31.89"/>
    </g>
    <path class="cls-8" d="m91.17,65.15c-5.33-6.38-10.47-12.72-16.42-18.18-2.98-2.71-6.2-5.11-9.63-7.1-1.71-.99-3.49-1.84-5.29-2.59l-1.37-.51-.69-.25-.7-.21c-.47-.14-.93-.3-1.39-.43l-1.41-.35c-1.89-.43-3.8-.74-5.72-.81-1.92-.13-3.85,0-5.77.21-3.8.51-7.66,1.71-11.33,3.19-3.67,1.52-7.13,3.5-10.31,5.85-3.18,2.35-6,5.16-8.42,8.27-4.76,6.25-7.7,13.92-7.8,21.77-.12,3.92.51,7.84,1.63,11.61.27.95.64,1.86.95,2.8.4.91.74,1.83,1.17,2.72.82,1.8,1.87,3.52,2.86,5.26,2.14,3.38,4.56,6.57,7.36,9.41,2.82,2.8,5.96,5.28,9.35,7.36,6.79,4.17,14.57,6.67,22.52,7.69h.02c1.34.18,2.29,1.41,2.12,2.75-.17,1.35-1.4,2.3-2.74,2.12-8.56-1.1-17.01-3.8-24.46-8.37-3.72-2.28-7.17-5.01-10.28-8.09-3.07-3.12-5.72-6.61-8.05-10.29-1.08-1.89-2.21-3.74-3.13-5.75-.48-.99-.87-2.03-1.31-3.04-.35-1.05-.76-2.07-1.07-3.14C.6,82.81-.12,78.36.02,73.91c.1-8.93,3.41-17.68,8.73-24.71,2.7-3.5,5.82-6.66,9.34-9.3,3.51-2.64,7.33-4.86,11.35-6.57,2.02-.83,4.07-1.6,6.17-2.19l1.57-.45,1.63-.37c1.08-.28,2.19-.4,3.3-.58,2.22-.26,4.47-.4,6.7-.26,2.24.09,4.46.44,6.64.93,2.19.48,4.29,1.23,6.34,2.05,2.03.87,4.01,1.86,5.9,2.98,3.77,2.25,7.23,4.92,10.4,7.86,3.17,2.93,6.1,6.11,8.63,9.56,2.54,3.44,4.79,7.09,6.53,11,.28.63,0,1.36-.62,1.64-.51.23-1.1.08-1.45-.33"/>
    <path class="cls-13" d="m246.14,80.29c-25-18.44-24.76-35.16-19.53-46.52,6.61-14.35,18.69-30.92,39.25-31.15,29.3-.33,51.64,22.25,45.29,50.78-3.8,17.05-13.65,27.47-23.11,33.75-10.63,7.05-23.37,6.81-41.9-6.86"/>
    <g class="cls-17">
      <path class="cls-2" d="m221.37,47.83c6.49-15.73,19.4-36.08,42.75-36.34,24.42-.27,44.23,14.64,47.97,35.79,2.15-25.58-19.04-44.98-46.21-44.67-28.17.32-40.41,31.28-44.5,45.22"/>
    </g>
    <path class="cls-8" d="m220.4,46.78c.65-4.22,1.87-8.34,3.42-12.33,1.54-4,3.53-7.83,5.82-11.5,2.28-3.67,4.92-7.16,7.97-10.32,1.53-1.58,3.18-3.05,4.91-4.43,1.77-1.34,3.6-2.61,5.59-3.65,1.97-1.05,4.02-1.97,6.16-2.65,2.12-.73,4.33-1.19,6.53-1.52,1.11-.11,2.22-.29,3.33-.31l1.67-.07,1.64.02c2.18.01,4.36.21,6.53.49,4.33.58,8.6,1.72,12.68,3.34,4.08,1.62,7.92,3.85,11.44,6.51,6.97,5.39,12.46,12.95,14.89,21.54,1.29,4.26,1.77,8.74,1.67,13.16-.01,1.11-.14,2.21-.21,3.31-.16,1.09-.26,2.19-.46,3.27-.36,2.19-.97,4.27-1.51,6.38-1.28,4.16-2.93,8.24-5.07,12.06-2.18,3.79-4.8,7.34-7.8,10.52-5.99,6.38-13.44,11.21-21.41,14.53-1.25.52-2.68-.07-3.2-1.33-.52-1.25.07-2.69,1.32-3.21h.02c7.4-3.09,14.26-7.55,19.72-13.37,2.73-2.9,5.11-6.12,7.1-9.57,1.95-3.48,3.45-7.2,4.63-11.02.5-1.94,1.07-3.88,1.38-5.83.19-.97.27-1.96.42-2.94.06-.98.18-1.97.18-2.95.09-3.93-.33-7.88-1.47-11.63-2.16-7.55-7-14.17-13.23-18.95-3.14-2.36-6.6-4.33-10.28-5.76-3.68-1.43-7.54-2.43-11.48-2.92-3.93-.46-7.97-.6-11.77-.09-1.91.29-3.8.69-5.62,1.32-1.84.58-3.6,1.38-5.31,2.29l-1.27.71c-.42.25-.82.53-1.23.78l-.62.39-.6.42-1.19.85c-1.54,1.2-3.03,2.49-4.43,3.9-2.78,2.82-5.26,5.99-7.43,9.39-4.32,6.84-7.61,14.31-11.09,21.87-.29.62-1.02.89-1.64.61-.51-.24-.79-.78-.7-1.32"/>
    <path class="cls-2" d="m204.69,271.4c53.79-8.27,92.6-30.46,103.86-63.82,8.48-25.14-3.28-48.24-3.29-48.28-.48-1.38-7.91-101.16-88.68-125.5-22.77-6.86-43.29-6.74-63.2-4.29h0c-19.86,2.9-39.68,8.22-59.84,20.87C22.01,95.24,41.07,193.46,40.97,194.92c0,.04-5.28,25.43,9.51,47.44,19.62,29.2,62.9,40.33,116.95,34.07"/>
    <path class="cls-2" d="m308.54,207.58c-.74,2.18-1.59,4.3-2.55,6.38-13.82,29.81-51.02,49.71-101.3,57.44l-37.25,5.02c-51.21,5.93-92.73-3.74-113.65-29.6-1.17-1.44-2.27-2.93-3.31-4.47-14.79-22.01-9.51-47.4-9.51-47.44.11-1.46-18.95-99.68,52.57-144.53,10.08-6.33,20.08-10.82,30.03-14.09,9.96-3.28,19.88-5.33,29.8-6.78,19.92-2.45,40.44-2.57,63.2,4.29,80.77,24.33,88.2,124.12,88.69,125.5,0,.04,11.77,23.13,3.29,48.28"/>
    <path class="cls-2" d="m144.71,34.82c4.81-3.31,6.22-5.9,8.14-9.21"/>
    <path class="cls-8" d="m144.71,34.82c1.47-1.52,2.81-3.13,3.77-4.86.98-1.73,1.56-3.56,2.25-5.58l4.23,2.47c-1.37,1.56-2.87,3.35-4.64,4.73-1.76,1.4-3.68,2.4-5.61,3.24"/>
    <path class="cls-13" d="m125.09,202.74c10.04-4.7,22.12-13,23.53-30.88,1.85-23.54-14.26-45.22-35.76-44.37-20.94.83-45.17,14.25-54.68,45.82-6.75,22.4,3.32,48.45,24.97,48.2,15.61-.18,18.4-7.75,41.94-18.78"/>
    <path class="cls-8" d="m140.47,166.37c2.01,14.97-6.83,28.53-19.75,30.28-12.92,1.75-25.02-8.97-27.03-23.95-2.01-14.97,6.83-28.53,19.75-30.28,12.92-1.75,25.02,8.97,27.03,23.95"/>
    <path class="cls-2" d="m130.02,159.8c.72,5.35-2.11,10.15-6.32,10.72-4.21.57-8.21-3.31-8.93-8.66-.72-5.35,2.11-10.15,6.33-10.72,4.21-.57,8.21,3.31,8.93,8.66"/>
    <g class="cls-15">
      <path class="cls-2" d="m113.81,179.27c.49,3.62-1.01,6.81-3.34,7.13-2.33.32-4.62-2.36-5.11-5.99-.49-3.62,1.01-6.81,3.34-7.13,2.33-.32,4.62,2.36,5.11,5.99"/>
    </g>
    <path class="cls-13" d="m225.98,189.15c-10.92-1.88-24.75-6.68-30.81-23.56-7.97-22.21,1.88-47.4,22.83-52.26,20.41-4.74,47.32,1.79,64.78,29.73,12.39,19.82,9.53,47.62-11.42,53.1-15.11,3.96-19.79-2.6-45.39-7.01"/>
    <path class="cls-8" d="m196.94,192.86c-4.81,7.74-4.66,14.56-6.83,20.04-2.93,7.39-9.89,8.65-11.01,8.76-1.51.14-8.21.83-12.91-5.54-3.5-4.74-5.19-11.33-11.85-17.52,5.4-7.11,20.84-6.29,20.84-6.29,0,0,14.67-4.88,21.76.55"/>
    <polygon class="cls-1" points="176.41 192.5 176.08 192.59 176.07 192.49 176.41 192.5"/>
    <path class="cls-12" d="m190.49,211.86c-.11.35-.25.7-.38,1.04-2.92,7.39-9.89,8.65-11,8.76-1.52.14-8.22.82-12.91-5.54-.22-.3-.43-.62-.64-.93,1.61-2.15,4.05-3.66,6.91-4.05,1.87-.25,3.7.02,5.33.7,1.4-1.08,3.09-1.83,4.96-2.08,2.87-.39,5.63.44,7.75,2.11"/>
    <path class="cls-8" d="m182.76,209.75s-3.63.75-4.31,4.43c-.06.35-.52.41-.67.09-1.62-3.37-5.32-3.13-5.32-3.13l1.22-4.51,3.47.33,3.26-1.24,2.35,4.02Z"/>
    <path class="cls-4" d="m196.94,192.86c-4.81,7.74-4.66,14.56-6.83,20.04-2.93,7.39-9.89,8.65-11.01,8.76-1.51.14-8.21.83-12.91-5.54-3.5-4.74-5.19-11.33-11.85-17.52,5.4-7.11,20.84-6.29,20.84-6.29,0,0,14.67-4.88,21.76.55Z"/>
    <path class="cls-2" d="m202.12,182.48c-1.27,2.21-2.77,9.5-7.86,13.27-5.9,4.36-13.2,2.34-16.98-1.42-1.63-1.62-2.52-4.23-2.73-5.77l-.67-4.98.67,4.98c.21,1.55.03,4.3-1.12,6.29-2.66,4.62-9.17,8.51-16.01,5.86-5.9-2.28-9.26-8.92-11.07-10.72,0,0,6.71-20.1,25.37-22.61,18.65-2.51,30.4,15.1,30.4,15.1"/>
    <path class="cls-7" d="m178.87,181.5s.62,9.69,6.74,10.62c8.27,1.25,12.72-10.11,12.72-10.11,0,0-11.01,7.05-12.96-2.3-2.92-5.47-6.5,1.79-6.5,1.79"/>
    <path class="cls-7" d="m168.54,182.89s1.95,9.51-3.71,12.03c-7.65,3.4-14.93-6.38-14.93-6.38,0,0,12.47,3.88,11.9-5.65,1.38-6.05,6.74,0,6.74,0"/>
    <path class="cls-8" d="m176.97,188.23c.23,1.12.25,2.11.2,3.15-.05,1.03-.24,2.06-.58,3.12-.17.53-.38,1.06-.67,1.59-.28.49-.54.91-.83,1.35-.59.85-1.25,1.64-2,2.33-1.47,1.4-3.18,2.54-5.07,3.29-1.89.75-3.95,1.13-6,1.04-2.05-.08-4.04-.61-5.81-1.51-1.79-.9-3.28-2.16-4.51-3.54-1.25-1.37-2.21-2.89-3.05-4.43-.42-.77-.79-1.55-1.17-2.33-.37-.79-.7-1.56-1.13-2.32.74.47,1.39,1.09,2.02,1.66l1.86,1.75c1.22,1.15,2.48,2.21,3.76,3.1,1.28.89,2.61,1.58,3.94,2,1.35.41,2.73.59,4.06.49,1.34-.1,2.64-.45,3.86-1.02,1.22-.58,2.35-1.37,3.33-2.31.25-.23.48-.48.69-.73.24-.24.42-.51.64-.77.19-.26.38-.55.53-.79.13-.21.24-.47.36-.73.23-.54.38-1.18.51-1.84.11-.65.18-1.36.19-1.93v-.2c.02-1.36,1.14-2.44,2.49-2.42,1.17.02,2.14.86,2.36,1.97"/>
    <path class="cls-8" d="m202.12,182.48c-.23.84-.36,1.67-.52,2.52-.16.85-.34,1.69-.54,2.54-.21.85-.47,1.69-.75,2.54-.3.84-.65,1.68-1.06,2.5-.81,1.65-1.93,3.24-3.39,4.59-1.46,1.32-3.22,2.38-5.16,3-1.94.63-4.02.82-6.03.6-2.02-.22-3.97-.84-5.75-1.81-.45-.23-.88-.5-1.31-.78-.44-.26-.83-.6-1.23-.92-.4-.34-.76-.68-1.16-1.08-.42-.44-.76-.89-1.07-1.35-.6-.93-1.05-1.88-1.38-2.85-.32-.98-.56-1.95-.64-3.09-.09-1.35.93-2.52,2.28-2.61,1.16-.08,2.19.68,2.51,1.75l.06.21c.33,1.13.95,2.54,1.67,3.46.18.22.35.45.53.61.21.19.47.42.72.62.54.39,1.07.8,1.67,1.11,1.19.64,2.49,1.13,3.83,1.37,1.33.23,2.69.24,4.02-.02,1.32-.25,2.63-.78,3.84-1.54,1.2-.75,2.29-1.8,3.31-2.99,1.01-1.21,1.92-2.58,2.78-4.02.45-.71.86-1.46,1.31-2.19.45-.73.89-1.5,1.47-2.16"/>
    <path class="cls-8" d="m175.04,178.39l1.93,9.85c.26,1.33-.6,2.63-1.93,2.89-1.33.26-2.62-.6-2.88-1.94-.02-.09-.03-.2-.04-.3l-.72-10.01c-.07-1.02.69-1.9,1.7-1.97.94-.07,1.76.58,1.94,1.48"/>
    <path class="cls-8" d="m187.52,172.52c-1.09,5.13-5.94,9.41-9.42,11.91-2.3,1.64-5.25,2.04-7.9,1.06-4.02-1.48-9.81-4.33-12.21-9-2.74-5.35,11.22-8.16,13.89-8.52,2.68-.36,16.88-1.34,15.64,4.55"/>
    <g class="cls-3">
      <path class="cls-2" d="m178.39,170.01c-.89,2.14-5.86,2.77-5.86,2.77,0,0-4.96.7-6.38-1.12-1.02-1.31,4.79-2.32,5.9-2.47,1.11-.15,6.98-.7,6.34.83"/>
    </g>
    <path class="cls-7" d="m307.03,211.43c-.34.81-.66,1.65-.95,2.52-13.82,29.81-51.02,49.71-101.31,57.44,0,0-4.94,1.39-18.65,3.23-13.7,1.85-18.61,1.79-18.61,1.79-51.21,5.93-92.73-3.74-113.65-29.6-.32-.43-.64-.85-.97-1.27,27.06,16.81,62.32,26.9,131.68,17.58,69.37-9.31,100.73-28.33,122.44-51.69"/>
    <path class="cls-8" d="m204.69,271.4c7.14-2.09,14.25-4.01,21.26-6.13,7.02-2.1,13.97-4.34,20.79-6.9l2.56-.96,2.53-1.02c1.69-.66,3.35-1.42,5.01-2.14,3.3-1.52,6.57-3.08,9.74-4.85,1.6-.84,3.14-1.8,4.71-2.7,1.52-.97,3.08-1.9,4.55-2.94,3-2,5.87-4.19,8.61-6.51,1.39-1.14,2.69-2.38,4-3.6,1.26-1.27,2.55-2.52,3.73-3.86,2.39-2.65,4.64-5.43,6.58-8.41,3.91-5.92,6.91-12.48,8.55-19.33,1.6-6.87,1.93-14.04,1.11-21.11-.4-3.53-1.13-7.03-2.06-10.47-.24-.86-.47-1.72-.76-2.56-.27-.85-.54-1.7-.85-2.53-.29-.84-.62-1.66-.95-2.48-.16-.41-.34-.8-.51-1.21-.09-.2-.18-.39-.27-.59l-.13-.29-.07-.16-.11-.25c-.07-.17-.13-.35-.18-.52l.1.34c-.05-.16-.09-.33-.13-.49-.04-.23-.02-.15-.04-.23l-.04-.28-.06-.46-.11-.88-.23-1.74c-.16-1.15-.32-2.31-.5-3.46-.35-2.3-.76-4.6-1.19-6.89-.88-4.58-1.9-9.14-3.09-13.65-2.37-9.02-5.36-17.88-9.03-26.43-1.84-4.27-3.85-8.46-6.04-12.56-2.2-4.08-4.59-8.06-7.17-11.91-5.15-7.69-11.1-14.83-17.86-21.09-6.74-6.27-14.28-11.66-22.41-15.95-8.13-4.3-16.79-7.48-25.8-9.65-4.49-1.1-9.03-1.98-13.6-2.62-4.58-.63-9.19-1.01-13.81-1.17-9.24-.34-18.57.25-27.78,1.36-9.17,1.33-18.34,3.21-27.18,5.95-4.42,1.37-8.78,2.94-13.04,4.75-4.26,1.81-8.42,3.85-12.46,6.1-8.14,4.46-15.69,9.81-22.43,16.12-6.74,6.29-12.61,13.5-17.49,21.35-4.89,7.84-8.78,16.32-11.74,25.12-1.49,4.4-2.75,8.88-3.81,13.41-1.05,4.54-1.89,9.12-2.55,13.74-1.31,9.23-1.88,18.59-1.8,27.93.03,4.67.26,9.35.64,14.01.19,2.33.42,4.65.69,6.97.14,1.16.28,2.32.44,3.47l.25,1.74.13.88.07.46.03.27c0,.08,0,.01.02.22.01.16.01.31,0,.47v-.32c0,.17-.01.34-.03.51l-.03.25-.03.16-.05.32c-.03.21-.07.42-.1.64-.06.44-.13.87-.17,1.31-.1.88-.2,1.76-.25,2.65-.08.89-.11,1.78-.15,2.67-.05.89-.04,1.79-.04,2.68.02,3.57.26,7.15.83,10.67,1.11,7.04,3.37,13.87,6.76,20.06,3.43,6.15,8.08,11.65,13.43,16.29l2.04,1.71,2.12,1.61c.7.55,1.45,1.02,2.18,1.54.37.25.73.51,1.1.76l1.13.71c1.49.98,3.06,1.83,4.61,2.72,1.59.82,3.17,1.66,4.8,2.39.81.38,1.62.76,2.45,1.1.83.35,1.64.71,2.48,1.05,1.68.64,3.35,1.3,5.06,1.86,1.69.61,3.43,1.1,5.15,1.63,1.75.46,3.47.98,5.24,1.37,3.51.88,7.07,1.55,10.64,2.17,1.8.26,3.58.57,5.39.77l2.71.33,2.72.27c7.24.71,14.54,1.04,21.86,1.23,7.33.19,14.69.15,22.12.22-7.23,1.75-14.6,2.82-22.02,3.41-7.42.57-14.91.64-22.37.07-7.46-.56-14.91-1.56-22.26-3.24-1.84-.39-3.66-.91-5.48-1.37-1.81-.54-3.63-1.03-5.42-1.66-3.59-1.17-7.14-2.54-10.59-4.14-1.74-.77-3.42-1.67-5.11-2.54-1.66-.94-3.33-1.86-4.94-2.9-3.23-2.05-6.35-4.29-9.23-6.84-2.89-2.54-5.59-5.3-8.04-8.28l-1.79-2.28-1.67-2.37c-.56-.79-1.02-1.65-1.53-2.47-.5-.83-1.02-1.65-1.49-2.5-3.66-6.83-6.04-14.29-7.15-21.88l-.37-2.85c-.11-.95-.16-1.91-.24-2.86-.09-.95-.12-1.91-.15-2.87-.04-.96-.07-1.91-.05-2.87.01-.96,0-1.92.06-2.87.04-.96.08-1.92.17-2.87.07-.96.17-1.92.29-2.87.05-.48.13-.96.2-1.44.03-.24.08-.49.12-.73l.06-.37v-.05s0,.04,0,.04c0,.03,0,.05,0,.08,0,.06.01.11.03.17v-.32c0,.08-.01.16,0,.25.01.14,0,0,0,0l-.02-.17-.06-.42-.12-.88-.24-1.78c-.16-1.19-.3-2.38-.44-3.57-.27-2.38-.49-4.77-.67-7.16-.37-4.78-.55-9.56-.6-14.35-.09-9.58.47-19.17,1.81-28.68.67-4.75,1.54-9.48,2.61-14.17,1.09-4.68,2.39-9.32,3.92-13.89,3.06-9.13,7.09-17.97,12.19-26.19,5.09-8.22,11.24-15.79,18.3-22.41,7.04-6.62,15.01-12.27,23.41-16.89,4.2-2.34,8.52-4.47,12.93-6.37,4.42-1.89,8.94-3.54,13.52-4.97,9.18-2.87,18.54-4.83,28.02-6.23,9.51-1.19,19.05-1.81,28.67-1.5,4.8.16,9.6.53,14.36,1.17,4.77.65,9.5,1.55,14.17,2.68,9.33,2.22,18.54,5.53,27.09,10.06,8.57,4.51,16.52,10.19,23.61,16.78,7.11,6.58,13.34,14.05,18.71,22.06,2.69,4,5.17,8.14,7.46,12.38,2.28,4.24,4.36,8.58,6.27,12.99,3.8,8.83,6.89,17.95,9.33,27.22,1.22,4.64,2.29,9.32,3.17,14.03.44,2.36.85,4.72,1.2,7.1.18,1.19.35,2.38.5,3.57l.23,1.78.11.88.05.42.02.16s.02.14,0-.01c-.02-.09-.05-.19-.08-.27l.1.34c0-.07-.01-.14-.03-.21,0-.03-.02-.07-.03-.1l-.02-.04.02.04.16.34c.1.23.21.46.3.68.19.45.39.9.57,1.35.36.9.71,1.8,1.03,2.71.34.9.62,1.82.91,2.74.31.91.55,1.84.81,2.77.99,3.71,1.76,7.48,2.18,11.31.87,7.64.49,15.48-1.3,23.03-1.83,7.56-5.14,14.64-9.42,21.03-2.12,3.21-4.56,6.18-7.13,9-1.27,1.43-2.65,2.75-4,4.09-1.4,1.28-2.8,2.59-4.27,3.79-2.91,2.44-5.95,4.72-9.1,6.79-1.56,1.08-3.18,2.03-4.78,3.04-1.64.93-3.25,1.92-4.92,2.78-3.3,1.81-6.7,3.41-10.12,4.96-1.73.73-3.44,1.5-5.19,2.17l-2.61,1.03-2.63.97c-7.03,2.57-14.27,4.5-21.58,5.93-7.32,1.41-14.71,2.32-22.16,2.48"/>
    <path class="cls-2" d="m82.12,58.58c26.87-21.45,57.83-23.52,56.57-51.57,0,0,14.12,6.1,14.15,18.61,3.07-3.5,6.87-9.61,25.23-10.39,16.21-.68,23.3-8.05,23.3-8.05,0,0,4.49,19.53-17.04,28.13"/>
    <path class="cls-8" d="m80.6,56.66c5.4-4.28,11.17-8.02,17.09-11.37,5.9-3.38,11.95-6.4,17.74-9.63,2.89-1.62,5.72-3.3,8.34-5.17,2.62-1.87,5.05-3.93,7.05-6.28,2.01-2.34,3.47-5.03,4.38-7.92.91-2.89,1.2-6.01,1.06-9.16v-.02c-.06-1.35.97-2.49,2.32-2.55.38-.02.76.06,1.09.21.33.15.55.26.82.39l.75.39c.49.26.97.54,1.44.82.94.57,1.86,1.19,2.75,1.85,1.78,1.32,3.44,2.84,4.91,4.57,1.46,1.74,2.73,3.71,3.6,5.91.89,2.18,1.34,4.57,1.36,6.93l-4.28-1.62c1.34-1.58,3.02-3.6,5.04-5.09,2.01-1.52,4.25-2.65,6.51-3.48,2.27-.85,4.58-1.37,6.88-1.78,1.15-.19,2.3-.38,3.45-.48l1.72-.18,1.72-.11,3.3-.22c1.06-.05,2.11-.2,3.16-.33.53-.05,1.04-.16,1.56-.25.52-.1,1.04-.18,1.55-.29,1.02-.25,2.05-.46,3.05-.79,2.01-.59,3.96-1.34,5.8-2.27.91-.48,1.81-.98,2.64-1.54.43-.27.83-.57,1.22-.86.18-.15.39-.3.56-.45.17-.14.38-.33.44-.4l.07-.07c.96-.94,2.51-.92,3.45.05.32.33.53.75.63,1.17h0c.09.29.13.47.19.69.05.21.1.42.14.63.08.42.16.83.2,1.24.1.82.17,1.65.17,2.47.02.83-.03,1.65-.1,2.47-.08.82-.19,1.64-.37,2.45-.34,1.62-.84,3.21-1.52,4.72-.67,1.51-1.53,2.93-2.49,4.26-.95,1.33-2.06,2.53-3.26,3.6-.57.56-1.23,1.03-1.85,1.52-.66.44-1.29.92-1.97,1.3-2.7,1.6-5.6,2.71-8.56,3.32,2.57-1.6,4.97-3.34,7.03-5.35.54-.47,1-1.03,1.49-1.53l.67-.82c.23-.27.45-.54.65-.82.86-1.1,1.55-2.3,2.18-3.5,1.25-2.42,1.95-5.03,2.36-7.67.1-.66.18-1.33.24-1.99.05-.67.09-1.34.11-2.01.02-.67.02-1.34,0-2.01-.01-.33-.01-.67-.03-.99l-.02-.48c0-.15-.03-.34-.02-.41l4.14,1.15c-.33.33-.54.5-.79.73-.25.22-.49.4-.74.6-.5.37-.99.74-1.51,1.07-1.01.68-2.07,1.26-3.13,1.82-2.13,1.09-4.36,1.93-6.62,2.6-1.13.36-2.27.6-3.42.88-.57.12-1.15.22-1.73.32-.58.1-1.15.22-1.73.28-1.16.14-2.32.31-3.48.36l-3.36.22c-4.29.28-8.57.85-12.4,2.26-1.91.7-3.69,1.61-5.24,2.78-.77.6-1.49,1.23-2.18,1.98-.7.73-1.35,1.54-2.14,2.45-.88,1.02-2.43,1.13-3.44.24-.54-.47-.83-1.14-.84-1.81v-.05c-.02-1.75-.34-3.48-1-5.11-.65-1.63-1.62-3.17-2.8-4.57-1.19-1.4-2.57-2.68-4.09-3.8-.76-.56-1.55-1.09-2.36-1.59-.41-.24-.82-.48-1.23-.7l-.62-.32c-.19-.1-.43-.21-.57-.27l3.41-2.37c.17,3.58-.16,7.28-1.27,10.83-1.1,3.54-2.94,6.88-5.31,9.64-2.36,2.78-5.11,5.1-7.96,7.12-2.85,2.03-5.82,3.79-8.79,5.45-5.95,3.32-11.94,6.31-17.7,9.61-5.78,3.27-11.32,6.87-16.46,10.95h-.01c-1.06.85-2.6.67-3.44-.4-.84-1.06-.66-2.61.4-3.45"/>
    <path class="cls-8" d="m253.1,135.93c-4.66-.55-9.52-.62-14.07.4-11.64,2.45-20.43,11.77-25.49,22.14-.74,1.49-1.41,3.02-2.01,4.56l-5.26-4.09c9.69-6.19,21.95-9.39,33.28-6.5,3.69.89,7.2,2.26,10.45,4.05-3.66-.59-7.27-1.04-10.83-1.09-7.02-.16-13.82,1.3-20.11,4.28-3.1,1.45-6.07,3.22-8.95,5.18-2.72,1.85-6.25-.76-5.32-3.89.77-2.58,1.8-5.07,3.04-7.42,6.07-11.72,18.03-21.58,31.75-21.17,4.71.09,9.39,1.34,13.53,3.55h0Z"/>
  </g>
</svg>