<?xml version="1.0" encoding="UTF-8"?>
<svg id="Layer_1" data-name="Layer 1" xmlns="http://www.w3.org/2000/svg" viewBox="0 0 678.84 399.12">
  <defs>
    <style>
      .cls-1, .cls-2 {
        fill: none;
        stroke: #000;
        stroke-linecap: round;
        stroke-miterlimit: 10;
        stroke-width: 7px;
      }

      .cls-2 {
        stroke-dasharray: 0 0 24.45 24.45;
      }

      .cls-3 {
        font-family: Kalam-Regular, Kalam;
        font-size: 96.66px;
      }
    </style>
  </defs>
  <text class="cls-3" transform="translate(3.57 111.29) rotate(-2.43)"><tspan x="0" y="0">Ce que les gens</tspan><tspan x="0" y="115.99" xml:space="preserve">  commandent</tspan></text>
  <g>
    <path class="cls-1" d="m365.58,245.44c.97,3.43,2.96,7.27,5.83,11.43"/>
    <path class="cls-2" d="m387.54,275.18c27.85,26.73,77.22,58.41,124.16,75.81,36.97,13.7,93.71,12.15,129.53,11.17,1.41-.04,2.79-.08,4.15-.13"/>
    <path class="cls-1" d="m657.59,361.49c4.7-.25,9-.54,12.86-.83"/>
    <path d="m625.28,397.72c-1.16-1.54-.84-3.74.71-4.9l42.87-32.09-47.21-25.27c-1.7-.91-2.35-3.04-1.44-4.74.91-1.7,3.05-2.34,4.74-1.44l52.06,27.87c1.05.56,1.75,1.63,1.84,2.82.09,1.19-.44,2.35-1.39,3.07l-47.27,35.39c-.55.41-1.19.64-1.83.69-1.15.09-2.32-.4-3.07-1.39Z"/>
  </g>
</svg>